SplineFontDB: 3.0
FontName: Almendra-Bold
FullName: Almendra Bold
FamilyName: Almendra
Weight: Bold
Copyright: Copyright (c) 2011-2012, Ana Sanfelippo (anasanfe@gmail.com), with Reserved Font Name 'Almendra'
Version: 1.003
ItalicAngle: 0
UnderlinePosition: -50
UnderlineWidth: 50
Ascent: 800
Descent: 200
sfntRevision: 0x000100c5
LayerCount: 2
Layer: 0 1 "Back"  1
Layer: 1 1 "Fore"  0
XUID: [1021 222 2072105651 4171567]
FSType: 0
OS2Version: 3
OS2_WeightWidthSlopeOnly: 0
OS2_UseTypoMetrics: 1
CreationTime: 1273876560
ModificationTime: 1352734881
PfmFamily: 17
TTFWeight: 700
TTFWidth: 5
LineGap: 0
VLineGap: 0
Panose: 2 0 0 0 0 0 0 0 0 0
OS2TypoAscent: 951
OS2TypoAOffset: 0
OS2TypoDescent: -345
OS2TypoDOffset: 0
OS2TypoLinegap: 0
OS2WinAscent: 951
OS2WinAOffset: 0
OS2WinDescent: 345
OS2WinDOffset: 0
HheadAscent: 951
HheadAOffset: 0
HheadDescent: -345
HheadDOffset: 0
OS2SubXSize: 650
OS2SubYSize: 600
OS2SubXOff: 0
OS2SubYOff: 75
OS2SupXSize: 650
OS2SupYSize: 600
OS2SupXOff: 0
OS2SupYOff: 350
OS2StrikeYSize: 50
OS2StrikeYPos: 297
OS2Vendor: 'pyrs'
OS2CodePages: 20000001.00000000
OS2UnicodeRanges: 8000006f.00000002.00000000.00000000
Lookup: 4 0 1 "'liga' Standard Ligatures in Latin lookup 0"  {"'liga' Standard Ligatures in Latin lookup 0 subtable"  } ['liga' ('latn' <'dflt' > ) ]
Lookup: 258 0 0 "'kern' Horizontal Kerning in Latin lookup 0"  {"'kern' Horizontal Kerning in Latin lookup 0 subtable"  } ['kern' ('latn' <'dflt' > ) ]
DEI: 91125
TtTable: prep
PUSHW_1
 511
SCANCTRL
PUSHB_1
 4
SCANTYPE
EndTTInstrs
ShortTable: maxp 16
  1
  0
  248
  93
  4
  0
  0
  2
  0
  1
  1
  0
  64
  0
  0
  0
EndShort
LangName: 1033 "" "" "" "AnaSanfelippo: Almendra Bold: 2011" "" "Version 1.003" "" "Almendra is a trademark of Ana Sanfelippo." "Ana Sanfelippo" "Ana Sanfelippo" "" "" "www.anasanfelippo.com.ar" "This Font Software is licensed under the SIL Open Font License, Version 1.1. This license is available with a FAQ at: http://scripts.sil.org/OFL" "http://scripts.sil.org/OFL" 

StartChar: exclam
Encoding: 33 33 4
Width: 260
GlyphClass: 2
Flags: W
LayerCount: 2
Fore
SplineSet
223 85 m 1,0,1
 212 63 212 63 182 32 c 128,-1,2
 152 1 152 1 129 -15 c 1,3,4
 106 0 106 0 76 31.5 c 128,-1,5
 46 63 46 63 34 85 c 1,6,7
 47 106 47 106 74.5 130 c 128,-1,8
 102 154 102 154 129 166 c 1,9,10
 153 153 153 153 181 129.5 c 128,-1,11
 209 106 209 106 223 85 c 1,0,1
186 711 m 0,12,13
 190 711 190 711 194 711 c 1,14,15
 233 688 233 688 253 651 c 1,16,17
 184 463 184 463 148 246 c 1,18,-1
 102 241 l 1,19,-1
 64 678 l 1,20,21
 120 711 120 711 186 711 c 0,12,13
EndSplineSet
EndChar

StartChar: quotedbl
Encoding: 34 34 5
Width: 419
GlyphClass: 2
Flags: W
LayerCount: 2
Fore
SplineSet
102 378 m 1,0,-1
 80 651 l 1,1,2
 127 681 127 681 194 681 c 1,3,-1
 209 661 l 1,4,5
 168 541 168 541 145 383 c 1,6,-1
 102 378 l 1,0,-1
268 378 m 1,7,-1
 246 651 l 1,8,9
 293 681 293 681 360 681 c 1,10,-1
 375 661 l 1,11,12
 334 541 334 541 311 383 c 1,13,-1
 268 378 l 1,7,-1
EndSplineSet
EndChar

StartChar: numbersign
Encoding: 35 35 6
Width: 550
GlyphClass: 2
Flags: W
LayerCount: 2
Fore
SplineSet
391 381 m 1,0,1
 452 380 452 380 474 380 c 128,-1,2
 496 380 496 380 503 380 c 1,3,-1
 510 374 l 1,4,-1
 500 311 l 1,5,-1
 383 314 l 1,6,-1
 369 193 l 1,7,8
 427 192 427 192 448 192 c 128,-1,9
 469 192 469 192 476 192 c 1,10,-1
 483 187 l 1,11,-1
 473 123 l 1,12,-1
 361 126 l 1,13,-1
 335 -92 l 1,14,-1
 330 -92 l 1,15,16
 287 -82 287 -82 275 -71 c 1,17,18
 292 26 292 26 305 128 c 1,19,-1
 205 130 l 1,20,-1
 179 -92 l 1,21,-1
 174 -92 l 1,22,23
 131 -82 131 -82 119 -71 c 1,24,25
 140 50 140 50 149 131 c 1,26,-1
 48 134 l 1,27,-1
 40 141 l 1,28,-1
 50 208 l 1,29,-1
 96 204 l 2,30,31
 146 200 146 200 157 200 c 1,32,-1
 172 319 l 1,33,-1
 75 322 l 1,34,-1
 67 328 l 1,35,-1
 77 396 l 1,36,-1
 122 392 l 2,37,38
 167 389 167 389 180 388 c 1,39,-1
 205 587 l 1,40,41
 238 587 238 587 263 592 c 1,42,-1
 267 589 l 1,43,44
 246 472 246 472 235 386 c 1,45,-1
 336 382 l 1,46,-1
 361 587 l 1,47,48
 394 587 394 587 419 592 c 1,49,-1
 423 589 l 1,50,51
 402 477 402 477 391 381 c 1,0,1
213 197 m 1,52,-1
 313 194 l 1,53,-1
 328 316 l 1,54,-1
 227 318 l 1,55,-1
 213 197 l 1,52,-1
EndSplineSet
EndChar

StartChar: dollar
Encoding: 36 36 7
Width: 500
GlyphClass: 2
Flags: W
LayerCount: 2
Fore
SplineSet
280 514 m 1,0,-1
 279 583 l 1,1,2
 302 593 302 593 318 606 c 1,3,-1
 324 603 l 1,4,5
 320 564 320 564 317 523 c 1,6,7
 406 521 406 521 468 499 c 1,8,-1
 468 483 l 1,9,10
 421 435 421 435 405 375 c 1,11,-1
 395 373 l 1,12,13
 353 408 353 408 312 425 c 1,14,-1
 309 362 l 1,15,-1
 307 330 l 1,16,17
 317 326 317 326 335 319.5 c 128,-1,18
 353 313 353 313 364 309 c 128,-1,19
 375 305 375 305 390 299 c 128,-1,20
 405 293 405 293 414 288 c 128,-1,21
 423 283 423 283 432 278 c 0,22,23
 449 267 449 267 449 256 c 0,24,25
 449 185 449 185 393 113.5 c 128,-1,26
 337 42 337 42 262 -2 c 1,27,-1
 257 -112 l 1,28,-1
 251 -113 l 1,29,30
 231 -111 231 -111 216 -96 c 1,31,-1
 225 -15 l 1,32,33
 137 -11 137 -11 71 8 c 1,34,-1
 71 24 l 1,35,36
 121 90 121 90 126 187 c 1,37,-1
 150 187 l 1,38,39
 150 183 150 183 150.5 178.5 c 128,-1,40
 151 174 151 174 151.5 169 c 128,-1,41
 152 164 152 164 152.5 158.5 c 128,-1,42
 153 153 153 153 154 148.5 c 128,-1,43
 155 144 155 144 156 139.5 c 128,-1,44
 157 135 157 135 158 131 c 1,45,46
 158 124 158 124 160 119 c 1,47,48
 192 90 192 90 232 77 c 1,49,-1
 238 199 l 1,50,51
 197 214 197 214 182.5 219 c 128,-1,52
 168 224 168 224 153 230 c 128,-1,53
 138 236 138 236 128.5 241 c 128,-1,54
 119 246 119 246 110 252 c 0,55,56
 93 262 93 262 93 273 c 0,57,58
 93 338 93 338 151.5 407.5 c 128,-1,59
 210 477 210 477 280 514 c 1,0,-1
331 136 m 0,60,61
 331 159 331 159 272 185 c 1,62,-1
 266 69 l 1,63,-1
 278 69 l 2,64,65
 304 69 304 69 317.5 88 c 128,-1,66
 331 107 331 107 331 136 c 0,60,61
211 395 m 0,67,68
 211 371 211 371 275 343 c 1,69,-1
 279 436 l 1,70,71
 267 439 267 439 251 439 c 128,-1,72
 235 439 235 439 223 426.5 c 128,-1,73
 211 414 211 414 211 395 c 0,67,68
EndSplineSet
EndChar

StartChar: percent
Encoding: 37 37 8
Width: 744
GlyphClass: 2
Flags: W
LayerCount: 2
Fore
SplineSet
178 570 m 0,0,1
 200 570 200 570 288 555 c 128,-1,2
 376 540 376 540 442.5 540 c 128,-1,3
 509 540 509 540 532 578 c 2,4,-1
 538 588 l 1,5,6
 593 591 593 591 617 598 c 1,7,-1
 620 595 l 1,8,9
 552 498 552 498 475 378 c 2,10,-1
 170 -100 l 1,11,-1
 165 -100 l 1,12,13
 119 -79 119 -79 112 -68 c 1,14,15
 213 69 213 69 234 102 c 2,16,-1
 409 376 l 1,17,18
 457 448 457 448 503 527 c 1,19,-1
 499 528 l 1,20,21
 469 496 469 496 418.5 496 c 128,-1,22
 368 496 368 496 274 539 c 1,23,-1
 271 536 l 1,24,25
 330 489 330 489 353 408 c 1,26,27
 335 327 335 327 281.5 277 c 128,-1,28
 228 227 228 227 174 227 c 128,-1,29
 120 227 120 227 70.5 272.5 c 128,-1,30
 21 318 21 318 1 389 c 1,31,32
 19 470 19 470 74 520 c 128,-1,33
 129 570 129 570 178 570 c 0,0,1
465 278 m 128,-1,35
 520 328 520 328 573.5 328 c 128,-1,36
 627 328 627 328 675.5 282.5 c 128,-1,37
 724 237 724 237 744 166 c 1,38,39
 726 85 726 85 672.5 35 c 128,-1,40
 619 -15 619 -15 565 -15 c 128,-1,41
 511 -15 511 -15 461.5 30.5 c 128,-1,42
 412 76 412 76 392 147 c 1,43,34
 410 228 410 228 465 278 c 128,-1,35
538.5 241 m 128,-1,45
 527 202 527 202 527 156.5 c 128,-1,46
 527 111 527 111 538.5 72 c 128,-1,47
 550 33 550 33 569 22 c 1,48,49
 588 33 588 33 599.5 72 c 128,-1,50
 611 111 611 111 611 156.5 c 128,-1,51
 611 202 611 202 599.5 241 c 128,-1,52
 588 280 588 280 569 291 c 1,53,44
 550 280 550 280 538.5 241 c 128,-1,45
147.5 483 m 128,-1,55
 136 444 136 444 136 398.5 c 128,-1,56
 136 353 136 353 147.5 314 c 128,-1,57
 159 275 159 275 178 264 c 1,58,59
 197 275 197 275 208.5 314 c 128,-1,60
 220 353 220 353 220 398.5 c 128,-1,61
 220 444 220 444 208.5 483 c 128,-1,62
 197 522 197 522 178 533 c 1,63,54
 159 522 159 522 147.5 483 c 128,-1,55
EndSplineSet
EndChar

StartChar: ampersand
Encoding: 38 38 9
Width: 686
GlyphClass: 2
Flags: W
LayerCount: 2
Fore
SplineSet
573 318 m 0,0,1
 573 237 573 237 506 167 c 1,2,3
 524 138 524 138 561 97.5 c 128,-1,4
 598 57 598 57 625 34 c 1,5,6
 657 30 657 30 679 24 c 1,7,-1
 676 -2 l 1,8,9
 631 1 631 1 592 1 c 0,10,11
 477 1 477 1 407 -15 c 1,12,-1
 403 -1 l 1,13,14
 409 9 409 9 409 25.5 c 128,-1,15
 409 42 409 42 399 54 c 1,16,17
 353 11 353 11 297 -15 c 1,18,19
 186 -15 186 -15 110 39 c 128,-1,20
 34 93 34 93 34 191 c 0,21,22
 34 302 34 302 178 364 c 1,23,24
 155 400 155 400 136 451.5 c 128,-1,25
 117 503 117 503 117 538 c 1,26,27
 145 574 145 574 213 615 c 128,-1,28
 281 656 281 656 328 666 c 1,29,30
 420 666 420 666 467 626 c 0,31,32
 494 603 494 603 494 566 c 128,-1,33
 494 529 494 529 461 495 c 128,-1,34
 428 461 428 461 384 443 c 1,35,-1
 385 438 l 1,36,-1
 618 456 l 1,37,-1
 622 452 l 1,38,39
 615 433 615 433 608 401 c 1,40,41
 498 408 498 408 478 409 c 1,42,-1
 478 404 l 1,43,44
 573 388 573 388 573 318 c 0,0,1
273 562 m 0,45,46
 273 511 273 511 341.5 395 c 128,-1,47
 410 279 410 279 472 209 c 1,48,49
 482 243 482 243 482 293 c 0,50,51
 482 412 482 412 350 417 c 1,52,-1
 343 436 l 1,53,54
 388 473 388 473 388 526 c 0,55,56
 388 560 388 560 368 582.5 c 128,-1,57
 348 605 348 605 320 605 c 128,-1,58
 292 605 292 605 280 600 c 1,59,60
 273 582 273 582 273 562 c 0,45,46
317 75 m 0,61,62
 348 75 348 75 373 91 c 1,63,64
 298 173 298 173 216 300 c 1,65,66
 204 278 204 278 204 223 c 128,-1,67
 204 168 204 168 232 121.5 c 128,-1,68
 260 75 260 75 317 75 c 0,61,62
EndSplineSet
EndChar

StartChar: quotesingle
Encoding: 39 39 10
Width: 260
GlyphClass: 2
Flags: W
LayerCount: 2
Fore
SplineSet
102 378 m 1,0,-1
 80 651 l 1,1,2
 127 681 127 681 194 681 c 1,3,-1
 209 661 l 1,4,5
 168 541 168 541 145 383 c 1,6,-1
 102 378 l 1,0,-1
EndSplineSet
EndChar

StartChar: parenleft
Encoding: 40 40 11
Width: 297
GlyphClass: 2
Flags: W
LayerCount: 2
Fore
SplineSet
92.5 -1 m 128,-1,1
 31 132 31 132 31 259.5 c 128,-1,2
 31 387 31 387 91.5 507.5 c 128,-1,3
 152 628 152 628 250 711 c 1,4,-1
 265 697 l 1,5,6
 123 503 123 503 123 262 c 0,7,8
 123 136 123 136 159 13.5 c 128,-1,9
 195 -109 195 -109 263 -202 c 1,10,-1
 250 -215 l 1,11,0
 154 -134 154 -134 92.5 -1 c 128,-1,1
EndSplineSet
EndChar

StartChar: parenright
Encoding: 41 41 12
Width: 297
GlyphClass: 2
Flags: W
LayerCount: 2
Fore
SplineSet
205.5 507.5 m 128,-1,1
 266 387 266 387 266 259.5 c 128,-1,2
 266 132 266 132 204.5 -1 c 128,-1,3
 143 -134 143 -134 47 -215 c 1,4,-1
 34 -202 l 1,5,6
 102 -109 102 -109 138 13.5 c 128,-1,7
 174 136 174 136 174 262 c 0,8,9
 174 503 174 503 32 697 c 1,10,-1
 47 711 l 1,11,0
 145 628 145 628 205.5 507.5 c 128,-1,1
EndSplineSet
EndChar

StartChar: asterisk
Encoding: 42 42 13
Width: 371
GlyphClass: 2
Flags: W
LayerCount: 2
Fore
SplineSet
283 630 m 1,0,1
 299 632 299 632 310.5 632 c 128,-1,2
 322 632 322 632 326 629 c 1,3,4
 327 623 327 623 305 591 c 1,5,6
 325 571 325 571 327 568 c 1,7,-1
 326 565 l 1,8,9
 321 565 321 565 317 565 c 0,10,11
 271 565 271 565 217 547 c 1,12,13
 271 529 271 529 317 529 c 0,14,15
 321 529 321 529 326 529 c 1,16,-1
 327 526 l 1,17,18
 325 523 325 523 305 503 c 1,19,20
 327 471 327 471 326 465 c 1,21,22
 322 462 322 462 310.5 462 c 128,-1,23
 299 462 299 462 283 464 c 1,24,25
 275 436 275 436 274 434 c 1,26,-1
 270 433 l 1,27,28
 245 477 245 477 201 516 c 1,29,30
 212 457 212 457 240 415 c 1,31,-1
 237 413 l 1,32,33
 231 413 231 413 206 420 c 1,34,35
 191 386 191 386 184 383 c 1,36,37
 174 388 174 388 162 420 c 1,38,39
 137 413 137 413 131 413 c 1,40,-1
 128 415 l 1,41,42
 151 453 151 453 165 516 c 1,43,44
 119 473 119 473 98 433 c 1,45,-1
 94 434 l 1,46,47
 93 436 93 436 85 464 c 1,48,49
 69 463 69 463 57 463 c 128,-1,50
 45 463 45 463 42 465 c 1,51,52
 41 476 41 476 63 503 c 1,53,54
 43 523 43 523 41 526 c 1,55,-1
 42 529 l 1,56,57
 88 529 88 529 147 547 c 1,58,59
 88 565 88 565 42 565 c 1,60,-1
 41 568 l 1,61,62
 43 571 43 571 63 591 c 1,63,64
 41 618 41 618 42 629 c 1,65,66
 45 631 45 631 57 631 c 128,-1,67
 69 631 69 631 85 630 c 1,68,69
 93 658 93 658 94 660 c 1,70,-1
 98 661 l 1,71,72
 119 621 119 621 165 578 c 1,73,74
 151 640 151 640 128 679 c 1,75,-1
 131 681 l 1,76,77
 138 681 138 681 162 674 c 1,78,79
 174 706 174 706 184 711 c 1,80,81
 191 708 191 708 206 674 c 1,82,83
 231 681 231 681 237 681 c 1,84,-1
 240 679 l 1,85,86
 212 635 212 635 201 578 c 1,87,88
 246 619 246 619 270 661 c 1,89,-1
 274 660 l 1,90,91
 275 658 275 658 283 630 c 1,0,1
EndSplineSet
EndChar

StartChar: plus
Encoding: 43 43 14
Width: 576
GlyphClass: 2
Flags: W
LayerCount: 2
Fore
SplineSet
320 212 m 1,0,1
 320 85 320 85 329 -10 c 1,2,-1
 259 -19 l 1,3,-1
 249 -12 l 1,4,-1
 249 212 l 1,5,-1
 65 212 l 1,6,-1
 57 219 l 1,7,-1
 66 290 l 1,8,9
 188 284 188 284 249 283 c 1,10,-1
 249 486 l 1,11,-1
 320 495 l 1,12,-1
 325 489 l 1,13,14
 320 356 320 356 320 283 c 2,15,-1
 320 282 l 1,16,17
 357 281 357 281 416 281 c 128,-1,18
 475 281 475 281 514 284 c 1,19,-1
 520 278 l 1,20,-1
 511 212 l 1,21,-1
 320 212 l 1,0,1
EndSplineSet
EndChar

StartChar: comma
Encoding: 44 44 15
Width: 257
GlyphClass: 2
Flags: W
LayerCount: 2
Fore
SplineSet
223 85 m 1,0,1
 223 21 223 21 165.5 -55.5 c 128,-1,2
 108 -132 108 -132 45 -169 c 1,3,-1
 29 -149 l 1,4,5
 96 -86 96 -86 105 4 c 1,6,7
 86 20 86 20 64.5 44.5 c 128,-1,8
 43 69 43 69 34 85 c 1,9,10
 47 106 47 106 74.5 130 c 128,-1,11
 102 154 102 154 129 166 c 1,12,13
 153 153 153 153 181 129.5 c 128,-1,14
 209 106 209 106 223 85 c 1,0,1
EndSplineSet
EndChar

StartChar: hyphen
Encoding: 45 45 16
Width: 300
GlyphClass: 2
Flags: W
LayerCount: 2
Fore
SplineSet
76 298 m 2,0,1
 184 298 184 298 268 308 c 1,2,-1
 276 303 l 1,3,-1
 270 241 l 1,4,-1
 33 226 l 1,5,-1
 24 232 l 1,6,-1
 30 298 l 1,7,-1
 76 298 l 2,0,1
EndSplineSet
EndChar

StartChar: period
Encoding: 46 46 17
Width: 257
GlyphClass: 2
Flags: W
LayerCount: 2
Fore
SplineSet
223 85 m 1,0,1
 212 63 212 63 182 32 c 128,-1,2
 152 1 152 1 129 -15 c 1,3,4
 106 0 106 0 76 31.5 c 128,-1,5
 46 63 46 63 34 85 c 1,6,7
 47 106 47 106 74.5 130 c 128,-1,8
 102 154 102 154 129 166 c 1,9,10
 153 153 153 153 181 129.5 c 128,-1,11
 209 106 209 106 223 85 c 1,0,1
EndSplineSet
EndChar

StartChar: slash
Encoding: 47 47 18
Width: 354
GlyphClass: 2
Flags: W
LayerCount: 2
Fore
SplineSet
68 -41 m 1,0,-1
 63 -41 l 1,1,2
 18 -22 18 -22 9 -11 c 1,3,4
 32 39 32 39 85 178 c 1,5,-1
 202 477 l 2,6,7
 242 581 242 581 280 698 c 1,8,9
 327 701 327 701 349 706 c 1,10,-1
 353 703 l 1,11,12
 327 644 327 644 270 491 c 1,13,-1
 68 -41 l 1,0,-1
EndSplineSet
EndChar

StartChar: zero
Encoding: 48 48 19
Width: 520
GlyphClass: 2
Flags: W
LayerCount: 2
Fore
SplineSet
110 429 m 128,-1,1
 189 505 189 505 267.5 505 c 128,-1,2
 346 505 346 505 416.5 436 c 128,-1,3
 487 367 487 367 516 259 c 1,4,5
 489 136 489 136 411.5 60.5 c 128,-1,6
 334 -15 334 -15 255.5 -15 c 128,-1,7
 177 -15 177 -15 105 54.5 c 128,-1,8
 33 124 33 124 4 231 c 1,9,0
 31 353 31 353 110 429 c 128,-1,1
187 245 m 128,-1,11
 187 173 187 173 207.5 110.5 c 128,-1,12
 228 48 228 48 262 30 c 1,13,14
 296 48 296 48 316 111 c 128,-1,15
 336 174 336 174 336 245.5 c 128,-1,16
 336 317 336 317 316 379.5 c 128,-1,17
 296 442 296 442 262 460 c 1,18,19
 228 442 228 442 207.5 379.5 c 128,-1,10
 187 317 187 317 187 245 c 128,-1,11
EndSplineSet
EndChar

StartChar: one
Encoding: 49 49 20
Width: 341
GlyphClass: 2
Flags: W
LayerCount: 2
Fore
SplineSet
311 -6 m 1,0,1
 257 0 257 0 165.5 0 c 128,-1,2
 74 0 74 0 12 -9 c 1,3,-1
 9 13 l 1,4,5
 33 23 33 23 85 35 c 1,6,7
 94 96 94 96 94 240 c 128,-1,8
 94 384 94 384 86 452 c 1,9,10
 32 468 32 468 12 480 c 1,11,-1
 16 502 l 1,12,13
 83 490 83 490 178.5 490 c 128,-1,14
 274 490 274 490 317 495 c 1,15,-1
 320 472 l 1,16,17
 282 462 282 462 259 451 c 1,18,19
 247 358 247 358 247 228.5 c 128,-1,20
 247 99 247 99 257 37 c 1,21,22
 289 26 289 26 314 14 c 1,23,-1
 311 -6 l 1,0,1
EndSplineSet
EndChar

StartChar: two
Encoding: 50 50 21
Width: 456
GlyphClass: 2
Flags: W
LayerCount: 2
Fore
SplineSet
425 167 m 1,0,1
 413 128 413 128 413 77.5 c 128,-1,2
 413 27 413 27 423 -10 c 1,3,-1
 411 -18 l 1,4,5
 231 19 231 19 49 19 c 1,6,7
 32 3 32 3 16 -25 c 1,8,-1
 -7 -15 l 1,9,10
 9 26 9 26 50.5 78.5 c 128,-1,11
 92 131 92 131 131 171.5 c 128,-1,12
 170 212 170 212 200.5 264.5 c 128,-1,13
 231 317 231 317 231 357.5 c 128,-1,14
 231 398 231 398 218 414.5 c 128,-1,15
 205 431 205 431 178.5 431 c 128,-1,16
 152 431 152 431 131 423 c 1,17,18
 123 401 123 401 123 373.5 c 128,-1,19
 123 346 123 346 134 336 c 1,20,-1
 133 329 l 1,21,22
 80 310 80 310 45 279 c 1,23,24
 19 281 19 281 19 308 c 0,25,26
 19 371 19 371 81.5 430.5 c 128,-1,27
 144 490 144 490 212 505 c 1,28,29
 303 505 303 505 354 464.5 c 128,-1,30
 405 424 405 424 405 340 c 1,31,32
 303 230 303 230 153 128 c 1,33,-1
 153 118 l 1,34,35
 174 131 174 131 186 134 c 1,36,37
 274 134 274 134 379 117 c 1,38,39
 392 142 392 142 403 174 c 1,40,-1
 425 167 l 1,0,1
EndSplineSet
EndChar

StartChar: three
Encoding: 51 51 22
Width: 470
GlyphClass: 2
Flags: W
LayerCount: 2
Fore
SplineSet
76 118 m 1,0,1
 76 78 76 78 78 55 c 1,2,3
 109 10 109 10 149 -13.5 c 128,-1,4
 189 -37 189 -37 220 -37 c 128,-1,5
 251 -37 251 -37 268 -24 c 1,6,7
 281 7 281 7 281 52 c 0,8,9
 281 123 281 123 248.5 155 c 128,-1,10
 216 187 216 187 144 187 c 1,11,-1
 131 195 l 1,12,-1
 250 364 l 1,13,-1
 248 368 l 1,14,15
 232 361 232 361 220 358 c 1,16,17
 167 358 167 358 100 365 c 1,18,19
 85 332 85 332 77 302 c 1,20,-1
 55 308 l 1,21,22
 63 356 63 356 63 409.5 c 128,-1,23
 63 463 63 463 52 496 c 1,24,-1
 64 505 l 1,25,26
 208 478 208 478 389 478 c 1,27,28
 421 492 421 492 446 517 c 1,29,-1
 466 501 l 1,30,-1
 255 287 l 1,31,32
 452 260 452 260 452 72 c 1,33,34
 412 15 412 15 340.5 -39 c 128,-1,35
 269 -93 269 -93 204 -115 c 1,36,37
 124 -115 124 -115 7 -61 c 1,38,-1
 7 -47 l 1,39,40
 42 -7 42 -7 51 118 c 1,41,-1
 76 118 l 1,0,1
EndSplineSet
EndChar

StartChar: four
Encoding: 52 52 23
Width: 534
GlyphClass: 2
Flags: W
LayerCount: 2
Fore
SplineSet
424 505 m 1,0,1
 408 415 408 415 408 307.5 c 128,-1,2
 408 200 408 200 410 128 c 1,3,4
 450 128 450 128 466 135.5 c 128,-1,5
 482 143 482 143 494 174 c 1,6,-1
 513 170 l 1,7,8
 502 114 502 114 502 35 c 1,9,-1
 497 33 l 1,10,11
 461 36 461 36 411 36 c 1,12,13
 411 -20 411 -20 419 -65 c 1,14,15
 438 -75 438 -75 473 -85 c 1,16,-1
 468 -109 l 1,17,18
 408 -100 408 -100 325.5 -100 c 128,-1,19
 243 -100 243 -100 167 -112 c 1,20,-1
 163 -90 l 1,21,22
 184 -79 184 -79 247 -63 c 1,23,24
 254 -18 254 -18 254 36 c 1,25,-1
 1 36 l 1,26,-1
 -7 60 l 1,27,28
 126 224 126 224 238 483 c 1,29,30
 277 484 277 484 334 491.5 c 128,-1,31
 391 499 391 499 415 509 c 1,32,-1
 424 505 l 1,0,1
250 399 m 1,33,34
 199 248 199 248 131 139 c 1,35,36
 186 133 186 133 254 131 c 1,37,-1
 257 399 l 1,38,-1
 250 399 l 1,33,34
EndSplineSet
EndChar

StartChar: five
Encoding: 53 53 24
Width: 487
GlyphClass: 2
Flags: W
LayerCount: 2
Fore
SplineSet
83 118 m 1,0,1
 83 78 83 78 85 55 c 1,2,3
 116 10 116 10 156 -13.5 c 128,-1,4
 196 -37 196 -37 227 -37 c 128,-1,5
 258 -37 258 -37 275 -24 c 1,6,7
 288 7 288 7 288 52 c 0,8,9
 288 192 288 192 161 192 c 0,10,11
 121 192 121 192 89 174 c 1,12,-1
 77 184 l 1,13,-1
 87 391 l 2,14,15
 89 418 89 418 89 447 c 128,-1,16
 89 476 89 476 85 501 c 1,17,-1
 107 505 l 1,18,-1
 117 477 l 1,19,20
 278 480 278 480 398 504 c 1,21,-1
 409 495 l 1,22,23
 396 456 396 456 396 401.5 c 128,-1,24
 396 347 396 347 402 311 c 1,25,-1
 378 306 l 1,26,27
 367 344 367 344 358 368 c 1,28,29
 275 360 275 360 175 360 c 1,30,-1
 152 370 l 1,31,-1
 148 367 l 1,32,-1
 126 244 l 1,33,34
 180 275 180 275 242 287 c 1,35,36
 343 282 343 282 401 226 c 128,-1,37
 459 170 459 170 459 72 c 1,38,39
 419 15 419 15 347.5 -39 c 128,-1,40
 276 -93 276 -93 211 -115 c 1,41,42
 131 -115 131 -115 14 -61 c 1,43,-1
 14 -47 l 1,44,45
 49 -7 49 -7 58 118 c 1,46,-1
 83 118 l 1,0,1
EndSplineSet
EndChar

StartChar: six
Encoding: 54 54 25
Width: 499
GlyphClass: 2
Flags: W
LayerCount: 2
Fore
SplineSet
189 215 m 0,0,1
 189 54 189 54 254 54 c 0,2,3
 282 54 282 54 296 67 c 1,4,5
 307 102 307 102 307 157.5 c 128,-1,6
 307 213 307 213 291 243.5 c 128,-1,7
 275 274 275 274 222 274 c 1,8,-1
 222 283 l 1,9,10
 264 325 264 325 284 373 c 1,11,12
 371 373 371 373 421 318.5 c 128,-1,13
 471 264 471 264 471 156 c 1,14,15
 429 98 429 98 366 51.5 c 128,-1,16
 303 5 303 5 236 -15 c 1,17,18
 24 -15 24 -15 24 182 c 0,19,20
 24 319 24 319 128 430 c 128,-1,21
 232 541 232 541 377 585 c 1,22,-1
 390 567 l 1,23,24
 285 501 285 501 237 418.5 c 128,-1,25
 189 336 189 336 189 215 c 0,0,1
EndSplineSet
EndChar

StartChar: seven
Encoding: 55 55 26
Width: 398
GlyphClass: 2
Flags: W
LayerCount: 2
Fore
SplineSet
248 357 m 1,0,1
 226 356 226 356 185.5 356 c 128,-1,2
 145 356 145 356 77 363 c 1,3,4
 65 334 65 334 57 300 c 1,5,-1
 33 305 l 1,6,7
 39 341 39 341 39 400 c 128,-1,8
 39 459 39 459 26 498 c 1,9,-1
 37 507 l 1,10,11
 166 480 166 480 363 480 c 1,12,13
 374 491 374 491 383 506 c 1,14,-1
 407 494 l 1,15,16
 223 175 223 175 223 -59 c 1,17,18
 271 -69 271 -69 308 -85 c 1,19,-1
 305 -107 l 1,20,21
 247 -100 247 -100 161 -100 c 128,-1,22
 75 -100 75 -100 12 -113 c 1,23,-1
 7 -90 l 1,24,25
 27 -85 27 -85 61 -66 c 1,26,27
 69 -2 69 -2 100 63.5 c 128,-1,28
 131 129 131 129 214 261 c 2,29,-1
 279 364 l 1,30,-1
 275 368 l 1,31,32
 261 361 261 361 248 357 c 1,0,1
EndSplineSet
EndChar

StartChar: eight
Encoding: 56 56 27
Width: 482
GlyphClass: 2
Flags: W
LayerCount: 2
Fore
SplineSet
93 21.5 m 128,-1,1
 30 58 30 58 30 129 c 128,-1,2
 30 200 30 200 145 280 c 1,3,4
 54 342 54 342 54 454 c 1,5,6
 83 497 83 497 144.5 535 c 128,-1,7
 206 573 206 573 260 585 c 1,8,9
 330 585 330 585 371 560 c 128,-1,10
 412 535 412 535 412 485 c 0,11,12
 412 454 412 454 385.5 418.5 c 128,-1,13
 359 383 359 383 320 356 c 1,14,15
 424 302 424 302 447 237 c 0,16,17
 458 206 458 206 458 166 c 1,18,19
 426 104 426 104 368.5 53.5 c 128,-1,20
 311 3 311 3 244 -15 c 1,21,0
 156 -15 156 -15 93 21.5 c 128,-1,1
298 56 m 1,22,23
 307 92 307 92 307 116 c 128,-1,24
 307 140 307 140 305.5 149.5 c 128,-1,25
 304 159 304 159 299 167.5 c 128,-1,26
 294 176 294 176 290 182.5 c 128,-1,27
 286 189 286 189 276.5 197 c 128,-1,28
 267 205 267 205 262.5 209 c 128,-1,29
 258 213 258 213 245 221 c 128,-1,30
 232 229 232 229 227 232 c 0,31,32
 207 244 207 244 187 254 c 1,33,34
 157 202 157 202 157 153.5 c 128,-1,35
 157 105 157 105 186.5 76 c 128,-1,36
 216 47 216 47 252.5 47 c 128,-1,37
 289 47 289 47 298 56 c 1,22,23
205 515 m 1,38,39
 199 500 199 500 199 472 c 128,-1,40
 199 444 199 444 218.5 422 c 128,-1,41
 238 400 238 400 275 379 c 1,42,43
 300 418 300 418 300 468 c 0,44,45
 300 494 300 494 283 508.5 c 128,-1,46
 266 523 266 523 240.5 523 c 128,-1,47
 215 523 215 523 205 515 c 1,38,39
EndSplineSet
EndChar

StartChar: nine
Encoding: 57 57 28
Width: 499
GlyphClass: 2
Flags: W
LayerCount: 2
Fore
SplineSet
280 422 m 0,0,1
 266 436 266 436 241.5 436 c 128,-1,2
 217 436 217 436 203 423 c 1,3,4
 192 388 192 388 192 344.5 c 128,-1,5
 192 301 192 301 194.5 279.5 c 128,-1,6
 197 258 197 258 206 237 c 0,7,8
 222 196 222 196 277 196 c 1,9,-1
 277 187 l 1,10,11
 235 145 235 145 215 97 c 1,12,13
 130 97 130 97 79 160.5 c 128,-1,14
 28 224 28 224 28 334 c 1,15,16
 70 392 70 392 133 438.5 c 128,-1,17
 196 485 196 485 263 505 c 1,18,19
 475 505 475 505 475 308 c 0,20,21
 475 163 475 163 371 45.5 c 128,-1,22
 267 -72 267 -72 122 -115 c 1,23,-1
 109 -97 l 1,24,25
 214 -31 214 -31 262 53 c 128,-1,26
 310 137 310 137 310 263.5 c 128,-1,27
 310 390 310 390 280 422 c 0,0,1
EndSplineSet
EndChar

StartChar: colon
Encoding: 58 58 29
Width: 257
GlyphClass: 2
Flags: W
LayerCount: 2
Fore
SplineSet
223 85 m 1,0,1
 212 63 212 63 182 32 c 128,-1,2
 152 1 152 1 129 -15 c 1,3,4
 106 0 106 0 76 31.5 c 128,-1,5
 46 63 46 63 34 85 c 1,6,7
 47 106 47 106 74.5 130 c 128,-1,8
 102 154 102 154 129 166 c 1,9,10
 153 153 153 153 181 129.5 c 128,-1,11
 209 106 209 106 223 85 c 1,0,1
223 424 m 1,12,13
 212 402 212 402 182 371 c 128,-1,14
 152 340 152 340 129 324 c 1,15,16
 106 339 106 339 76 370.5 c 128,-1,17
 46 402 46 402 34 424 c 1,18,19
 47 445 47 445 74.5 469 c 128,-1,20
 102 493 102 493 129 505 c 1,21,22
 153 492 153 492 181 468.5 c 128,-1,23
 209 445 209 445 223 424 c 1,12,13
EndSplineSet
EndChar

StartChar: semicolon
Encoding: 59 59 30
Width: 257
GlyphClass: 2
Flags: W
LayerCount: 2
Fore
SplineSet
223 85 m 1,0,1
 223 21 223 21 165.5 -55.5 c 128,-1,2
 108 -132 108 -132 45 -169 c 1,3,-1
 29 -149 l 1,4,5
 96 -86 96 -86 105 4 c 1,6,7
 86 20 86 20 64.5 44.5 c 128,-1,8
 43 69 43 69 34 85 c 1,9,10
 47 106 47 106 74.5 130 c 128,-1,11
 102 154 102 154 129 166 c 1,12,13
 153 153 153 153 181 129.5 c 128,-1,14
 209 106 209 106 223 85 c 1,0,1
223 424 m 1,15,16
 212 402 212 402 182 371 c 128,-1,17
 152 340 152 340 129 324 c 1,18,19
 106 339 106 339 76 370.5 c 128,-1,20
 46 402 46 402 34 424 c 1,21,22
 47 445 47 445 74.5 469 c 128,-1,23
 102 493 102 493 129 505 c 1,24,25
 153 492 153 492 181 468.5 c 128,-1,26
 209 445 209 445 223 424 c 1,15,16
EndSplineSet
EndChar

StartChar: less
Encoding: 60 60 31
Width: 576
GlyphClass: 2
Flags: W
LayerCount: 2
Fore
SplineSet
495 45 m 1,0,1
 264 160 264 160 55 222 c 1,2,-1
 69 286 l 1,3,4
 125 303 125 303 253 351.5 c 128,-1,5
 381 400 381 400 497 459 c 1,6,-1
 521 393 l 1,7,-1
 516 383 l 1,8,-1
 167 254 l 1,9,-1
 167 250 l 1,10,-1
 516 122 l 1,11,-1
 521 112 l 1,12,-1
 495 45 l 1,0,1
EndSplineSet
EndChar

StartChar: equal
Encoding: 61 61 32
Width: 576
GlyphClass: 2
Flags: W
LayerCount: 2
Fore
SplineSet
65 208 m 1,0,1
 234 199 234 199 354 199 c 128,-1,2
 474 199 474 199 513 202 c 1,3,-1
 519 196 l 1,4,-1
 510 135 l 1,5,-1
 64 135 l 1,6,-1
 56 142 l 1,7,-1
 65 208 l 1,0,1
65 367 m 1,8,9
 234 358 234 358 354 358 c 128,-1,10
 474 358 474 358 513 361 c 1,11,-1
 519 355 l 1,12,-1
 510 294 l 1,13,-1
 64 294 l 1,14,-1
 56 301 l 1,15,-1
 65 367 l 1,8,9
EndSplineSet
EndChar

StartChar: greater
Encoding: 62 62 33
Width: 576
GlyphClass: 2
Flags: W
LayerCount: 2
Fore
SplineSet
521 222 m 1,0,1
 312 160 312 160 81 45 c 1,2,-1
 55 112 l 1,3,-1
 60 122 l 1,4,-1
 409 250 l 1,5,-1
 409 254 l 1,6,-1
 60 383 l 1,7,-1
 55 393 l 1,8,-1
 79 459 l 1,9,10
 195 400 195 400 323 351.5 c 128,-1,11
 451 303 451 303 507 286 c 1,12,-1
 521 222 l 1,0,1
EndSplineSet
EndChar

StartChar: question
Encoding: 63 63 34
Width: 351
GlyphClass: 2
Flags: W
LayerCount: 2
Fore
SplineSet
261 85 m 1,0,1
 250 63 250 63 220 32 c 128,-1,2
 190 1 190 1 167 -15 c 1,3,4
 144 0 144 0 114 31.5 c 128,-1,5
 84 63 84 63 72 85 c 1,6,7
 85 106 85 106 112.5 130 c 128,-1,8
 140 154 140 154 167 166 c 1,9,10
 191 153 191 153 219 129.5 c 128,-1,11
 247 106 247 106 261 85 c 1,0,1
205 575 m 0,12,13
 205 637 205 637 147 637 c 0,14,15
 126 637 126 637 105 629 c 1,16,17
 97 607 97 607 97 579.5 c 128,-1,18
 97 552 97 552 108 542 c 1,19,-1
 107 535 l 1,20,21
 54 516 54 516 19 485 c 1,22,23
 -7 487 -7 487 -7 514 c 0,24,25
 -7 575 -7 575 55.5 635.5 c 128,-1,26
 118 696 118 696 185 711 c 1,27,28
 271 711 271 711 326 670 c 128,-1,29
 381 629 381 629 381 552 c 1,30,31
 326 478 326 478 210 392 c 1,32,33
 192 282 192 282 188 249 c 1,34,-1
 140 244 l 1,35,-1
 118 374 l 1,36,-1
 118 393 l 1,37,38
 205 465 205 465 205 575 c 0,12,13
EndSplineSet
EndChar

StartChar: at
Encoding: 64 64 35
Width: 878
GlyphClass: 2
Flags: W
LayerCount: 2
Fore
SplineSet
209 192 m 0,0,1
 209 292 209 292 279 377 c 128,-1,2
 349 462 349 462 451 505 c 1,3,4
 536 505 536 505 623 476 c 1,5,6
 644 500 644 500 653 529 c 1,7,-1
 677 522 l 1,8,9
 656 433 656 433 656 202 c 0,10,11
 656 106 656 106 663 49 c 1,12,13
 717 94 717 94 745.5 173.5 c 128,-1,14
 774 253 774 253 774 336 c 0,15,16
 774 634 774 634 469 634 c 0,17,18
 362 634 362 634 290 585 c 1,19,20
 215 505 215 505 171.5 396 c 128,-1,21
 128 287 128 287 128 178 c 0,22,23
 128 26 128 26 201 -57 c 128,-1,24
 274 -140 274 -140 420 -140 c 0,25,26
 482 -140 482 -140 539 -118 c 1,27,-1
 546 -131 l 1,28,29
 486 -173 486 -173 412 -190 c 1,30,31
 232 -190 232 -190 137 -102.5 c 128,-1,32
 42 -15 42 -15 42 161 c 0,33,34
 42 363 42 363 165 509.5 c 128,-1,35
 288 656 288 656 485 684 c 1,36,37
 656 684 656 684 757 606 c 128,-1,38
 858 528 858 528 858 378.5 c 128,-1,39
 858 229 858 229 775 115.5 c 128,-1,40
 692 2 692 2 563 -15 c 1,41,42
 511 4 511 4 511 159 c 1,43,-1
 501 160 l 1,44,45
 464 61 464 61 378 -15 c 1,46,47
 303 -15 303 -15 256 47.5 c 128,-1,48
 209 110 209 110 209 192 c 0,0,1
368 238 m 0,49,50
 368 101 368 101 411 101 c 0,51,52
 428 101 428 101 453.5 133 c 128,-1,53
 479 165 479 165 502 227 c 1,54,55
 502 354 502 354 498 397 c 1,56,57
 472 429 472 429 429 429 c 0,58,59
 406 429 406 429 388 424 c 1,60,61
 368 345 368 345 368 238 c 0,49,50
EndSplineSet
EndChar

StartChar: A
Encoding: 65 65 36
Width: 644
GlyphClass: 2
Flags: W
LayerCount: 2
Fore
SplineSet
130 662 m 1,0,1
 217 651 217 651 352.5 651 c 128,-1,2
 488 651 488 651 593 662 c 1,3,-1
 597 636 l 1,4,5
 576 626 576 626 547 619 c 1,6,7
 534 536 534 536 534 332.5 c 128,-1,8
 534 129 534 129 548 34 c 1,9,10
 587 27 587 27 608 17 c 1,11,-1
 605 -9 l 1,12,13
 533 0 533 0 448.5 0 c 128,-1,14
 364 0 364 0 304 -9 c 1,15,-1
 300 18 l 1,16,17
 322 30 322 30 356 37 c 1,18,19
 364 101 364 101 368 230 c 1,20,21
 341 234 341 234 293.5 234 c 128,-1,22
 246 234 246 234 213 229 c 1,23,24
 198 132 198 132 198 96 c 128,-1,25
 198 60 198 60 206.5 39.5 c 128,-1,26
 215 19 215 19 240 9 c 1,27,-1
 237 -7 l 1,28,29
 183 0 183 0 108.5 0 c 128,-1,30
 34 0 34 0 -20 -9 c 1,31,-1
 -24 18 l 1,32,33
 -4 29 -4 29 32 37 c 1,34,-1
 184 614 l 1,35,36
 154 622 154 622 125 636 c 1,37,-1
 130 662 l 1,0,1
369 326 m 2,38,39
 369 500 369 500 358 593 c 1,40,41
 346 598 346 598 319 598 c 128,-1,42
 292 598 292 598 274 593 c 1,43,-1
 223 301 l 1,44,45
 259 297 259 297 300.5 297 c 128,-1,46
 342 297 342 297 369 301 c 1,47,-1
 369 326 l 2,38,39
EndSplineSet
EndChar

StartChar: B
Encoding: 66 66 37
Width: 618
GlyphClass: 2
Flags: W
LayerCount: 2
Fore
SplineSet
21 649 m 1,0,-1
 331 658 l 1,1,2
 455 658 455 658 493 642 c 0,3,4
 546 620 546 620 558 588 c 1,5,6
 567 567 567 567 567 539 c 0,7,8
 567 487 567 487 531 442 c 128,-1,9
 495 397 495 397 442 374 c 1,10,-1
 442 366 l 1,11,12
 512 366 512 366 552 334 c 128,-1,13
 592 302 592 302 592 237 c 0,14,15
 592 155 592 155 494 78 c 128,-1,16
 396 1 396 1 300 -15 c 1,17,18
 219 -15 219 -15 114 25 c 1,19,20
 100 8 100 8 89 -23 c 1,21,-1
 64 -17 l 1,22,23
 92 110 92 110 92 314 c 128,-1,24
 92 518 92 518 79 606 c 1,25,26
 53 619 53 619 21 622 c 1,27,-1
 21 649 l 1,0,-1
313 384 m 2,28,29
 352 384 352 384 370 397 c 1,30,31
 392 438 392 438 392 509 c 0,32,33
 392 609 392 609 307 609 c 0,34,35
 281 609 281 609 266 604 c 1,36,37
 257 513 257 513 257 361 c 128,-1,38
 257 209 257 209 264 92 c 1,39,40
 295 69 295 69 338.5 69 c 128,-1,41
 382 69 382 69 400 82 c 1,42,43
 415 129 415 129 415 199.5 c 128,-1,44
 415 270 415 270 390 306 c 128,-1,45
 365 342 365 342 294 342 c 1,46,-1
 299 384 l 1,47,-1
 313 384 l 2,28,29
EndSplineSet
EndChar

StartChar: C
Encoding: 67 67 38
Width: 516
GlyphClass: 2
Flags: W
LayerCount: 2
Fore
SplineSet
287 92 m 128,-1,1
 310 83 310 83 347 83 c 128,-1,2
 384 83 384 83 418 98 c 128,-1,3
 452 113 452 113 493 144 c 1,4,-1
 509 129 l 1,5,6
 426 23 426 23 311 -15 c 1,7,8
 174 -15 174 -15 102 57 c 128,-1,9
 30 129 30 129 30 267.5 c 128,-1,10
 30 406 30 406 114 512 c 128,-1,11
 198 618 198 618 339 666 c 1,12,13
 443 666 443 666 548 647 c 1,14,-1
 547 623 l 1,15,16
 520 623 520 623 498 614 c 1,17,18
 469 535 469 535 469 456 c 1,19,-1
 442 456 l 1,20,21
 432 494 432 494 430 540 c 1,22,23
 385 582 385 582 314 582 c 0,24,25
 267 582 267 582 245 565 c 1,26,27
 228 526 228 526 218.5 458 c 128,-1,28
 209 390 209 390 209 344 c 128,-1,29
 209 298 209 298 210 274 c 128,-1,30
 211 250 211 250 214.5 215.5 c 128,-1,31
 218 181 218 181 227 161 c 128,-1,32
 236 141 236 141 250 121 c 128,-1,0
 264 101 264 101 287 92 c 128,-1,1
EndSplineSet
EndChar

StartChar: D
Encoding: 68 68 39
Width: 661
GlyphClass: 2
Flags: W
LayerCount: 2
Fore
SplineSet
21 649 m 1,0,-1
 341 658 l 1,1,2
 486 658 486 658 558.5 592 c 128,-1,3
 631 526 631 526 631 381.5 c 128,-1,4
 631 237 631 237 541 124.5 c 128,-1,5
 451 12 451 12 307 -15 c 1,6,7
 228 -15 228 -15 114 25 c 1,8,9
 100 8 100 8 89 -23 c 1,10,-1
 64 -17 l 1,11,12
 92 116 92 116 92 317 c 128,-1,13
 92 518 92 518 79 606 c 1,14,15
 53 619 53 619 21 622 c 1,16,-1
 21 649 l 1,0,-1
302 609 m 0,17,18
 281 609 281 609 266 604 c 1,19,20
 257 503 257 503 257 358 c 128,-1,21
 257 213 257 213 264 96 c 1,22,23
 302 69 302 69 345 69 c 128,-1,24
 388 69 388 69 415 86 c 1,25,26
 452 176 452 176 452 320 c 0,27,28
 452 609 452 609 302 609 c 0,17,18
EndSplineSet
EndChar

StartChar: E
Encoding: 69 69 40
Width: 526
GlyphClass: 2
Flags: W
LayerCount: 2
Fore
SplineSet
342 83 m 0,0,1
 384 83 384 83 418 98 c 128,-1,2
 452 113 452 113 493 144 c 1,3,-1
 509 129 l 1,4,5
 426 23 426 23 311 -15 c 1,6,7
 174 -15 174 -15 102 57 c 128,-1,8
 30 129 30 129 30 267.5 c 128,-1,9
 30 406 30 406 114 512 c 128,-1,10
 198 618 198 618 339 666 c 1,11,12
 443 666 443 666 548 647 c 1,13,-1
 547 623 l 1,14,15
 520 623 520 623 498 614 c 1,16,17
 469 535 469 535 469 456 c 1,18,-1
 442 456 l 1,19,20
 432 494 432 494 430 540 c 1,21,22
 385 582 385 582 314 582 c 0,23,24
 267 582 267 582 245 565 c 1,25,26
 218 503 218 503 211 385 c 1,27,28
 248 375 248 375 313 375 c 128,-1,29
 378 375 378 375 412 410 c 1,30,-1
 434 405 l 1,31,32
 421 366 421 366 421 325 c 128,-1,33
 421 284 421 284 431 236 c 1,34,-1
 406 232 l 1,35,36
 392 268 392 268 385 306 c 1,37,38
 354 311 354 311 301 311 c 128,-1,39
 248 311 248 311 209 306 c 1,40,41
 209 209 209 209 231 151 c 0,42,43
 257 83 257 83 342 83 c 0,0,1
EndSplineSet
EndChar

StartChar: F
Encoding: 70 70 41
Width: 499
GlyphClass: 2
Flags: W
LayerCount: 2
Fore
SplineSet
43 661 m 1,0,1
 122 651 122 651 268.5 651 c 128,-1,2
 415 651 415 651 509 664 c 1,3,-1
 515 643 l 1,4,5
 476 591 476 591 473 480 c 1,6,-1
 446 480 l 1,7,8
 437 526 437 526 437 567 c 1,9,10
 404 584 404 584 353 584 c 128,-1,11
 302 584 302 584 283 577 c 1,12,13
 275 477 275 477 275 362 c 1,14,15
 294 358 294 358 317 358 c 0,16,17
 393 358 393 358 427 393 c 1,18,-1
 449 388 l 1,19,20
 436 349 436 349 436 308 c 128,-1,21
 436 267 436 267 446 219 c 1,22,-1
 421 215 l 1,23,24
 407 251 407 251 400 289 c 1,25,26
 369 294 369 294 330 294 c 128,-1,27
 291 294 291 294 275 292 c 1,28,29
 276 112 276 112 289 34 c 1,30,31
 328 27 328 27 349 17 c 1,32,-1
 346 -9 l 1,33,34
 274 0 274 0 189.5 0 c 128,-1,35
 105 0 105 0 45 -9 c 1,36,-1
 41 18 l 1,37,38
 63 30 63 30 97 37 c 1,39,40
 110 135 110 135 110 319 c 128,-1,41
 110 503 110 503 95 614 c 1,42,43
 64 621 64 621 39 634 c 1,44,-1
 43 661 l 1,0,1
EndSplineSet
EndChar

StartChar: G
Encoding: 71 71 42
Width: 557
GlyphClass: 2
Flags: W
LayerCount: 2
Fore
SplineSet
258 92 m 128,-1,1
 281 83 281 83 307.5 83 c 128,-1,2
 334 83 334 83 352 86 c 1,3,-1
 347 194 l 1,4,5
 343 240 343 240 338 261 c 1,6,7
 316 273 316 273 277 280 c 1,8,-1
 280 302 l 1,9,10
 302 299 302 299 337 299 c 128,-1,11
 372 299 372 299 426 312 c 128,-1,12
 480 325 480 325 517 350 c 1,13,-1
 532 333 l 1,14,15
 509 314 509 314 498 294 c 1,16,17
 484 152 484 152 476 -4 c 1,18,-1
 454 -4 l 1,19,20
 443 42 443 42 428 73 c 1,21,22
 359 11 359 11 282 -15 c 1,23,24
 145 -15 145 -15 73 57 c 128,-1,25
 1 129 1 129 1 267.5 c 128,-1,26
 1 406 1 406 85 512 c 128,-1,27
 169 618 169 618 310 666 c 1,28,29
 420 666 420 666 533 642 c 1,30,-1
 532 618 l 1,31,32
 506 618 506 618 483 609 c 1,33,34
 454 530 454 530 454 451 c 1,35,-1
 427 451 l 1,36,37
 417 489 417 489 415 535 c 1,38,39
 391 556 391 556 354.5 569 c 128,-1,40
 318 582 318 582 278 582 c 128,-1,41
 238 582 238 582 216 565 c 1,42,43
 199 526 199 526 189.5 458 c 128,-1,44
 180 390 180 390 180 344 c 128,-1,45
 180 298 180 298 181 274 c 128,-1,46
 182 250 182 250 185.5 215.5 c 128,-1,47
 189 181 189 181 198 161 c 128,-1,48
 207 141 207 141 221 121 c 128,-1,0
 235 101 235 101 258 92 c 128,-1,1
EndSplineSet
EndChar

StartChar: H
Encoding: 72 72 43
Width: 744
GlyphClass: 2
Flags: W
LayerCount: 2
Fore
SplineSet
416 660 m 1,0,1
 475 651 475 651 563.5 651 c 128,-1,2
 652 651 652 651 716 660 c 1,3,-1
 719 634 l 1,4,5
 693 624 693 624 649 617 c 1,6,7
 634 532 634 532 634 325.5 c 128,-1,8
 634 119 634 119 649 34 c 1,9,10
 693 27 693 27 719 17 c 1,11,-1
 716 -9 l 1,12,13
 652 0 652 0 563.5 0 c 128,-1,14
 475 0 475 0 416 -9 c 1,15,-1
 412 18 l 1,16,17
 431 30 431 30 458 37 c 1,18,19
 468 139 468 139 469 315 c 1,20,21
 425 322 425 322 372 322 c 128,-1,22
 319 322 319 322 275 315 c 1,23,24
 276 113 276 113 288 34 c 1,25,26
 327 27 327 27 348 17 c 1,27,-1
 345 -9 l 1,28,29
 273 0 273 0 189 0 c 128,-1,30
 105 0 105 0 45 -9 c 1,31,-1
 41 18 l 1,32,33
 63 30 63 30 97 37 c 1,34,35
 110 135 110 135 110 319 c 128,-1,36
 110 503 110 503 95 614 c 1,37,38
 61 621 61 621 39 633 c 1,39,-1
 43 660 l 1,40,41
 103 651 103 651 187 651 c 128,-1,42
 271 651 271 651 343 660 c 1,43,-1
 346 634 l 1,44,45
 325 624 325 624 286 617 c 1,46,47
 277 557 277 557 275 394 c 1,48,49
 315 385 315 385 374.5 385 c 128,-1,50
 434 385 434 385 469 393 c 1,51,52
 468 513 468 513 458 614 c 1,53,54
 431 621 431 621 412 633 c 1,55,-1
 416 660 l 1,0,1
EndSplineSet
EndChar

StartChar: I
Encoding: 73 73 44
Width: 385
GlyphClass: 2
Flags: W
LayerCount: 2
Fore
SplineSet
287 617 m 1,0,1
 275 540 275 540 275 334.5 c 128,-1,2
 275 129 275 129 289 34 c 1,3,4
 328 27 328 27 349 17 c 1,5,-1
 346 -9 l 1,6,7
 274 0 274 0 189.5 0 c 128,-1,8
 105 0 105 0 45 -9 c 1,9,-1
 41 18 l 1,10,11
 63 30 63 30 97 37 c 1,12,13
 110 135 110 135 110 319 c 128,-1,14
 110 503 110 503 95 614 c 1,15,16
 61 621 61 621 39 633 c 1,17,-1
 43 660 l 1,18,19
 103 651 103 651 187.5 651 c 128,-1,20
 272 651 272 651 344 660 c 1,21,-1
 347 634 l 1,22,23
 326 624 326 624 287 617 c 1,0,1
EndSplineSet
EndChar

StartChar: J
Encoding: 74 74 45
Width: 377
GlyphClass: 2
Flags: W
LayerCount: 2
Fore
SplineSet
110 164 m 2,0,-1
 110 354 l 2,1,2
 110 540 110 540 98 617 c 1,3,4
 59 624 59 624 38 634 c 1,5,-1
 41 660 l 1,6,7
 113 651 113 651 197.5 651 c 128,-1,8
 282 651 282 651 342 660 c 1,9,-1
 346 633 l 1,10,11
 324 621 324 621 290 614 c 1,12,13
 275 503 275 503 275 318.5 c 128,-1,14
 275 134 275 134 288 37 c 1,15,16
 187 -92 187 -92 -12 -182 c 1,17,-1
 -29 -161 l 1,18,19
 51 -100 51 -100 80.5 -24.5 c 128,-1,20
 110 51 110 51 110 164 c 2,0,-1
EndSplineSet
EndChar

StartChar: K
Encoding: 75 75 46
Width: 670
GlyphClass: 2
Flags: W
LayerCount: 2
Fore
SplineSet
694 -9 m 1,0,1
 644 0 644 0 559 0 c 128,-1,2
 474 0 474 0 417 -5 c 1,3,-1
 414 13 l 1,4,5
 432 31 432 31 432 70 c 128,-1,6
 432 109 432 109 415 159.5 c 128,-1,7
 398 210 398 210 345 334 c 1,8,-1
 275 262 l 1,9,10
 278 114 278 114 289 34 c 1,11,12
 328 27 328 27 349 17 c 1,13,-1
 346 -9 l 1,14,15
 274 0 274 0 189.5 0 c 128,-1,16
 105 0 105 0 45 -9 c 1,17,-1
 41 18 l 1,18,19
 63 30 63 30 97 37 c 1,20,21
 110 135 110 135 110 319 c 128,-1,22
 110 503 110 503 95 614 c 1,23,24
 61 621 61 621 39 633 c 1,25,-1
 43 660 l 1,26,27
 103 651 103 651 185 651 c 128,-1,28
 267 651 267 651 330 660 c 1,29,-1
 333 634 l 1,30,31
 323 628 323 628 287 617 c 1,32,33
 275 540 275 540 275 329 c 1,34,35
 341 416 341 416 375 473 c 128,-1,36
 409 530 409 530 415 551.5 c 128,-1,37
 421 573 421 573 421 599 c 128,-1,38
 421 625 421 625 399 642 c 1,39,-1
 402 658 l 1,40,41
 456 651 456 651 542.5 651 c 128,-1,42
 629 651 629 651 672 660 c 1,43,-1
 676 633 l 1,44,45
 656 622 656 622 620 614 c 1,46,-1
 437 427 l 1,47,-1
 642 37 l 1,48,49
 678 29 678 29 698 18 c 1,50,-1
 694 -9 l 1,0,1
EndSplineSet
EndChar

StartChar: L
Encoding: 76 76 47
Width: 480
GlyphClass: 2
Flags: W
LayerCount: 2
Fore
SplineSet
498 -13 m 1,0,1
 404 0 404 0 263 0 c 128,-1,2
 122 0 122 0 43 -10 c 1,3,-1
 39 17 l 1,4,5
 64 30 64 30 95 37 c 1,6,7
 110 150 110 150 110 326.5 c 128,-1,8
 110 503 110 503 95 614 c 1,9,10
 61 621 61 621 39 633 c 1,11,-1
 43 660 l 1,12,13
 103 651 103 651 187.5 651 c 128,-1,14
 272 651 272 651 344 660 c 1,15,-1
 347 634 l 1,16,17
 326 624 326 624 287 617 c 1,18,19
 275 540 275 540 275 345 c 128,-1,20
 275 150 275 150 283 70 c 1,21,22
 302 63 302 63 347 63 c 128,-1,23
 392 63 392 63 419 77 c 1,24,25
 429 110 429 110 434 167 c 1,26,-1
 463 167 l 1,27,28
 463 55 463 55 504 8 c 1,29,-1
 498 -13 l 1,0,1
EndSplineSet
EndChar

StartChar: M
Encoding: 77 77 48
Width: 847
GlyphClass: 2
Flags: W
LayerCount: 2
Fore
SplineSet
301 70 m 0,0,1
 301 144 301 144 268 264 c 128,-1,2
 235 384 235 384 197 478 c 1,3,-1
 189 477 l 1,4,-1
 177 347 l 2,5,6
 167 236 167 236 167 109 c 0,7,8
 167 33 167 33 209 11 c 1,9,-1
 206 -5 l 1,10,11
 159 0 159 0 106 0 c 128,-1,12
 53 0 53 0 0 -8 c 1,13,-1
 -4 19 l 1,14,15
 15 29 15 29 52 37 c 1,16,-1
 147 614 l 1,17,18
 113 621 113 621 91 633 c 1,19,-1
 95 660 l 1,20,21
 154 651 154 651 238 651 c 128,-1,22
 322 651 322 651 380 658 c 1,23,-1
 383 641 l 1,24,25
 349 632 349 632 349 607 c 0,26,27
 349 588 349 588 374.5 476 c 128,-1,28
 400 364 400 364 418 283 c 2,29,-1
 424 255 l 1,30,-1
 434 258 l 1,31,32
 437 314 437 314 520 607 c 1,33,34
 520 632 520 632 494 640 c 1,35,-1
 497 657 l 1,36,37
 548 651 548 651 635 651 c 128,-1,38
 722 651 722 651 774 659 c 1,39,-1
 779 634 l 1,40,41
 759 623 759 623 732 616 c 1,42,43
 726 588 726 588 726 524.5 c 128,-1,44
 726 461 726 461 743 287.5 c 128,-1,45
 760 114 760 114 776 34 c 1,46,47
 820 27 820 27 846 17 c 1,48,-1
 843 -9 l 1,49,50
 779 0 779 0 694 0 c 128,-1,51
 609 0 609 0 550 -9 c 1,52,-1
 546 18 l 1,53,54
 565 30 565 30 592 37 c 1,55,56
 590 268 590 268 559 477 c 1,57,-1
 552 478 l 1,58,59
 493 295 493 295 478 226 c 128,-1,60
 463 157 463 157 463 105 c 1,61,62
 377 75 377 75 313 30 c 1,63,-1
 300 37 l 1,64,65
 301 48 301 48 301 70 c 0,0,1
EndSplineSet
EndChar

StartChar: N
Encoding: 78 78 49
Width: 705
GlyphClass: 2
Flags: W
LayerCount: 2
Fore
SplineSet
43 660 m 1,0,1
 100 651 100 651 192 651 c 128,-1,2
 284 651 284 651 335 658 c 1,3,-1
 338 640 l 1,4,5
 328 637 328 637 321 628 c 128,-1,6
 314 619 314 619 314 603.5 c 128,-1,7
 314 588 314 588 320 568 c 128,-1,8
 326 548 326 548 372 463 c 128,-1,9
 418 378 418 378 510 227 c 1,10,-1
 514 229 l 1,11,-1
 514 323 l 2,12,13
 514 495 514 495 497.5 559.5 c 128,-1,14
 481 624 481 624 421 639 c 1,15,-1
 424 660 l 1,16,17
 483 651 483 651 550 651 c 128,-1,18
 617 651 617 651 677 660 c 1,19,-1
 680 634 l 1,20,21
 654 624 654 624 610 617 c 1,22,23
 605 592 605 592 600 502.5 c 128,-1,24
 595 413 595 413 595 266 c 128,-1,25
 595 119 595 119 610 34 c 1,26,27
 648 28 648 28 680 17 c 1,28,-1
 677 -9 l 1,29,30
 616 0 616 0 551 0 c 128,-1,31
 486 0 486 0 433 -6 c 1,32,33
 433 37 433 37 391 121 c 128,-1,34
 349 205 349 205 195 461 c 1,35,-1
 191 459 l 1,36,-1
 191 382 l 2,37,38
 191 227 191 227 202 146.5 c 128,-1,39
 213 66 213 66 250 34 c 1,40,41
 289 27 289 27 310 17 c 1,42,-1
 307 -9 l 1,43,44
 224 0 224 0 164.5 0 c 128,-1,45
 105 0 105 0 45 -9 c 1,46,-1
 41 18 l 1,47,48
 63 30 63 30 97 37 c 1,49,50
 110 135 110 135 110 264 c 0,51,52
 110 494 110 494 95 614 c 1,53,54
 61 621 61 621 39 633 c 1,55,-1
 43 660 l 1,0,1
EndSplineSet
EndChar

StartChar: O
Encoding: 79 79 50
Width: 648
GlyphClass: 2
Flags: W
LayerCount: 2
Fore
SplineSet
108 62 m 128,-1,1
 30 139 30 139 30 273 c 128,-1,2
 30 407 30 407 113.5 512.5 c 128,-1,3
 197 618 197 618 338 666 c 1,4,5
 476 666 476 666 547 595.5 c 128,-1,6
 618 525 618 525 618 384.5 c 128,-1,7
 618 244 618 244 540 138.5 c 128,-1,8
 462 33 462 33 324 -15 c 1,9,0
 186 -15 186 -15 108 62 c 128,-1,1
356 571 m 0,10,11
 333 582 333 582 301 582 c 128,-1,12
 269 582 269 582 246 566 c 1,13,14
 209 480 209 480 209 339 c 0,15,16
 209 239 209 239 234 162 c 0,17,18
 248 119 248 119 276.5 94 c 128,-1,19
 305 69 305 69 341 69 c 128,-1,20
 377 69 377 69 402 86 c 1,21,22
 439 171 439 171 439 310 c 0,23,24
 439 442 439 442 418 494 c 0,25,26
 395 553 395 553 356 571 c 0,10,11
EndSplineSet
EndChar

StartChar: P
Encoding: 80 80 51
Width: 584
GlyphClass: 2
Flags: W
LayerCount: 2
Fore
SplineSet
39 649 m 1,0,-1
 349 658 l 2,1,2
 352 658 352 658 355 658 c 0,3,4
 467 658 467 658 529 623.5 c 128,-1,5
 591 589 591 589 591 495 c 128,-1,6
 591 401 591 401 515 341 c 128,-1,7
 439 281 439 281 339 281 c 0,8,9
 321 281 321 281 313 282 c 1,10,-1
 317 328 l 1,11,-1
 329 328 l 2,12,13
 411 328 411 328 411 479 c 0,14,15
 411 540 411 540 391.5 574.5 c 128,-1,16
 372 609 372 609 322 609 c 0,17,18
 303 609 303 609 285 604 c 1,19,20
 275 516 275 516 275 322.5 c 128,-1,21
 275 129 275 129 289 34 c 1,22,23
 328 27 328 27 349 17 c 1,24,-1
 346 -9 l 1,25,26
 274 0 274 0 189.5 0 c 128,-1,27
 105 0 105 0 45 -9 c 1,28,-1
 41 18 l 1,29,30
 63 30 63 30 97 37 c 1,31,32
 110 135 110 135 110 309 c 128,-1,33
 110 483 110 483 96 606 c 1,34,35
 70 619 70 619 39 622 c 1,36,-1
 39 649 l 1,0,-1
EndSplineSet
EndChar

StartChar: Q
Encoding: 81 81 52
Width: 648
GlyphClass: 2
Flags: W
LayerCount: 2
Fore
SplineSet
403 -130 m 128,-1,1
 329 -97 329 -97 265.5 -97 c 128,-1,2
 202 -97 202 -97 159 -133 c 1,3,-1
 141 -117 l 1,4,5
 165 -86 165 -86 206 -57.5 c 128,-1,6
 247 -29 247 -29 287 -13 c 1,7,8
 169 -2 169 -2 103 73 c 128,-1,9
 37 148 37 148 37 265 c 0,10,11
 37 407 37 407 119 512.5 c 128,-1,12
 201 618 201 618 339 666 c 1,13,14
 474 666 474 666 543.5 595.5 c 128,-1,15
 613 525 613 525 613 391 c 128,-1,16
 613 257 613 257 550 158 c 128,-1,17
 487 59 487 59 374 5 c 1,18,19
 415 0 415 0 503 -34 c 128,-1,20
 591 -68 591 -68 631 -72 c 1,21,22
 656 -64 656 -64 675 -50 c 1,23,-1
 692 -71 l 1,24,25
 648 -105 648 -105 619.5 -139 c 128,-1,26
 591 -173 591 -173 559 -228 c 1,27,-1
 535 -208 l 1,28,0
 477 -163 477 -163 403 -130 c 128,-1,1
365.5 565 m 128,-1,30
 340 582 340 582 305.5 582 c 128,-1,31
 271 582 271 582 248 566 c 1,32,33
 212 479 212 479 212 339 c 0,34,35
 212 240 212 240 236 162 c 0,36,37
 250 119 250 119 278 94 c 128,-1,38
 306 69 306 69 342 69 c 128,-1,39
 378 69 378 69 401 86 c 1,40,41
 438 171 438 171 438 310 c 0,42,43
 438 466 438 466 405 524 c 0,44,29
 391 548 391 548 365.5 565 c 128,-1,30
EndSplineSet
EndChar

StartChar: R
Encoding: 82 82 53
Width: 655
GlyphClass: 2
Flags: W
LayerCount: 2
Fore
SplineSet
39 649 m 1,0,-1
 349 658 l 1,1,2
 459 658 459 658 521 628 c 0,3,4
 592 594 592 594 592 494 c 0,5,6
 592 441 592 441 561.5 398.5 c 128,-1,7
 531 356 531 356 479 329 c 1,8,-1
 623 37 l 1,9,10
 659 29 659 29 679 18 c 1,11,-1
 675 -9 l 1,12,13
 626 0 626 0 545.5 0 c 128,-1,14
 465 0 465 0 408 -5 c 1,15,-1
 405 13 l 1,16,17
 423 31 423 31 423 77 c 0,18,19
 423 145 423 145 363 304 c 1,20,21
 339 308 339 308 313 308 c 1,22,-1
 317 349 l 1,23,-1
 328 349 l 2,24,25
 371 349 371 349 390.5 386.5 c 128,-1,26
 410 424 410 424 410 479 c 0,27,28
 410 609 410 609 322 609 c 0,29,30
 303 609 303 609 285 604 c 1,31,32
 275 516 275 516 275 322.5 c 128,-1,33
 275 129 275 129 289 34 c 1,34,35
 328 27 328 27 349 17 c 1,36,-1
 346 -9 l 1,37,38
 274 0 274 0 189.5 0 c 128,-1,39
 105 0 105 0 45 -9 c 1,40,-1
 41 18 l 1,41,42
 63 30 63 30 97 37 c 1,43,44
 110 135 110 135 110 309 c 128,-1,45
 110 483 110 483 96 606 c 1,46,47
 70 619 70 619 39 622 c 1,48,-1
 39 649 l 1,0,-1
EndSplineSet
EndChar

StartChar: S
Encoding: 83 83 54
Width: 465
GlyphClass: 2
Flags: W
LayerCount: 2
Fore
SplineSet
230 76 m 0,0,1
 314 76 314 76 314 148 c 0,2,3
 314 172 314 172 272.5 206 c 128,-1,4
 231 240 231 240 181 269.5 c 128,-1,5
 131 299 131 299 89.5 336 c 128,-1,6
 48 373 48 373 48 402 c 0,7,8
 48 487 48 487 119.5 561.5 c 128,-1,9
 191 636 191 636 284 666 c 1,10,11
 378 666 378 666 457 644 c 1,12,-1
 457 624 l 1,13,14
 431 600 431 600 416.5 553.5 c 128,-1,15
 402 507 402 507 399 460 c 1,16,-1
 372 460 l 1,17,18
 372 510 372 510 366 542 c 1,19,20
 321 581 321 581 258 581 c 0,21,22
 224 581 224 581 199.5 565 c 128,-1,23
 175 549 175 549 175 522 c 128,-1,24
 175 495 175 495 218 461.5 c 128,-1,25
 261 428 261 428 312.5 399 c 128,-1,26
 364 370 364 370 407 333.5 c 128,-1,27
 450 297 450 297 450 268 c 0,28,29
 450 193 450 193 372 103.5 c 128,-1,30
 294 14 294 14 215 -15 c 1,31,32
 134 -15 134 -15 56 8 c 1,33,34
 38 -1 38 -1 14 -29 c 1,35,-1
 -6 -10 l 1,36,37
 56 55 56 55 65 200 c 1,38,-1
 93 200 l 1,39,-1
 98 131 l 1,40,41
 158 76 158 76 230 76 c 0,0,1
EndSplineSet
EndChar

StartChar: T
Encoding: 84 84 55
Width: 554
GlyphClass: 2
Flags: W
LayerCount: 2
Fore
SplineSet
-17 666 m 1,0,1
 100 651 100 651 286 651 c 128,-1,2
 472 651 472 651 571 665 c 1,3,-1
 577 644 l 1,4,5
 538 592 538 592 535 484 c 1,6,-1
 508 484 l 1,7,8
 499 530 499 530 499 571 c 1,9,10
 466 588 466 588 429.5 588 c 128,-1,11
 393 588 393 588 373 584 c 1,12,13
 365 476 365 476 365 302.5 c 128,-1,14
 365 129 365 129 379 34 c 1,15,16
 418 27 418 27 439 17 c 1,17,-1
 436 -9 l 1,18,19
 364 0 364 0 279.5 0 c 128,-1,20
 195 0 195 0 135 -9 c 1,21,-1
 131 18 l 1,22,23
 153 30 153 30 187 37 c 1,24,25
 200 135 200 135 200 295.5 c 128,-1,26
 200 456 200 456 189 581 c 1,27,28
 170 588 170 588 131 588 c 128,-1,29
 92 588 92 588 64 574 c 1,30,31
 53 535 53 535 50 484 c 1,32,-1
 21 484 l 1,33,34
 18 591 18 591 -23 645 c 1,35,-1
 -17 666 l 1,0,1
EndSplineSet
EndChar

StartChar: U
Encoding: 85 85 56
Width: 708
GlyphClass: 2
Flags: W
LayerCount: 2
Fore
SplineSet
610 617 m 1,0,1
 598 540 598 540 598 334.5 c 128,-1,2
 598 129 598 129 612 34 c 1,3,4
 651 27 651 27 672 17 c 1,5,-1
 669 -9 l 1,6,7
 597 0 597 0 537.5 0 c 128,-1,8
 478 0 478 0 418 -9 c 1,9,-1
 414 9 l 1,10,11
 423 23 423 23 427 66 c 1,12,13
 376 17 376 17 296 -15 c 1,14,15
 173 -15 173 -15 126 46 c 128,-1,16
 79 107 79 107 79 241 c 0,17,18
 79 298 79 298 86 422 c 128,-1,19
 93 546 93 546 93 570 c 128,-1,20
 93 594 93 594 86 615 c 1,21,22
 50 623 50 623 35 633 c 1,23,-1
 39 660 l 1,24,25
 110 651 110 651 183 651 c 128,-1,26
 256 651 256 651 301 658 c 1,27,-1
 305 641 l 1,28,29
 281 628 281 628 272 608 c 128,-1,30
 263 588 263 588 256 502.5 c 128,-1,31
 249 417 249 417 249 329.5 c 128,-1,32
 249 242 249 242 249.5 225 c 128,-1,33
 250 208 250 208 252.5 181 c 128,-1,34
 255 154 255 154 260.5 140 c 128,-1,35
 266 126 266 126 276 111 c 0,36,37
 295 83 295 83 340.5 83 c 128,-1,38
 386 83 386 83 430 117 c 1,39,40
 433 161 433 161 433 332 c 128,-1,41
 433 503 433 503 418 614 c 1,42,43
 384 621 384 621 362 633 c 1,44,-1
 366 660 l 1,45,46
 426 651 426 651 510.5 651 c 128,-1,47
 595 651 595 651 667 660 c 1,48,-1
 670 634 l 1,49,50
 649 624 649 624 610 617 c 1,0,1
EndSplineSet
EndChar

StartChar: V
Encoding: 86 86 57
Width: 604
GlyphClass: 2
Flags: W
LayerCount: 2
Fore
SplineSet
447 -9 m 1,0,1
 387 0 387 0 294.5 0 c 128,-1,2
 202 0 202 0 143 -5 c 1,3,-1
 140 11 l 1,4,5
 174 20 174 20 174 41 c 0,6,7
 174 111 174 111 66 529 c 0,8,9
 52 583 52 583 33 616 c 1,10,11
 1 623 1 623 -18 633 c 1,12,-1
 -14 660 l 1,13,14
 46 651 46 651 132.5 651 c 128,-1,15
 219 651 219 651 294 660 c 1,16,-1
 297 634 l 1,17,18
 269 623 269 623 237 616 c 1,19,20
 256 404 256 404 344 79 c 1,21,22
 422 379 422 379 422 518 c 0,23,24
 422 612 422 612 363 639 c 1,25,-1
 366 659 l 1,26,27
 435 651 435 651 497.5 651 c 128,-1,28
 560 651 560 651 620 660 c 1,29,-1
 624 633 l 1,30,31
 603 625 603 625 568 617 c 1,32,33
 586 581 586 581 586 516.5 c 128,-1,34
 586 452 586 452 543 346.5 c 128,-1,35
 500 241 500 241 384 32 c 1,36,37
 428 22 428 22 451 15 c 1,38,-1
 447 -9 l 1,0,1
EndSplineSet
EndChar

StartChar: W
Encoding: 87 87 58
Width: 919
GlyphClass: 2
Flags: W
LayerCount: 2
Fore
SplineSet
768 -9 m 1,0,1
 708 0 708 0 621 0 c 128,-1,2
 534 0 534 0 471 -8 c 1,3,-1
 468 8 l 1,4,5
 481 11 481 11 491.5 20 c 128,-1,6
 502 29 502 29 502 41 c 0,7,8
 502 102 502 102 465 267 c 1,9,10
 450 222 450 222 384 32 c 1,11,12
 402 20 402 20 431 15 c 1,13,-1
 427 -9 l 1,14,15
 367 0 367 0 284.5 0 c 128,-1,16
 202 0 202 0 143 -5 c 1,17,-1
 140 11 l 1,18,19
 174 20 174 20 174 41 c 0,20,21
 174 111 174 111 66 529 c 0,22,23
 52 583 52 583 33 616 c 1,24,25
 1 623 1 623 -18 633 c 1,26,-1
 -14 660 l 1,27,28
 72 650 72 650 287.5 650 c 128,-1,29
 503 650 503 650 615 660 c 1,30,-1
 618 634 l 1,31,32
 590 623 590 623 558 616 c 1,33,34
 577 404 577 404 665 79 c 1,35,36
 737 387 737 387 737 518 c 0,37,38
 737 612 737 612 678 639 c 1,39,-1
 681 659 l 1,40,41
 750 651 750 651 812.5 651 c 128,-1,42
 875 651 875 651 935 660 c 1,43,-1
 939 633 l 1,44,45
 918 625 918 625 883 617 c 1,46,47
 901 581 901 581 901 517 c 128,-1,48
 901 453 901 453 859.5 348.5 c 128,-1,49
 818 244 818 244 705 32 c 1,50,51
 749 22 749 22 772 15 c 1,52,-1
 768 -9 l 1,0,1
401.5 596 m 128,-1,54
 387 618 387 618 337.5 618 c 128,-1,55
 288 618 288 618 238 605 c 1,56,57
 256 404 256 404 344 79 c 1,58,59
 416 387 416 387 416 518 c 0,60,53
 416 574 416 574 401.5 596 c 128,-1,54
EndSplineSet
EndChar

StartChar: X
Encoding: 88 88 59
Width: 635
GlyphClass: 2
Flags: W
LayerCount: 2
Fore
SplineSet
362 427 m 1,0,1
 422 553 422 553 422 591.5 c 128,-1,2
 422 630 422 630 399 642 c 1,3,-1
 403 658 l 1,4,5
 459 651 459 651 524.5 651 c 128,-1,6
 590 651 590 651 650 660 c 1,7,-1
 654 633 l 1,8,9
 627 620 627 620 598 614 c 1,10,11
 500 515 500 515 397 378 c 1,12,-1
 603 35 l 1,13,14
 639 27 639 27 659 18 c 1,15,-1
 655 -9 l 1,16,17
 595 0 595 0 515.5 0 c 128,-1,18
 436 0 436 0 388 -6 c 1,19,-1
 384 9 l 1,20,21
 388 17 388 17 388 44 c 0,22,23
 388 106 388 106 283 276 c 1,24,25
 221 110 221 110 221 35 c 1,26,27
 246 30 246 30 276 17 c 1,28,-1
 273 -9 l 1,29,30
 213 0 213 0 132 0 c 128,-1,31
 51 0 51 0 -9 -9 c 1,32,-1
 -14 17 l 1,33,34
 8 28 8 28 48 37 c 1,35,36
 177 229 177 229 247 327 c 1,37,-1
 63 616 l 1,38,39
 29 623 29 623 11 633 c 1,40,-1
 15 660 l 1,41,42
 75 651 75 651 167 651 c 128,-1,43
 259 651 259 651 349 660 c 1,44,-1
 352 634 l 1,45,46
 327 624 327 624 292 616 c 1,47,48
 292 579 292 579 304.5 540.5 c 128,-1,49
 317 502 317 502 362 427 c 1,0,1
EndSplineSet
EndChar

StartChar: Y
Encoding: 89 89 60
Width: 566
GlyphClass: 2
Flags: W
LayerCount: 2
Fore
SplineSet
389 603 m 128,-1,1
 389 631 389 631 367 642 c 1,2,-1
 370 658 l 1,3,4
 435 651 435 651 490.5 651 c 128,-1,5
 546 651 546 651 596 660 c 1,6,-1
 600 634 l 1,7,8
 576 621 576 621 542 614 c 1,9,-1
 366 328 l 1,10,11
 366 130 366 130 379 34 c 1,12,13
 422 25 422 25 439 17 c 1,14,-1
 436 -9 l 1,15,16
 372 0 372 0 283.5 0 c 128,-1,17
 195 0 195 0 135 -9 c 1,18,-1
 131 18 l 1,19,20
 152 29 152 29 188 37 c 1,21,22
 200 127 200 127 200 275 c 2,23,-1
 200 301 l 1,24,25
 108 494 108 494 79.5 545 c 128,-1,26
 51 596 51 596 26 616 c 1,27,28
 -7 625 -7 625 -22 633 c 1,29,-1
 -18 660 l 1,30,31
 46 651 46 651 129 651 c 128,-1,32
 212 651 212 651 283 660 c 1,33,-1
 286 634 l 1,34,35
 269 626 269 626 226 617 c 1,36,37
 288 432 288 432 324 363 c 1,38,39
 366 488 366 488 377.5 531.5 c 128,-1,0
 389 575 389 575 389 603 c 128,-1,1
EndSplineSet
EndChar

StartChar: Z
Encoding: 90 90 61
Width: 513
GlyphClass: 2
Flags: W
LayerCount: 2
Fore
SplineSet
175 653.5 m 128,-1,1
 311 640 311 640 377.5 640 c 128,-1,2
 444 640 444 640 467.5 648 c 128,-1,3
 491 656 491 656 515 677 c 1,4,-1
 537 660 l 1,5,6
 508 633 508 633 468 549 c 2,7,-1
 243 87 l 1,8,-1
 248 83 l 1,9,-1
 317 83 l 2,10,11
 390 83 390 83 421 126 c 1,12,13
 426 148 426 148 426 197 c 1,14,-1
 454 198 l 1,15,16
 463 67 463 67 532 -5 c 1,17,-1
 511 -20 l 1,18,19
 503 -10 503 -10 491 -2 c 1,20,21
 349 21 349 21 153 21 c 0,22,23
 33 21 33 21 0 -18 c 1,24,-1
 -22 0 l 1,25,26
 2 23 2 23 54 118 c 1,27,-1
 315 572 l 1,28,-1
 310 577 l 1,29,-1
 215 577 l 2,30,31
 150 577 150 577 108 538 c 1,32,33
 97 500 97 500 82 469 c 1,34,-1
 58 473 l 1,35,36
 60 511 60 511 60 551 c 128,-1,37
 60 591 60 591 51 627 c 1,38,39
 35 636 35 636 4 644 c 1,40,-1
 7 667 l 1,41,0
 39 667 39 667 175 653.5 c 128,-1,1
EndSplineSet
EndChar

StartChar: bracketleft
Encoding: 91 91 62
Width: 326
GlyphClass: 2
Flags: W
LayerCount: 2
Fore
SplineSet
268 -196 m 0,0,1
 150 -196 150 -196 88 -211 c 1,2,-1
 81 -206 l 1,3,4
 91 -137 91 -137 91 248 c 128,-1,5
 91 633 91 633 81 702 c 1,6,-1
 88 707 l 1,7,8
 150 692 150 692 268 692 c 0,9,10
 281 692 281 692 296 692 c 1,11,-1
 296 671 l 1,12,13
 218 669 218 669 164 654 c 1,14,-1
 164 -158 l 1,15,16
 218 -173 218 -173 296 -175 c 1,17,-1
 296 -196 l 1,18,19
 281 -196 281 -196 268 -196 c 0,0,1
EndSplineSet
EndChar

StartChar: backslash
Encoding: 92 92 63
Width: 351
GlyphClass: 2
Flags: W
LayerCount: 2
Fore
SplineSet
275 -45 m 1,0,-1
 270 -45 l 1,1,-1
 92 478 l 2,2,3
 46 615 46 615 14 696 c 1,4,5
 15 696 15 696 41 704 c 128,-1,6
 67 712 67 712 76 717 c 1,7,-1
 80 717 l 1,8,9
 106 622 106 622 149 493 c 1,10,-1
 258 175 l 2,11,12
 290 82 290 82 330 -17 c 1,13,14
 324 -24 324 -24 275 -45 c 1,0,-1
EndSplineSet
EndChar

StartChar: bracketright
Encoding: 93 93 64
Width: 326
GlyphClass: 2
Flags: W
LayerCount: 2
Fore
SplineSet
58 692 m 0,0,1
 176 692 176 692 238 707 c 1,2,-1
 245 702 l 1,3,4
 235 633 235 633 235 248 c 128,-1,5
 235 -137 235 -137 245 -206 c 1,6,-1
 238 -211 l 1,7,8
 176 -196 176 -196 58 -196 c 0,9,10
 45 -196 45 -196 30 -196 c 1,11,-1
 30 -175 l 1,12,13
 108 -173 108 -173 162 -158 c 1,14,-1
 162 654 l 1,15,16
 108 669 108 669 30 671 c 1,17,-1
 30 692 l 1,18,19
 45 692 45 692 58 692 c 0,0,1
EndSplineSet
EndChar

StartChar: asciicircum
Encoding: 94 94 65
Width: 518
GlyphClass: 2
Flags: W
LayerCount: 2
Fore
SplineSet
259 550 m 1,0,-1
 79 278 l 1,1,-1
 45 296 l 1,2,3
 103 399 103 399 139.5 474 c 128,-1,4
 176 549 176 549 231 686 c 1,5,-1
 284 696 l 1,6,7
 341 556 341 556 379 475.5 c 128,-1,8
 417 395 417 395 473 296 c 1,9,-1
 439 278 l 1,10,-1
 259 550 l 1,0,-1
EndSplineSet
EndChar

StartChar: underscore
Encoding: 95 95 66
Width: 656
GlyphClass: 2
Flags: W
LayerCount: 2
Fore
SplineSet
15 -129 m 1,0,1
 185 -138 185 -138 394.5 -138 c 128,-1,2
 604 -138 604 -138 643 -135 c 1,3,-1
 649 -141 l 1,4,-1
 641 -195 l 1,5,-1
 15 -195 l 1,6,-1
 7 -188 l 1,7,-1
 15 -129 l 1,0,1
EndSplineSet
EndChar

StartChar: grave
Encoding: 96 96 67
Width: 272
GlyphClass: 2
Flags: W
LayerCount: 2
Fore
SplineSet
25 745 m 1,0,1
 31 747 31 747 47.5 747 c 128,-1,2
 64 747 64 747 73 744 c 1,3,4
 147 619 147 619 272 551 c 1,5,-1
 262 527 l 1,6,-1
 0 624 l 1,7,8
 1 651 1 651 8.5 690.5 c 128,-1,9
 16 730 16 730 25 745 c 1,0,1
EndSplineSet
EndChar

StartChar: a
Encoding: 97 97 68
Width: 547
GlyphClass: 2
Flags: W
LayerCount: 2
Fore
SplineSet
24 192 m 0,0,1
 24 292 24 292 94 377 c 128,-1,2
 164 462 164 462 266 505 c 1,3,4
 351 505 351 505 438 476 c 1,5,6
 461 503 461 503 472 539 c 1,7,-1
 494 532 l 1,8,9
 471 435 471 435 471 202 c 0,10,11
 471 99 471 99 479 40 c 1,12,13
 503 29 503 29 535 27 c 1,14,-1
 535 5 l 1,15,16
 426 5 426 5 314 -15 c 1,17,-1
 307 -8 l 1,18,19
 326 74 326 74 326 159 c 1,20,-1
 316 160 l 1,21,22
 279 61 279 61 193 -15 c 1,23,24
 118 -15 118 -15 71 47.5 c 128,-1,25
 24 110 24 110 24 192 c 0,0,1
183 238 m 0,26,27
 183 101 183 101 226 101 c 0,28,29
 243 101 243 101 268.5 133 c 128,-1,30
 294 165 294 165 317 227 c 1,31,32
 317 354 317 354 313 397 c 1,33,34
 287 429 287 429 244 429 c 0,35,36
 220 429 220 429 203 424 c 1,37,38
 183 345 183 345 183 238 c 0,26,27
EndSplineSet
EndChar

StartChar: b
Encoding: 98 98 69
Width: 545
GlyphClass: 2
Flags: W
LayerCount: 2
Fore
SplineSet
521 298 m 0,0,1
 521 198 521 198 451 113 c 128,-1,2
 381 28 381 28 279 -15 c 1,3,4
 193 -15 193 -15 55 30 c 1,5,6
 75 169 75 169 75 344.5 c 128,-1,7
 75 520 75 520 71.5 593 c 128,-1,8
 68 666 68 666 50 733 c 1,9,-1
 74 740 l 1,10,11
 84 703 84 703 105 678 c 1,12,13
 189 684 189 684 284 711 c 1,14,-1
 289 692 l 1,15,16
 277 682 277 682 240 659 c 1,17,18
 231 622 231 622 225 505.5 c 128,-1,19
 219 389 219 389 219 331 c 1,20,-1
 229 330 l 1,21,22
 266 429 266 429 352 505 c 1,23,24
 427 505 427 505 474 442.5 c 128,-1,25
 521 380 521 380 521 298 c 0,0,1
366 252 m 0,26,27
 366 389 366 389 323 389 c 0,28,29
 306 389 306 389 280.5 357 c 128,-1,30
 255 325 255 325 232 263 c 1,31,32
 232 136 232 136 236 93 c 1,33,34
 262 61 262 61 305 61 c 0,35,36
 328 61 328 61 346 66 c 1,37,38
 366 145 366 145 366 252 c 0,26,27
EndSplineSet
EndChar

StartChar: c
Encoding: 99 99 70
Width: 417
GlyphClass: 2
Flags: W
LayerCount: 2
Fore
SplineSet
83 45 m 128,-1,1
 24 105 24 105 24 200.5 c 128,-1,2
 24 296 24 296 94.5 380.5 c 128,-1,3
 165 465 165 465 260 505 c 1,4,5
 353 505 353 505 429 479 c 1,6,-1
 429 463 l 1,7,8
 380 419 380 419 364.5 389 c 128,-1,9
 349 359 349 359 343 310 c 1,10,-1
 319 310 l 1,11,12
 316 349 316 349 309 374 c 1,13,14
 264 417 264 417 202 424 c 1,15,16
 184 327 184 327 184 247 c 0,17,18
 184 94 184 94 277 94 c 0,19,20
 307 94 307 94 338 114.5 c 128,-1,21
 369 135 369 135 386 164 c 1,22,-1
 402 156 l 1,23,24
 343 34 343 34 241 -15 c 1,25,0
 142 -15 142 -15 83 45 c 128,-1,1
EndSplineSet
EndChar

StartChar: d
Encoding: 100 100 71
Width: 546
GlyphClass: 2
Flags: W
LayerCount: 2
Fore
SplineSet
497 704 m 1,0,1
 470 578 470 578 470 342.5 c 128,-1,2
 470 107 470 107 479 40 c 1,3,4
 503 29 503 29 535 27 c 1,5,-1
 535 5 l 1,6,7
 426 5 426 5 314 -15 c 1,8,-1
 307 -8 l 1,9,10
 326 74 326 74 326 159 c 1,11,-1
 316 160 l 1,12,13
 279 61 279 61 193 -15 c 1,14,15
 118 -15 118 -15 71 47.5 c 128,-1,16
 24 110 24 110 24 192 c 0,17,18
 24 292 24 292 94 377 c 128,-1,19
 164 462 164 462 266 505 c 1,20,21
 297 505 297 505 333 499 c 1,22,23
 333 599 333 599 325 656 c 1,24,25
 301 667 301 667 269 669 c 1,26,-1
 269 691 l 1,27,28
 378 691 378 691 490 711 c 1,29,-1
 497 704 l 1,0,1
184 238 m 0,30,31
 184 101 184 101 227 101 c 0,32,33
 244 101 244 101 269.5 133 c 128,-1,34
 295 165 295 165 318 227 c 1,35,36
 318 354 318 354 314 397 c 1,37,38
 288 429 288 429 245 429 c 0,39,40
 222 429 222 429 204 424 c 1,41,42
 184 345 184 345 184 238 c 0,30,31
EndSplineSet
EndChar

StartChar: e
Encoding: 101 101 72
Width: 479
GlyphClass: 2
Flags: W
LayerCount: 2
Fore
SplineSet
294 92 m 0,0,1
 332 92 332 92 369 112.5 c 128,-1,2
 406 133 406 133 433 166 c 1,3,-1
 446 155 l 1,4,5
 384 44 384 44 255 -15 c 1,6,7
 149 -15 149 -15 86.5 43 c 128,-1,8
 24 101 24 101 24 198.5 c 128,-1,9
 24 296 24 296 95 381 c 128,-1,10
 166 466 166 466 260 505 c 1,11,12
 442 505 442 505 442 379 c 0,13,14
 442 347 442 347 433 311 c 1,15,16
 460 298 460 298 483 297 c 1,17,-1
 482 275 l 1,18,19
 475 275 475 275 468 275 c 0,20,21
 340 275 340 275 184 241 c 1,22,23
 184 167 184 167 207.5 129.5 c 128,-1,24
 231 92 231 92 294 92 c 0,0,1
236 432 m 0,25,26
 217 432 217 432 201 424 c 1,27,28
 186 349 186 349 184 268 c 1,29,30
 234 289 234 289 284 300 c 1,31,32
 284 378 284 378 275 405 c 128,-1,33
 266 432 266 432 236 432 c 0,25,26
EndSplineSet
EndChar

StartChar: f
Encoding: 102 102 73
Width: 363
GlyphClass: 2
Flags: W
LayerCount: 2
Fore
SplineSet
242 268 m 2,0,1
 242 108 242 108 259 -60 c 1,2,3
 193 -54 193 -54 130 -52 c 1,4,5
 102 -104 102 -104 85 -200 c 1,6,-1
 60 -198 l 1,7,8
 61 -173 61 -173 74.5 1.5 c 128,-1,9
 88 176 88 176 89 270 c 2,10,-1
 90 439 l 1,11,-1
 23 439 l 1,12,-1
 21 441 l 1,13,14
 21 462 21 462 24 468 c 1,15,16
 37 473 37 473 96 490 c 1,17,18
 122 561 122 561 184 621 c 128,-1,19
 246 681 246 681 318 711 c 1,20,21
 400 711 400 711 463 691 c 1,22,-1
 463 675 l 1,23,24
 416 628 416 628 400 571 c 1,25,-1
 390 569 l 1,26,27
 355 598 355 598 326.5 612 c 128,-1,28
 298 626 298 626 259 630 c 1,29,30
 244 558 244 558 242 492 c 1,31,-1
 368 497 l 1,32,-1
 373 492 l 1,33,34
 362 457 362 457 359 429 c 1,35,36
 294 436 294 436 242 437 c 1,37,-1
 242 268 l 2,0,1
EndSplineSet
EndChar

StartChar: g
Encoding: 103 103 74
Width: 550
GlyphClass: 2
Flags: W
LayerCount: 2
Fore
SplineSet
30 196 m 0,0,1
 30 292 30 292 101 379 c 128,-1,2
 172 466 172 466 271 505 c 1,3,4
 355 505 355 505 442 476 c 1,5,6
 491 486 491 486 532 503 c 1,7,-1
 537 484 l 1,8,9
 524 471 524 471 489 449 c 1,10,11
 475 335 475 335 475 209.5 c 128,-1,12
 475 84 475 84 490 -9 c 1,13,14
 460 -67 460 -67 387.5 -131 c 128,-1,15
 315 -195 315 -195 254 -215 c 1,16,17
 146 -215 146 -215 24 -173 c 1,18,-1
 24 -153 l 1,19,20
 60 -90 60 -90 177 3 c 1,21,-1
 177 7 l 1,22,23
 110 27 110 27 70 77.5 c 128,-1,24
 30 128 30 128 30 196 c 0,0,1
190 249 m 0,25,26
 190 116 190 116 233 116 c 0,27,28
 249 116 249 116 276.5 151.5 c 128,-1,29
 304 187 304 187 322 244 c 1,30,31
 322 350 322 350 319 397 c 1,32,33
 292 429 292 429 248 429 c 0,34,35
 225 429 225 429 209 424 c 1,36,37
 190 342 190 342 190 249 c 0,25,26
268 -142 m 128,-1,39
 290 -142 290 -142 309 -134 c 1,40,41
 324 -70 324 -70 327 -15 c 128,-1,42
 330 40 330 40 330 176 c 1,43,-1
 321 178 l 1,44,45
 290 104 290 104 234 38 c 1,46,47
 186 -17 186 -17 177 -108 c 1,48,49
 193 -122 193 -122 219.5 -132 c 128,-1,38
 246 -142 246 -142 268 -142 c 128,-1,39
EndSplineSet
EndChar

StartChar: h
Encoding: 104 104 75
Width: 583
GlyphClass: 2
Flags: W
LayerCount: 2
Fore
SplineSet
63 38 m 1,0,1
 78 113 78 113 78 316.5 c 128,-1,2
 78 520 78 520 74.5 593 c 128,-1,3
 71 666 71 666 53 733 c 1,4,-1
 77 740 l 1,5,6
 87 703 87 703 108 678 c 1,7,8
 192 684 192 684 287 711 c 1,9,-1
 292 692 l 1,10,11
 280 682 280 682 243 659 c 1,12,13
 234 622 234 622 228 505.5 c 128,-1,14
 222 389 222 389 222 331 c 1,15,-1
 232 330 l 1,16,17
 252 381 252 381 287 430 c 128,-1,18
 322 479 322 479 362 505 c 1,19,20
 451 505 451 505 484 453 c 128,-1,21
 517 401 517 401 517 311 c 0,22,23
 517 303 517 303 517 295 c 2,24,-1
 509 38 l 1,25,26
 543 26 543 26 568 12 c 1,27,-1
 565 -7 l 1,28,29
 509 0 509 0 441.5 0 c 128,-1,30
 374 0 374 0 337 -3 c 1,31,-1
 337 18 l 1,32,33
 357 110 357 110 357 219.5 c 128,-1,34
 357 329 357 329 351 359 c 128,-1,35
 345 389 345 389 328 389 c 0,36,37
 304 389 304 389 276.5 354 c 128,-1,38
 249 319 249 319 230 263 c 1,39,40
 230 78 230 78 239 35 c 1,41,42
 274 25 274 25 305 11 c 1,43,-1
 302 -9 l 1,44,45
 234 0 234 0 144.5 0 c 128,-1,46
 55 0 55 0 4 -7 c 1,47,-1
 1 13 l 1,48,49
 17 22 17 22 63 38 c 1,0,1
EndSplineSet
EndChar

StartChar: i
Encoding: 105 105 76
Width: 328
GlyphClass: 2
Flags: W
LayerCount: 2
Fore
SplineSet
264 641 m 1,0,1
 253 619 253 619 223 588 c 128,-1,2
 193 557 193 557 170 541 c 1,3,4
 147 556 147 556 117 587.5 c 128,-1,5
 87 619 87 619 75 641 c 1,6,7
 88 662 88 662 115.5 686 c 128,-1,8
 143 710 143 710 170 722 c 1,9,10
 194 709 194 709 222 685.5 c 128,-1,11
 250 662 250 662 264 641 c 1,0,1
93 322 m 0,12,13
 93 384 93 384 85 450 c 1,14,15
 61 461 61 461 29 463 c 1,16,-1
 29 485 l 1,17,18
 148 485 148 485 260 505 c 1,19,-1
 267 498 l 1,20,21
 246 408 246 408 246 243 c 128,-1,22
 246 78 246 78 255 35 c 1,23,24
 290 25 290 25 321 11 c 1,25,-1
 318 -9 l 1,26,27
 250 0 250 0 160.5 0 c 128,-1,28
 71 0 71 0 20 -7 c 1,29,-1
 17 13 l 1,30,31
 33 22 33 22 79 38 c 1,32,33
 93 108 93 108 93 322 c 0,12,13
EndSplineSet
EndChar

StartChar: j
Encoding: 106 106 77
Width: 317
GlyphClass: 2
Flags: W
LayerCount: 2
Fore
SplineSet
89 83 m 2,0,-1
 89 220 l 2,1,2
 89 384 89 384 81 450 c 1,3,4
 57 461 57 461 25 463 c 1,5,-1
 25 485 l 1,6,7
 144 485 144 485 256 505 c 1,8,-1
 263 498 l 1,9,10
 242 408 242 408 242 261 c 128,-1,11
 242 114 242 114 259 32 c 1,12,13
 235 -35 235 -35 150 -106 c 128,-1,14
 65 -177 65 -177 -17 -215 c 1,15,-1
 -28 -196 l 1,16,17
 89 -108 89 -108 89 83 c 2,0,-1
268 641 m 1,18,19
 257 619 257 619 227 588 c 128,-1,20
 197 557 197 557 174 541 c 1,21,22
 151 556 151 556 121 587.5 c 128,-1,23
 91 619 91 619 79 641 c 1,24,25
 92 662 92 662 119.5 686 c 128,-1,26
 147 710 147 710 174 722 c 1,27,28
 198 709 198 709 226 685.5 c 128,-1,29
 254 662 254 662 268 641 c 1,18,19
EndSplineSet
EndChar

StartChar: k
Encoding: 107 107 78
Width: 560
GlyphClass: 2
Flags: W
LayerCount: 2
Fore
SplineSet
510 371 m 0,0,1
 510 326 510 326 488 287.5 c 128,-1,2
 466 249 466 249 427 231 c 1,3,-1
 449 168 l 2,4,5
 482 76 482 76 513 37 c 1,6,7
 541 29 541 29 567 29 c 1,8,-1
 567 8 l 1,9,10
 426 2 426 2 366 -12 c 1,11,-1
 357 -7 l 1,12,13
 357 59 357 59 299 209 c 1,14,15
 275 207 275 207 263 207 c 1,16,-1
 263 230 l 1,17,18
 313 234 313 234 335 261.5 c 128,-1,19
 357 289 357 289 357 339.5 c 128,-1,20
 357 390 357 390 333 400 c 1,21,22
 272 361 272 361 238 263 c 1,23,24
 238 65 238 65 247 35 c 1,25,26
 282 25 282 25 313 11 c 1,27,-1
 310 -9 l 1,28,29
 243 0 243 0 153 0 c 128,-1,30
 63 0 63 0 12 -7 c 1,31,-1
 9 13 l 1,32,33
 25 22 25 22 71 38 c 1,34,35
 87 118 87 118 87 343 c 128,-1,36
 87 568 87 568 75 641 c 1,37,38
 48 656 48 656 18 656 c 1,39,-1
 18 678 l 1,40,41
 203 678 203 678 300 712 c 1,42,-1
 306 693 l 1,43,44
 286 676 286 676 256 659 c 1,45,46
 247 645 247 645 238.5 547.5 c 128,-1,47
 230 450 230 450 230 331 c 1,48,-1
 240 330 l 1,49,50
 284 446 284 446 360 505 c 1,51,52
 510 505 510 505 510 371 c 0,0,1
EndSplineSet
EndChar

StartChar: l
Encoding: 108 108 79
Width: 324
GlyphClass: 2
Flags: W
LayerCount: 2
Fore
SplineSet
256 659 m 1,0,1
 238 576 238 576 238 327.5 c 128,-1,2
 238 79 238 79 247 35 c 1,3,4
 282 25 282 25 313 11 c 1,5,-1
 310 -9 l 1,6,7
 243 0 243 0 153 0 c 128,-1,8
 63 0 63 0 12 -7 c 1,9,-1
 9 13 l 1,10,11
 25 22 25 22 71 38 c 1,12,13
 87 118 87 118 87 343 c 128,-1,14
 87 568 87 568 75 641 c 1,15,16
 48 656 48 656 18 656 c 1,17,-1
 18 678 l 1,18,19
 203 678 203 678 300 712 c 1,20,-1
 306 693 l 1,21,22
 286 676 286 676 256 659 c 1,0,1
EndSplineSet
EndChar

StartChar: m
Encoding: 109 109 80
Width: 869
GlyphClass: 2
Flags: W
LayerCount: 2
Fore
SplineSet
88 322 m 0,0,1
 88 384 88 384 80 450 c 1,2,3
 56 461 56 461 24 463 c 1,4,-1
 24 485 l 1,5,6
 132 485 132 485 245 505 c 1,7,-1
 252 498 l 1,8,9
 233 416 233 416 233 331 c 1,10,-1
 243 330 l 1,11,12
 292 453 292 453 370 505 c 1,13,14
 451 505 451 505 483 462.5 c 128,-1,15
 515 420 515 420 515 331 c 1,16,-1
 523 330 l 1,17,18
 573 455 573 455 648 505 c 1,19,20
 737 505 737 505 770 453 c 128,-1,21
 803 401 803 401 803 311 c 0,22,23
 803 303 803 303 803 295 c 2,24,-1
 795 38 l 1,25,26
 829 26 829 26 854 12 c 1,27,-1
 851 -7 l 1,28,29
 795 0 795 0 727.5 0 c 128,-1,30
 660 0 660 0 623 -3 c 1,31,-1
 623 18 l 1,32,33
 643 110 643 110 643 219.5 c 128,-1,34
 643 329 643 329 637 359 c 128,-1,35
 631 389 631 389 614 389 c 0,36,37
 592 389 592 389 568 357.5 c 128,-1,38
 544 326 544 326 524 272 c 1,39,-1
 517 38 l 1,40,41
 551 26 551 26 576 12 c 1,42,-1
 573 -7 l 1,43,44
 517 0 517 0 449.5 0 c 128,-1,45
 382 0 382 0 345 -3 c 1,46,-1
 345 18 l 1,47,48
 365 110 365 110 365 219.5 c 128,-1,49
 365 329 365 329 359 359 c 128,-1,50
 353 389 353 389 336 389 c 0,51,52
 313 389 313 389 286.5 354.5 c 128,-1,53
 260 320 260 320 241 263 c 1,54,55
 241 78 241 78 250 35 c 1,56,57
 285 25 285 25 316 11 c 1,58,-1
 313 -9 l 1,59,60
 246 0 246 0 156 0 c 128,-1,61
 66 0 66 0 15 -7 c 1,62,-1
 12 13 l 1,63,64
 28 22 28 22 74 38 c 1,65,66
 88 108 88 108 88 322 c 0,0,1
EndSplineSet
EndChar

StartChar: n
Encoding: 110 110 81
Width: 594
GlyphClass: 2
Flags: W
LayerCount: 2
Fore
SplineSet
88 322 m 0,0,1
 88 384 88 384 80 450 c 1,2,3
 56 461 56 461 24 463 c 1,4,-1
 24 485 l 1,5,6
 132 485 132 485 245 505 c 1,7,-1
 252 498 l 1,8,9
 233 416 233 416 233 331 c 1,10,-1
 243 330 l 1,11,12
 263 381 263 381 298 430 c 128,-1,13
 333 479 333 479 373 505 c 1,14,15
 462 505 462 505 495 453 c 128,-1,16
 528 401 528 401 528 311 c 0,17,18
 528 303 528 303 528 295 c 2,19,-1
 520 38 l 1,20,21
 554 26 554 26 579 12 c 1,22,-1
 576 -7 l 1,23,24
 520 0 520 0 453 0 c 128,-1,25
 386 0 386 0 348 -3 c 1,26,-1
 348 18 l 1,27,28
 368 110 368 110 368 219.5 c 128,-1,29
 368 329 368 329 362 359 c 128,-1,30
 356 389 356 389 339 389 c 0,31,32
 315 389 315 389 287.5 354 c 128,-1,33
 260 319 260 319 241 263 c 1,34,35
 241 78 241 78 250 35 c 1,36,37
 285 25 285 25 316 11 c 1,38,-1
 313 -9 l 1,39,40
 246 0 246 0 156 0 c 128,-1,41
 66 0 66 0 15 -7 c 1,42,-1
 12 13 l 1,43,44
 37 27 37 27 74 38 c 1,45,46
 88 108 88 108 88 322 c 0,0,1
EndSplineSet
EndChar

StartChar: o
Encoding: 111 111 82
Width: 512
GlyphClass: 2
Flags: W
LayerCount: 2
Fore
SplineSet
87 42.5 m 128,-1,1
 24 100 24 100 24 197.5 c 128,-1,2
 24 295 24 295 95 379 c 128,-1,3
 166 463 166 463 267 505 c 1,4,5
 377 505 377 505 432.5 450.5 c 128,-1,6
 488 396 488 396 488 295 c 128,-1,7
 488 194 488 194 421.5 110 c 128,-1,8
 355 26 355 26 256 -15 c 1,9,0
 150 -15 150 -15 87 42.5 c 128,-1,1
246 432 m 0,10,11
 223 432 223 432 206 424 c 1,12,13
 188 348 188 348 188 253.5 c 128,-1,14
 188 159 188 159 204 108.5 c 128,-1,15
 220 58 220 58 266 58 c 0,16,17
 293 58 293 58 306 66 c 1,18,19
 324 142 324 142 324 236.5 c 128,-1,20
 324 331 324 331 308 381.5 c 128,-1,21
 292 432 292 432 246 432 c 0,10,11
EndSplineSet
EndChar

StartChar: p
Encoding: 112 112 83
Width: 548
GlyphClass: 2
Flags: W
LayerCount: 2
Fore
SplineSet
298 -213 m 1,0,1
 232 -200 232 -200 153.5 -200 c 128,-1,2
 75 -200 75 -200 13 -208 c 1,3,-1
 9 -186 l 1,4,5
 33 -180 33 -180 59 -167 c 1,6,7
 78 -52 78 -52 78 165.5 c 128,-1,8
 78 383 78 383 69 450 c 1,9,10
 45 461 45 461 13 463 c 1,11,-1
 13 485 l 1,12,13
 122 485 122 485 234 505 c 1,14,-1
 241 498 l 1,15,16
 222 416 222 416 222 331 c 1,17,-1
 232 330 l 1,18,19
 269 429 269 429 355 505 c 1,20,21
 430 505 430 505 477 442.5 c 128,-1,22
 524 380 524 380 524 298 c 0,23,24
 524 198 524 198 454 113 c 128,-1,25
 384 28 384 28 282 -15 c 1,26,27
 251 -15 251 -15 215 -9 c 1,28,29
 215 -107 215 -107 223 -164 c 1,30,31
 261 -173 261 -173 303 -192 c 1,32,-1
 298 -213 l 1,0,1
364 252 m 0,33,34
 364 389 364 389 321 389 c 0,35,36
 304 389 304 389 278.5 357 c 128,-1,37
 253 325 253 325 230 263 c 1,38,39
 230 136 230 136 234 93 c 1,40,41
 260 61 260 61 303 61 c 0,42,43
 326 61 326 61 344 66 c 1,44,45
 364 145 364 145 364 252 c 0,33,34
EndSplineSet
EndChar

StartChar: q
Encoding: 113 113 84
Width: 544
GlyphClass: 2
Flags: W
LayerCount: 2
Fore
SplineSet
483 449 m 1,0,1
 466 331 466 331 466 147.5 c 128,-1,2
 466 -36 466 -36 477 -144 c 1,3,4
 506 -149 506 -149 532 -157 c 1,5,-1
 534 -176 l 1,6,7
 383 -182 383 -182 253 -216 c 1,8,-1
 246 -195 l 1,9,10
 294 -178 294 -178 305 -167 c 1,11,12
 314 -129 314 -129 320 -14 c 128,-1,13
 326 101 326 101 326 159 c 1,14,-1
 316 160 l 1,15,16
 279 61 279 61 193 -15 c 1,17,18
 118 -15 118 -15 71 47.5 c 128,-1,19
 24 110 24 110 24 192 c 0,20,21
 24 292 24 292 94 377 c 128,-1,22
 164 462 164 462 266 505 c 1,23,24
 341 505 341 505 438 476 c 1,25,26
 484 485 484 485 526 503 c 1,27,-1
 531 484 l 1,28,29
 518 471 518 471 483 449 c 1,0,1
179 238 m 0,30,31
 179 101 179 101 222 101 c 0,32,33
 239 101 239 101 264.5 133 c 128,-1,34
 290 165 290 165 313 227 c 1,35,36
 313 354 313 354 309 397 c 1,37,38
 283 429 283 429 240 429 c 0,39,40
 216 429 216 429 199 424 c 1,41,42
 179 345 179 345 179 238 c 0,30,31
EndSplineSet
EndChar

StartChar: r
Encoding: 114 114 85
Width: 433
GlyphClass: 2
Flags: W
LayerCount: 2
Fore
SplineSet
24 485 m 1,0,1
 132 485 132 485 245 505 c 1,2,-1
 252 498 l 1,3,4
 233 416 233 416 233 331 c 1,5,-1
 243 330 l 1,6,7
 296 463 296 463 359 505 c 1,8,9
 404 505 404 505 445 487 c 1,10,-1
 445 471 l 1,11,12
 385 389 385 389 379 268 c 1,13,-1
 355 268 l 1,14,15
 352 308 352 308 345 333 c 1,16,17
 327 342 327 342 308 342 c 0,18,19
 260 342 260 342 241 263 c 1,20,21
 241 78 241 78 250 35 c 1,22,23
 296 27 296 27 336 11 c 1,24,-1
 333 -10 l 1,25,26
 265 0 265 0 165.5 0 c 128,-1,27
 66 0 66 0 15 -7 c 1,28,-1
 12 13 l 1,29,30
 28 22 28 22 74 38 c 1,31,32
 88 108 88 108 88 322 c 1,33,34
 86 400 86 400 80 450 c 1,35,36
 56 461 56 461 24 463 c 1,37,-1
 24 485 l 1,0,1
EndSplineSet
EndChar

StartChar: s
Encoding: 115 115 86
Width: 419
GlyphClass: 2
Flags: W
LayerCount: 2
Fore
SplineSet
224 66 m 0,0,1
 250 66 250 66 263.5 84 c 128,-1,2
 277 102 277 102 277 131 c 0,3,4
 277 154 277 154 217.5 176 c 128,-1,5
 158 198 158 198 98.5 218.5 c 128,-1,6
 39 239 39 239 39 257 c 0,7,8
 39 324 39 324 105.5 399 c 128,-1,9
 172 474 172 474 244 505 c 1,10,11
 346 505 346 505 414 482 c 1,12,-1
 414 466 l 1,13,14
 367 419 367 419 351 362 c 1,15,-1
 341 360 l 1,16,17
 262 424 262 424 200 424 c 0,18,19
 181 424 181 424 169 412 c 128,-1,20
 157 400 157 400 157 381 c 0,21,22
 157 358 157 358 216.5 335.5 c 128,-1,23
 276 313 276 313 335.5 292.5 c 128,-1,24
 395 272 395 272 395 254 c 0,25,26
 395 179 395 179 330 101.5 c 128,-1,27
 265 24 265 24 186 -15 c 1,28,29
 94 -15 94 -15 17 7 c 1,30,-1
 17 23 l 1,31,32
 67 86 67 86 72 180 c 1,33,-1
 96 180 l 1,34,35
 96 169 96 169 97.5 160 c 128,-1,36
 99 151 99 151 100 144.5 c 128,-1,37
 101 138 101 138 102 133 c 0,38,39
 104 123 104 123 106 115 c 1,40,41
 162 66 162 66 224 66 c 0,0,1
EndSplineSet
EndChar

StartChar: t
Encoding: 116 116 87
Width: 373
GlyphClass: 2
Flags: W
LayerCount: 2
Fore
SplineSet
72 173 m 0,0,1
 72 184 72 184 72 195 c 2,2,-1
 77 322 l 2,3,4
 80 382 80 382 80 439 c 1,5,-1
 16 439 l 1,6,-1
 14 441 l 1,7,8
 14 462 14 462 17 468 c 1,9,10
 85 501 85 501 127.5 535 c 128,-1,11
 170 569 170 569 213 626 c 1,12,13
 230 632 230 632 258 632 c 1,14,-1
 262 629 l 1,15,16
 242 533 242 533 241 492 c 1,17,-1
 367 497 l 1,18,-1
 372 492 l 1,19,20
 361 457 361 457 358 429 c 1,21,22
 293 436 293 436 237 437 c 1,23,-1
 230 228 l 2,24,25
 230 214 230 214 230 201 c 0,26,27
 230 98 230 98 259 98 c 0,28,29
 307 98 307 98 350 165 c 1,30,-1
 366 156 l 1,31,32
 334 90 334 90 303.5 49 c 128,-1,33
 273 8 273 8 225 -15 c 1,34,35
 134 -15 134 -15 103 34.5 c 128,-1,36
 72 84 72 84 72 173 c 0,0,1
EndSplineSet
EndChar

StartChar: u
Encoding: 117 117 88
Width: 600
GlyphClass: 2
Flags: W
LayerCount: 2
Fore
SplineSet
229 231 m 0,0,1
 229 161 229 161 235 131 c 128,-1,2
 241 101 241 101 258 101 c 0,3,4
 282 101 282 101 309.5 136 c 128,-1,5
 337 171 337 171 356 227 c 1,6,7
 356 412 356 412 347 455 c 1,8,9
 312 465 312 465 281 479 c 1,10,-1
 284 499 l 1,11,12
 352 490 352 490 441.5 490 c 128,-1,13
 531 490 531 490 582 497 c 1,14,-1
 585 477 l 1,15,16
 569 468 569 468 523 452 c 1,17,18
 509 382 509 382 509 168 c 1,19,20
 511 90 511 90 517 40 c 1,21,22
 541 29 541 29 573 27 c 1,23,-1
 573 5 l 1,24,25
 464 5 464 5 352 -15 c 1,26,-1
 345 -8 l 1,27,28
 364 74 364 74 364 159 c 1,29,-1
 354 160 l 1,30,31
 334 109 334 109 299 60 c 128,-1,32
 264 11 264 11 224 -15 c 1,33,34
 133 -15 133 -15 102 35.5 c 128,-1,35
 71 86 71 86 71 183 c 0,36,37
 71 189 71 189 71 195 c 2,38,-1
 74 322 l 2,39,40
 74 335 74 335 74 367.5 c 128,-1,41
 74 400 74 400 68 450 c 1,42,43
 44 461 44 461 12 463 c 1,44,-1
 12 485 l 1,45,46
 130 485 130 485 243 505 c 1,47,-1
 250 498 l 1,48,49
 229 408 229 408 229 231 c 0,0,1
EndSplineSet
EndChar

StartChar: v
Encoding: 118 118 89
Width: 523
GlyphClass: 2
Flags: W
LayerCount: 2
Fore
SplineSet
506 403 m 0,0,1
 506 311 506 311 443.5 200 c 128,-1,2
 381 89 381 89 293 13 c 1,3,4
 247 -5 247 -5 175 -15 c 1,5,6
 130 4 130 4 112.5 60 c 128,-1,7
 95 116 95 116 61 328 c 0,8,9
 57 350 57 350 38 450 c 1,10,11
 14 461 14 461 -18 463 c 1,12,-1
 -18 485 l 1,13,14
 108 485 108 485 220 505 c 1,15,-1
 224 498 l 1,16,17
 209 474 209 474 209 437.5 c 128,-1,18
 209 401 209 401 218.5 316 c 128,-1,19
 228 231 228 231 240.5 166.5 c 128,-1,20
 253 102 253 102 262.5 82.5 c 128,-1,21
 272 63 272 63 285 63 c 1,22,23
 314 116 314 116 329.5 196.5 c 128,-1,24
 345 277 345 277 345 346.5 c 128,-1,25
 345 416 345 416 324 449 c 1,26,27
 306 457 306 457 260 459 c 1,28,-1
 261 482 l 1,29,30
 423 484 423 484 534 515 c 1,31,-1
 538 497 l 1,32,33
 522 485 522 485 487 469 c 1,34,35
 506 442 506 442 506 403 c 0,0,1
EndSplineSet
EndChar

StartChar: w
Encoding: 119 119 90
Width: 810
GlyphClass: 2
Flags: W
LayerCount: 2
Fore
SplineSet
262 484 m 1,0,1
 372 477 372 477 467.5 477 c 128,-1,2
 563 477 563 477 665.5 487 c 128,-1,3
 768 497 768 497 821 515 c 1,4,-1
 825 497 l 1,5,6
 799 480 799 480 774 470 c 1,7,8
 793 443 793 443 793 403 c 0,9,10
 793 311 793 311 732.5 199.5 c 128,-1,11
 672 88 672 88 585 13 c 1,12,13
 539 -5 539 -5 467 -15 c 1,14,15
 436 -2 436 -2 419.5 25.5 c 128,-1,16
 403 53 403 53 389 118 c 1,17,18
 345 59 345 59 293 13 c 1,19,20
 247 -5 247 -5 175 -15 c 1,21,22
 130 4 130 4 112.5 60 c 128,-1,23
 95 116 95 116 61 328 c 0,24,25
 57 350 57 350 38 450 c 1,26,27
 14 461 14 461 -18 463 c 1,28,-1
 -18 485 l 1,29,30
 108 485 108 485 220 505 c 1,31,-1
 224 498 l 1,32,33
 209 474 209 474 209 437.5 c 128,-1,34
 209 401 209 401 218.5 316 c 128,-1,35
 228 231 228 231 240.5 166.5 c 128,-1,36
 253 102 253 102 262.5 82.5 c 128,-1,37
 272 63 272 63 285 63 c 1,38,39
 314 116 314 116 329 198.5 c 128,-1,40
 344 281 344 281 344 349 c 128,-1,41
 344 417 344 417 324 448 c 1,42,43
 301 458 301 458 260 461 c 1,44,-1
 262 484 l 1,0,1
621 198.5 m 128,-1,46
 636 281 636 281 636 348.5 c 128,-1,47
 636 416 636 416 615 449 c 1,48,49
 599 457 599 457 562 457 c 128,-1,50
 525 457 525 457 500 446 c 1,51,52
 500 403 500 403 510 317 c 128,-1,53
 520 231 520 231 532.5 166.5 c 128,-1,54
 545 102 545 102 554.5 82.5 c 128,-1,55
 564 63 564 63 577 63 c 1,56,45
 606 116 606 116 621 198.5 c 128,-1,46
EndSplineSet
EndChar

StartChar: x
Encoding: 120 120 91
Width: 498
GlyphClass: 2
Flags: W
LayerCount: 2
Fore
SplineSet
509 6 m 1,0,1
 495 7 495 7 467 7 c 128,-1,2
 439 7 439 7 374.5 2.5 c 128,-1,3
 310 -2 310 -2 272 -11 c 1,4,-1
 263 -8 l 1,5,6
 264 16 264 16 253 60.5 c 128,-1,7
 242 105 242 105 226 137 c 2,8,-1
 198 194 l 1,9,10
 176 62 176 62 113 -15 c 1,11,12
 90 -15 90 -15 52 -10 c 128,-1,13
 14 -5 14 -5 -3 3 c 1,14,-1
 -3 19 l 1,15,16
 57 101 57 101 63 222 c 1,17,-1
 87 222 l 1,18,19
 90 182 90 182 97 157 c 1,20,21
 113 148 113 148 134 148 c 0,22,23
 143 148 143 148 156.5 168 c 128,-1,24
 170 188 170 188 183 224 c 1,25,-1
 133 316 l 1,26,27
 78 421 78 421 52 455 c 1,28,29
 28 463 28 463 -1 465 c 1,30,-1
 -1 486 l 1,31,32
 13 485 13 485 41 485 c 128,-1,33
 69 485 69 485 133.5 489.5 c 128,-1,34
 198 494 198 494 236 503 c 1,35,-1
 245 500 l 1,36,37
 244 476 244 476 255.5 431.5 c 128,-1,38
 267 387 267 387 282 355 c 2,39,-1
 296 325 l 1,40,41
 322 440 322 440 375 505 c 1,42,43
 440 505 440 505 481 487 c 1,44,-1
 481 471 l 1,45,46
 421 389 421 389 415 268 c 1,47,-1
 391 268 l 1,48,49
 388 308 388 308 381 333 c 1,50,51
 365 342 365 342 344 342 c 0,52,53
 329 342 329 342 311 291 c 1,54,-1
 375 176 l 1,55,56
 438 60 438 60 456 37 c 1,57,58
 480 29 480 29 509 27 c 1,59,-1
 509 6 l 1,0,1
EndSplineSet
EndChar

StartChar: y
Encoding: 121 121 92
Width: 570
GlyphClass: 2
Flags: W
LayerCount: 2
Fore
SplineSet
288 -142 m 0,0,1
 310 -142 310 -142 329 -134 c 1,2,3
 344 -70 344 -70 347 -21 c 128,-1,4
 350 28 350 28 350 159 c 1,5,-1
 340 160 l 1,6,7
 287 27 287 27 224 -15 c 1,8,9
 133 -15 133 -15 102 35.5 c 128,-1,10
 71 86 71 86 71 183 c 0,11,12
 71 189 71 189 71 195 c 2,13,-1
 74 322 l 2,14,15
 74 335 74 335 74 367.5 c 128,-1,16
 74 400 74 400 68 450 c 1,17,18
 44 461 44 461 12 463 c 1,19,-1
 12 485 l 1,20,21
 130 485 130 485 243 505 c 1,22,-1
 250 498 l 1,23,24
 229 408 229 408 229 231 c 0,25,26
 229 161 229 161 235 131 c 128,-1,27
 241 101 241 101 258.5 101 c 128,-1,28
 276 101 276 101 300.5 138.5 c 128,-1,29
 325 176 325 176 342 227 c 1,30,31
 342 412 342 412 333 455 c 1,32,33
 302 466 302 466 281 479 c 1,34,-1
 284 499 l 1,35,36
 352 490 352 490 434.5 490 c 128,-1,37
 517 490 517 490 568 497 c 1,38,-1
 571 477 l 1,39,40
 555 468 555 468 509 452 c 1,41,42
 495 382 495 382 495 233 c 128,-1,43
 495 84 495 84 510 -9 c 1,44,45
 480 -67 480 -67 407.5 -131 c 128,-1,46
 335 -195 335 -195 274 -215 c 1,47,48
 175 -215 175 -215 45 -174 c 1,49,-1
 45 -158 l 1,50,51
 84 -117 84 -117 97.5 -93 c 128,-1,52
 111 -69 111 -69 116 -25 c 1,53,-1
 142 -25 l 1,54,55
 144 -55 144 -55 147 -72 c 1,56,57
 207 -142 207 -142 288 -142 c 0,0,1
EndSplineSet
EndChar

StartChar: z
Encoding: 122 122 93
Width: 432
GlyphClass: 2
Flags: W
LayerCount: 2
Fore
SplineSet
435 202 m 1,0,1
 418 139 418 139 418 94.5 c 128,-1,2
 418 50 418 50 431 -7 c 1,3,-1
 419 -15 l 1,4,5
 234 33 234 33 75 33 c 1,6,7
 38 18 38 18 3 -16 c 1,8,-1
 -15 0 l 1,9,10
 15 31 15 31 80 108 c 1,11,-1
 270 341 l 1,12,-1
 214 344 l 1,13,14
 153 346 153 346 119.5 346 c 128,-1,15
 86 346 86 346 71 345 c 1,16,17
 49 323 49 323 33 294 c 1,18,-1
 13 306 l 1,19,20
 48 381 48 381 55 498 c 1,21,-1
 69 505 l 1,22,23
 93 493 93 493 125 488 c 128,-1,24
 157 483 157 483 261 475 c 2,25,-1
 375 466 l 1,26,27
 409 481 409 481 435 505 c 1,28,-1
 453 489 l 1,29,30
 417 455 417 455 377 396 c 2,31,-1
 217 163 l 1,32,-1
 219 159 l 1,33,34
 235 166 235 166 248 169 c 1,35,36
 309 169 309 169 385 149 c 1,37,38
 403 176 403 176 414 208 c 1,39,-1
 435 202 l 1,0,1
EndSplineSet
EndChar

StartChar: braceleft
Encoding: 123 123 94
Width: 300
GlyphClass: 2
Flags: W
LayerCount: 2
Fore
SplineSet
126.5 -158.5 m 128,-1,1
 79 -116 79 -116 79 -71 c 128,-1,2
 79 -26 79 -26 97.5 52 c 128,-1,3
 116 130 116 130 116 177 c 0,4,5
 116 197 116 197 94.5 214.5 c 128,-1,6
 73 232 73 232 48 236 c 1,7,-1
 44 255 l 1,8,9
 70 261 70 261 93 279 c 128,-1,10
 116 297 116 297 116 319 c 0,11,12
 116 366 116 366 97.5 444 c 128,-1,13
 79 522 79 522 79 567 c 128,-1,14
 79 612 79 612 126.5 654.5 c 128,-1,15
 174 697 174 697 224 711 c 1,16,-1
 229 693 l 1,17,18
 174 665 174 665 154 604 c 1,19,20
 154 557 154 557 176.5 463 c 128,-1,21
 199 369 199 369 199 329 c 1,22,23
 185 295 185 295 108 250 c 1,24,-1
 108 246 l 1,25,26
 185 201 185 201 199 167 c 1,27,28
 199 127 199 127 176.5 33 c 128,-1,29
 154 -61 154 -61 154 -108 c 1,30,31
 173 -167 173 -167 230 -196 c 1,32,-1
 224 -215 l 1,33,0
 174 -201 174 -201 126.5 -158.5 c 128,-1,1
EndSplineSet
EndChar

StartChar: bar
Encoding: 124 124 95
Width: 238
GlyphClass: 2
Flags: W
LayerCount: 2
Fore
SplineSet
151 -199 m 1,0,-1
 96 -216 l 1,1,-1
 89 -213 l 1,2,3
 89 476 89 476 82 723 c 1,4,5
 87 725 87 725 102 730 c 0,6,7
 139 744 139 744 148 750 c 1,8,-1
 153 749 l 1,9,10
 151 607 151 607 151 -199 c 1,0,-1
EndSplineSet
EndChar

StartChar: braceright
Encoding: 125 125 96
Width: 288
GlyphClass: 2
Flags: W
LayerCount: 2
Fore
SplineSet
173.5 654.5 m 128,-1,1
 221 612 221 612 221 567 c 128,-1,2
 221 522 221 522 202.5 444 c 128,-1,3
 184 366 184 366 184 319 c 0,4,5
 184 297 184 297 207 279 c 128,-1,6
 230 261 230 261 256 255 c 1,7,-1
 252 236 l 1,8,9
 227 232 227 232 205.5 214.5 c 128,-1,10
 184 197 184 197 184 177 c 0,11,12
 184 130 184 130 202.5 52 c 128,-1,13
 221 -26 221 -26 221 -71 c 128,-1,14
 221 -116 221 -116 173.5 -158.5 c 128,-1,15
 126 -201 126 -201 76 -215 c 1,16,-1
 70 -196 l 1,17,18
 119 -171 119 -171 139 -108 c 1,19,20
 139 -61 139 -61 116.5 33 c 128,-1,21
 94 127 94 127 94 167 c 1,22,23
 106 196 106 196 192 246 c 1,24,-1
 192 250 l 1,25,26
 106 300 106 300 94 329 c 1,27,28
 94 369 94 369 116.5 463 c 128,-1,29
 139 557 139 557 139 604 c 1,30,31
 118 669 118 669 71 693 c 1,32,-1
 76 711 l 1,33,0
 126 697 126 697 173.5 654.5 c 128,-1,1
EndSplineSet
EndChar

StartChar: asciitilde
Encoding: 126 126 97
Width: 637
GlyphClass: 2
Flags: W
LayerCount: 2
Fore
SplineSet
461 272 m 0,0,1
 551 272 551 272 613 366 c 1,2,-1
 637 350 l 1,3,4
 611 287 611 287 554.5 232 c 128,-1,5
 498 177 498 177 441 156 c 1,6,7
 398 156 398 156 298 210.5 c 128,-1,8
 198 265 198 265 155 265 c 0,9,10
 70 265 70 265 25 178 c 1,11,-1
 0 194 l 1,12,13
 29 262 29 262 91 320.5 c 128,-1,14
 153 379 153 379 210 387 c 1,15,16
 266 339 266 339 335 305.5 c 128,-1,17
 404 272 404 272 461 272 c 0,0,1
EndSplineSet
EndChar

StartChar: exclamdown
Encoding: 161 161 99
Width: 290
GlyphClass: 2
Flags: W
LayerCount: 2
Fore
SplineSet
67 424 m 1,0,1
 81 445 81 445 109 468.5 c 128,-1,2
 137 492 137 492 161 505 c 1,3,4
 188 493 188 493 215.5 469 c 128,-1,5
 243 445 243 445 256 424 c 1,6,7
 244 402 244 402 214 370.5 c 128,-1,8
 184 339 184 339 161 324 c 1,9,10
 138 340 138 340 108 371 c 128,-1,11
 78 402 78 402 67 424 c 1,0,1
104 -215 m 0,12,13
 100 -215 100 -215 96 -215 c 1,14,15
 57 -192 57 -192 37 -155 c 1,16,17
 78 -43 78 -43 100 40.5 c 128,-1,18
 122 124 122 124 142 244 c 1,19,-1
 188 249 l 1,20,-1
 226 -182 l 1,21,22
 170 -215 170 -215 104 -215 c 0,12,13
EndSplineSet
EndChar

StartChar: cent
Encoding: 162 162 100
Width: 500
GlyphClass: 2
Flags: W
LayerCount: 2
Fore
SplineSet
315 399 m 1,0,-1
 305 109 l 1,1,-1
 315 109 l 2,2,3
 345 109 345 109 376 129.5 c 128,-1,4
 407 150 407 150 424 179 c 1,5,-1
 440 171 l 1,6,7
 390 66 390 66 302 12 c 1,8,-1
 298 -112 l 1,9,-1
 292 -113 l 1,10,11
 273 -111 273 -111 257 -97 c 1,12,13
 263 -50 263 -50 266 0 c 1,14,15
 171 4 171 4 116.5 60.5 c 128,-1,16
 62 117 62 117 62 208 c 128,-1,17
 62 299 62 299 126.5 377 c 128,-1,18
 191 455 191 455 282 498 c 1,19,20
 282 521 282 521 280 583 c 1,21,22
 304 593 304 593 319 607 c 1,23,-1
 325 604 l 1,24,25
 320 549 320 549 319 504 c 1,26,27
 404 500 404 500 467 479 c 1,28,-1
 467 463 l 1,29,30
 418 419 418 419 402.5 389 c 128,-1,31
 387 359 387 359 381 310 c 1,32,-1
 357 310 l 1,33,34
 354 349 354 349 347 374 c 1,35,36
 326 392 326 392 315 399 c 1,0,-1
222 255 m 0,37,38
 222 145 222 145 272 118 c 1,39,40
 272 130 272 130 280 349 c 1,41,-1
 282 414 l 1,42,43
 265 420 265 420 240 424 c 1,44,45
 222 327 222 327 222 255 c 0,37,38
EndSplineSet
EndChar

StartChar: sterling
Encoding: 163 163 101
Width: 500
GlyphClass: 2
Flags: W
LayerCount: 2
Fore
SplineSet
254 281 m 1,0,1
 336 286 336 286 390 296 c 1,2,-1
 396 291 l 1,3,-1
 392 245 l 1,4,-1
 252 234 l 1,5,6
 240 177 240 177 204 127 c 1,7,-1
 204 118 l 1,8,9
 225 131 225 131 237 134 c 1,10,11
 325 134 325 134 420 117 c 1,12,13
 434 142 434 142 444 174 c 1,14,-1
 466 167 l 1,15,16
 454 128 454 128 454 77.5 c 128,-1,17
 454 27 454 27 464 -10 c 1,18,-1
 452 -18 l 1,19,20
 272 19 272 19 110 19 c 1,21,22
 93 3 93 3 77 -25 c 1,23,-1
 54 -15 l 1,24,25
 62 7 62 7 99 69 c 0,26,27
 103 75 103 75 103 97 c 1,28,-1
 95 222 l 1,29,-1
 41 217 l 1,30,-1
 33 223 l 1,31,-1
 36 272 l 1,32,-1
 100 272 l 1,33,34
 118 354 118 354 185.5 428.5 c 128,-1,35
 253 503 253 503 335 538 c 1,36,37
 431 538 431 538 507 511 c 1,38,-1
 507 495 l 1,39,40
 458 453 458 453 442 424.5 c 128,-1,41
 426 396 426 396 419 352 c 1,42,-1
 395 352 l 1,43,44
 393 378 393 378 385 407 c 1,45,46
 339 451 339 451 276 458 c 1,47,48
 255 354 255 354 254 281 c 1,0,1
EndSplineSet
EndChar

StartChar: currency
Encoding: 164 164 102
Width: 567
GlyphClass: 2
Flags: W
LayerCount: 2
Fore
SplineSet
425 490 m 1,0,-1
 500 568 l 1,1,2
 527 559 527 559 567 552 c 1,3,-1
 569 548 l 1,4,5
 513 498 513 498 466 451 c 1,6,7
 496 410 496 410 496 350 c 0,8,9
 496 266 496 266 442 202 c 1,10,11
 510 136 510 136 569 83 c 1,12,-1
 567 79 l 1,13,14
 527 72 527 72 500 63 c 1,15,-1
 402 165 l 1,16,17
 352 129 352 129 289 116 c 1,18,19
 212 116 212 116 156 149 c 1,20,-1
 68 63 l 1,21,-1
 63 63 l 1,22,-1
 50 76 l 2,23,24
 26 100 26 100 25 110 c 1,25,26
 47 129 47 129 113 188 c 1,27,28
 81 230 81 230 81 286 c 0,29,30
 81 365 81 365 130 427 c 1,31,32
 71 481 71 481 25 521 c 1,33,34
 26 532 26 532 44 549 c 2,35,-1
 63 568 l 1,36,-1
 68 568 l 1,37,-1
 171 468 l 1,38,39
 223 509 223 509 301 523 c 1,40,41
 373 523 373 523 425 490 c 1,0,-1
373 412.5 m 128,-1,43
 340 450 340 450 283 450 c 128,-1,44
 226 450 226 450 199 429 c 1,45,46
 171 384 171 384 171 325 c 128,-1,47
 171 266 171 266 204.5 227.5 c 128,-1,48
 238 189 238 189 295.5 189 c 128,-1,49
 353 189 353 189 379 209 c 1,50,51
 406 253 406 253 406 314 c 128,-1,42
 406 375 406 375 373 412.5 c 128,-1,43
EndSplineSet
EndChar

StartChar: yen
Encoding: 165 165 103
Width: 500
GlyphClass: 2
Flags: W
LayerCount: 2
Fore
SplineSet
295 286 m 1,0,1
 342 454 342 454 342 480 c 128,-1,2
 342 506 342 506 324 514 c 1,3,-1
 327 530 l 1,4,5
 381 523 381 523 425 523 c 128,-1,6
 469 523 469 523 520 531 c 1,7,-1
 524 508 l 1,8,9
 507 498 507 498 476 492 c 1,10,-1
 333 263 l 1,11,-1
 333 248 l 1,12,13
 403 250 403 250 434 252 c 1,14,15
 444 221 444 221 444 220 c 2,16,-1
 444 214 l 1,17,-1
 334 214 l 1,18,-1
 334 178 l 1,19,20
 404 180 404 180 437 182 c 1,21,22
 447 151 447 151 447 150 c 2,23,-1
 447 144 l 1,24,-1
 335 144 l 1,25,26
 337 76 337 76 344 34 c 1,27,28
 376 28 376 28 410 12 c 1,29,-1
 407 -7 l 1,30,31
 359 0 359 0 256.5 0 c 128,-1,32
 154 0 154 0 110 -7 c 1,33,-1
 106 15 l 1,34,35
 118 22 118 22 171 36 c 1,36,37
 177 84 177 84 179 140 c 1,38,-1
 60 135 l 1,39,-1
 57 141 l 1,40,41
 63 151 63 151 64.5 162.5 c 128,-1,42
 66 174 66 174 67 177 c 1,43,-1
 180 177 l 1,44,-1
 180 210 l 1,45,-1
 64 205 l 1,46,-1
 61 211 l 1,47,48
 67 221 67 221 68.5 232.5 c 128,-1,49
 70 244 70 244 71 247 c 1,50,-1
 177 247 l 1,51,52
 106 397 106 397 83 436.5 c 128,-1,53
 60 476 60 476 40 493 c 1,54,55
 -1 502 -1 502 -10 507 c 1,56,-1
 -6 531 l 1,57,58
 60 523 60 523 133 523 c 128,-1,59
 206 523 206 523 267 531 c 1,60,-1
 271 508 l 1,61,62
 258 501 258 501 221 494 c 1,63,64
 227 477 227 477 242 429 c 0,65,66
 272 330 272 330 295 286 c 1,0,1
EndSplineSet
EndChar

StartChar: brokenbar
Encoding: 166 166 104
Width: 245
GlyphClass: 2
Flags: W
LayerCount: 2
Fore
SplineSet
156 340 m 1,0,-1
 101 323 l 1,1,-1
 94 326 l 1,2,3
 93 508 93 508 87 725 c 1,4,5
 92 727 92 727 107 732 c 0,6,7
 144 746 144 746 153 752 c 1,8,-1
 158 751 l 1,9,10
 156 609 156 609 156 340 c 1,0,-1
156 -198 m 1,11,-1
 101 -215 l 1,12,-1
 94 -212 l 1,13,14
 93 -30 93 -30 87 187 c 1,15,16
 92 189 92 189 107 194 c 0,17,18
 144 208 144 208 153 214 c 1,19,-1
 158 213 l 1,20,21
 156 71 156 71 156 -198 c 1,11,-1
EndSplineSet
EndChar

StartChar: section
Encoding: 167 167 105
Width: 472
GlyphClass: 2
Flags: W
LayerCount: 2
Fore
SplineSet
336 222 m 0,0,1
 336 260 336 260 294 295.5 c 128,-1,2
 252 331 252 331 202 355 c 128,-1,3
 152 379 152 379 110 414.5 c 128,-1,4
 68 450 68 450 68 488 c 1,5,6
 144 614 144 614 263 666 c 1,7,8
 365 666 365 666 433 643 c 1,9,-1
 433 627 l 1,10,11
 386 580 386 580 370 523 c 1,12,-1
 360 521 l 1,13,14
 281 585 281 585 219 585 c 0,15,16
 200 585 200 585 188 573 c 128,-1,17
 176 561 176 561 176 539.5 c 128,-1,18
 176 518 176 518 218 488.5 c 128,-1,19
 260 459 260 459 310 435 c 128,-1,20
 360 411 360 411 402 375.5 c 128,-1,21
 444 340 444 340 444 305 c 1,22,23
 414 227 414 227 355 165 c 1,24,-1
 328 184 l 1,25,26
 336 199 336 199 336 222 c 0,0,1
253 -36 m 0,27,28
 272 -36 272 -36 284 -24 c 128,-1,29
 296 -12 296 -12 296 9.5 c 128,-1,30
 296 31 296 31 254 60.5 c 128,-1,31
 212 90 212 90 162 114 c 128,-1,32
 112 138 112 138 70 173.5 c 128,-1,33
 28 209 28 209 28 244 c 1,34,35
 58 322 58 322 117 384 c 1,36,-1
 144 365 l 1,37,38
 135 348 135 348 137 322 c 128,-1,39
 139 296 139 296 167.5 267.5 c 128,-1,40
 196 239 196 239 235 216.5 c 128,-1,41
 274 194 274 194 312.5 171.5 c 128,-1,42
 351 149 351 149 377.5 120.5 c 128,-1,43
 404 92 404 92 404 61 c 1,44,45
 328 -65 328 -65 209 -117 c 1,46,47
 107 -117 107 -117 39 -94 c 1,48,-1
 39 -78 l 1,49,50
 86 -31 86 -31 102 26 c 1,51,-1
 112 28 l 1,52,53
 191 -36 191 -36 253 -36 c 0,27,28
EndSplineSet
EndChar

StartChar: dieresis
Encoding: 168 168 106
Width: 401
GlyphClass: 2
Flags: W
LayerCount: 2
Fore
SplineSet
179 641 m 1,0,1
 169 620 169 620 140.5 590.5 c 128,-1,2
 112 561 112 561 90 546 c 1,3,4
 68 561 68 561 39.5 590.5 c 128,-1,5
 11 620 11 620 0 641 c 1,6,7
 12 661 12 661 38.5 683.5 c 128,-1,8
 65 706 65 706 90 717 c 1,9,10
 113 705 113 705 139.5 682.5 c 128,-1,11
 166 660 166 660 179 641 c 1,0,1
401 641 m 1,12,13
 391 620 391 620 362.5 590.5 c 128,-1,14
 334 561 334 561 312 546 c 1,15,16
 290 561 290 561 261.5 590.5 c 128,-1,17
 233 620 233 620 222 641 c 1,18,19
 234 661 234 661 260.5 683.5 c 128,-1,20
 287 706 287 706 312 717 c 1,21,22
 335 705 335 705 361.5 682.5 c 128,-1,23
 388 660 388 660 401 641 c 1,12,13
EndSplineSet
EndChar

StartChar: copyright
Encoding: 169 169 107
Width: 765
GlyphClass: 2
Flags: W
LayerCount: 2
Fore
SplineSet
42 325 m 128,-1,1
 42 466 42 466 141.5 566 c 128,-1,2
 241 666 241 666 382 666 c 128,-1,3
 523 666 523 666 623 566 c 128,-1,4
 723 466 723 466 723 325 c 128,-1,5
 723 184 723 184 623 84.5 c 128,-1,6
 523 -15 523 -15 382 -15 c 128,-1,7
 241 -15 241 -15 141.5 84.5 c 128,-1,0
 42 184 42 184 42 325 c 128,-1,1
179 530 m 128,-1,9
 95 445 95 445 95 325.5 c 128,-1,10
 95 206 95 206 179 121 c 128,-1,11
 263 36 263 36 382 36 c 128,-1,12
 501 36 501 36 585.5 121 c 128,-1,13
 670 206 670 206 670 325 c 128,-1,14
 670 444 670 444 585.5 529.5 c 128,-1,15
 501 615 501 615 382 615 c 128,-1,8
 263 615 263 615 179 530 c 128,-1,9
397 185 m 0,16,17
 439 185 439 185 489 221 c 1,18,-1
 501 210 l 1,19,20
 451 146 451 146 378 119 c 1,21,22
 202 119 202 119 202 287 c 0,23,24
 202 373 202 373 254.5 437.5 c 128,-1,25
 307 502 307 502 395 531 c 1,26,27
 460 531 460 531 523 519 c 1,28,-1
 522 501 l 1,29,30
 506 501 506 501 492 495 c 1,31,32
 477 451 477 451 477 397 c 1,33,-1
 459 397 l 1,34,35
 450 425 450 425 449 448 c 1,36,37
 421 474 421 474 388 474 c 128,-1,38
 355 474 355 474 344 464 c 1,39,40
 324 417 324 417 324 334 c 0,41,42
 324 221 324 221 356 197 c 0,43,44
 372 185 372 185 397 185 c 0,16,17
EndSplineSet
EndChar

StartChar: ordfeminine
Encoding: 170 170 108
Width: 451
GlyphClass: 2
Flags: W
LayerCount: 2
Fore
SplineSet
62.5 308 m 128,-1,1
 24 357 24 357 24 428.5 c 128,-1,2
 24 500 24 500 81 566 c 128,-1,3
 138 632 138 632 221 666 c 1,4,5
 283 666 283 666 358 644 c 1,6,7
 376 666 376 666 385 693 c 1,8,-1
 406 687 l 1,9,10
 388 610 388 610 388 429 c 0,11,12
 388 350 388 350 395 302 c 1,13,14
 417 292 417 292 439 292 c 1,15,-1
 439 274 l 1,16,17
 348 274 348 274 256 259 c 1,18,-1
 251 265 l 1,19,20
 266 330 266 330 266 391 c 1,21,-1
 259 392 l 1,22,23
 231 317 231 317 161 259 c 1,24,0
 101 259 101 259 62.5 308 c 128,-1,1
176 595 m 1,25,26
 163 542 163 542 163 449 c 128,-1,27
 163 356 163 356 189 356 c 0,28,29
 201 356 201 356 219 379.5 c 128,-1,30
 237 403 237 403 253 448 c 1,31,32
 253 528 253 528 251 576 c 1,33,34
 234 599 234 599 203 599 c 0,35,36
 188 599 188 599 176 595 c 1,25,26
EndSplineSet
EndChar

StartChar: guillemotleft
Encoding: 171 171 109
Width: 491
GlyphClass: 2
Flags: W
LayerCount: 2
Fore
SplineSet
143 297 m 1,0,-1
 256 89 l 1,1,-1
 236 75 l 1,2,3
 220 92 220 92 185.5 132 c 128,-1,4
 151 172 151 172 133 192 c 0,5,6
 79 251 79 251 28 283 c 1,7,-1
 28 303 l 1,8,9
 70 327 70 327 97.5 354.5 c 128,-1,10
 125 382 125 382 134 390.5 c 128,-1,11
 143 399 143 399 160.5 418.5 c 128,-1,12
 178 438 178 438 184 445 c 0,13,14
 215 478 215 478 236 503 c 1,15,-1
 255 490 l 1,16,-1
 143 297 l 1,0,-1
333 297 m 1,17,-1
 446 109 l 1,18,-1
 426 95 l 1,19,20
 408 112 408 112 375 145.5 c 128,-1,21
 342 179 342 179 323 198 c 0,22,23
 269 250 269 250 218 283 c 1,24,-1
 218 303 l 1,25,26
 253 325 253 325 275.5 343.5 c 128,-1,27
 298 362 298 362 309 371 c 128,-1,28
 320 380 320 380 340 399 c 128,-1,29
 360 418 360 418 367 425 c 128,-1,30
 374 432 374 432 397.5 455 c 128,-1,31
 421 478 421 478 426 483 c 1,32,-1
 445 470 l 1,33,-1
 333 297 l 1,17,-1
EndSplineSet
EndChar

StartChar: logicalnot
Encoding: 172 172 110
Width: 576
GlyphClass: 2
Flags: W
LayerCount: 2
Fore
SplineSet
450 228 m 1,0,-1
 62 228 l 1,1,-1
 54 235 l 1,2,-1
 63 301 l 1,3,4
 233 292 233 292 352.5 292 c 128,-1,5
 472 292 472 292 511 295 c 1,6,-1
 517 289 l 1,7,8
 517 220 517 220 522 88 c 1,9,-1
 517 82 l 1,10,-1
 450 91 l 1,11,-1
 450 228 l 1,0,-1
EndSplineSet
EndChar

StartChar: registered
Encoding: 174 174 111
Width: 434
GlyphClass: 2
Flags: W
LayerCount: 2
Fore
SplineSet
21 500 m 128,-1,1
 21 582 21 582 78 639 c 128,-1,2
 135 696 135 696 217 696 c 128,-1,3
 299 696 299 696 356 639 c 128,-1,4
 413 582 413 582 413 500 c 128,-1,5
 413 418 413 418 356 361 c 128,-1,6
 299 304 299 304 217 304 c 128,-1,7
 135 304 135 304 78 361 c 128,-1,0
 21 418 21 418 21 500 c 128,-1,1
62 500 m 128,-1,9
 62 435 62 435 107 389 c 128,-1,10
 152 343 152 343 217 343 c 128,-1,11
 282 343 282 343 326 388.5 c 128,-1,12
 370 434 370 434 370 499.5 c 128,-1,13
 370 565 370 565 326 610 c 128,-1,14
 282 655 282 655 217 655 c 128,-1,15
 152 655 152 655 107 610 c 128,-1,8
 62 565 62 565 62 500 c 128,-1,9
125 606 m 1,16,-1
 222 608 l 2,17,18
 259 608 259 608 278 597.5 c 128,-1,19
 297 587 297 587 297 555.5 c 128,-1,20
 297 524 297 524 262 506 c 1,21,-1
 305 419 l 1,22,23
 315 416 315 416 322 413 c 1,24,-1
 320 404 l 1,25,26
 302 407 302 407 279.5 407 c 128,-1,27
 257 407 257 407 237 405 c 1,28,-1
 236 411 l 1,29,30
 242 419 242 419 242 436.5 c 128,-1,31
 242 454 242 454 227 499 c 1,32,-1
 211 499 l 1,33,-1
 212 514 l 1,34,-1
 215 514 l 2,35,36
 238 514 238 514 238 552 c 128,-1,37
 238 590 238 590 217 590 c 0,38,39
 211 590 211 590 205 588 c 1,40,41
 202 568 202 568 202 503 c 128,-1,42
 202 438 202 438 206 418 c 1,43,44
 221 414 221 414 224 413 c 1,45,-1
 223 404 l 1,46,47
 198 407 198 407 173 407 c 128,-1,48
 148 407 148 407 127 404 c 1,49,-1
 126 413 l 1,50,-1
 142 419 l 1,51,52
 146 455 146 455 146 497.5 c 128,-1,53
 146 540 146 540 142 592 c 1,54,55
 132 597 132 597 125 597 c 1,56,-1
 125 606 l 1,16,-1
EndSplineSet
EndChar

StartChar: macron
Encoding: 175 175 112
Width: 323
GlyphClass: 2
Flags: W
LayerCount: 2
Fore
SplineSet
57 689 m 2,0,1
 123 685 123 685 190.5 685 c 128,-1,2
 258 685 258 685 315 690 c 1,3,-1
 323 685 l 1,4,-1
 311 605 l 1,5,-1
 9 602 l 1,6,-1
 0 608 l 1,7,-1
 12 692 l 1,8,-1
 57 689 l 2,0,1
EndSplineSet
EndChar

StartChar: degree
Encoding: 176 176 113
Width: 367
GlyphClass: 2
Flags: W
LayerCount: 2
Fore
SplineSet
85 425.5 m 128,-1,1
 45 455 45 455 45 512.5 c 128,-1,2
 45 570 45 570 86.5 613 c 128,-1,3
 128 656 128 656 192 667 c 1,4,5
 250 667 250 667 286 637 c 128,-1,6
 322 607 322 607 322 549.5 c 128,-1,7
 322 492 322 492 284 450.5 c 128,-1,8
 246 409 246 409 184 396 c 1,9,0
 125 396 125 396 85 425.5 c 128,-1,1
174 614 m 0,10,11
 142 614 142 614 127 602 c 1,12,13
 114 574 114 574 114 535.5 c 128,-1,14
 114 497 114 497 134 473 c 128,-1,15
 154 449 154 449 189.5 449 c 128,-1,16
 225 449 225 449 240 461 c 1,17,18
 253 489 253 489 253 525 c 0,19,20
 253 614 253 614 174 614 c 0,10,11
EndSplineSet
EndChar

StartChar: plusminus
Encoding: 177 177 114
Width: 576
GlyphClass: 2
Flags: W
LayerCount: 2
Fore
SplineSet
324 262 m 1,0,1
 324 185 324 185 333 90 c 1,2,-1
 263 86 l 1,3,-1
 253 88 l 1,4,-1
 253 262 l 1,5,-1
 69 262 l 1,6,-1
 61 269 l 1,7,-1
 70 340 l 1,8,9
 192 334 192 334 253 333 c 1,10,-1
 253 486 l 1,11,-1
 324 495 l 1,12,-1
 329 489 l 1,13,14
 324 401 324 401 324 333 c 2,15,-1
 324 332 l 1,16,17
 361 331 361 331 420 331 c 128,-1,18
 479 331 479 331 518 334 c 1,19,-1
 524 328 l 1,20,-1
 515 262 l 1,21,-1
 324 262 l 1,0,1
62 58 m 1,22,23
 232 49 232 49 351.5 49 c 128,-1,24
 471 49 471 49 510 52 c 1,25,-1
 516 46 l 1,26,-1
 507 -10 l 1,27,-1
 61 -10 l 1,28,-1
 53 -3 l 1,29,-1
 62 58 l 1,22,23
EndSplineSet
EndChar

StartChar: twosuperior
Encoding: 178 178 115
Width: 396
GlyphClass: 2
Flags: W
LayerCount: 2
Fore
SplineSet
175 453 m 1,0,1
 188 460 188 460 196 461 c 128,-1,2
 204 462 204 462 231 462 c 128,-1,3
 258 462 258 462 321 454 c 1,4,5
 331 473 331 473 341 501 c 1,6,-1
 362 495 l 1,7,8
 352 462 352 462 352 420 c 128,-1,9
 352 378 352 378 359 346 c 1,10,-1
 349 339 l 1,11,12
 187 369 187 369 70 369 c 1,13,14
 52 361 52 361 34 337 c 1,15,-1
 14 347 l 1,16,17
 38 397 38 397 122 476 c 0,18,19
 149 502 149 502 171 537 c 128,-1,20
 193 572 193 572 193 606 c 0,21,22
 193 652 193 652 143 652 c 0,23,24
 121 652 121 652 112 644 c 1,25,26
 107 632 107 632 107 615.5 c 128,-1,27
 107 599 107 599 116 593 c 1,28,-1
 116 587 l 1,29,30
 89 576 89 576 55 544 c 1,31,32
 32 544 32 544 32 568 c 0,33,34
 32 608 32 608 87 667 c 128,-1,35
 142 726 142 726 186 746 c 1,36,37
 276 746 276 746 310 714.5 c 128,-1,38
 344 683 344 683 344 596 c 1,39,40
 259 517 259 517 171 458 c 1,41,-1
 175 453 l 1,0,1
EndSplineSet
EndChar

StartChar: threesuperior
Encoding: 179 179 116
Width: 380
GlyphClass: 2
Flags: W
LayerCount: 2
Fore
SplineSet
87 497 m 1,0,1
 87 470 87 470 88 455 c 1,2,3
 103 429 103 429 125 412 c 128,-1,4
 147 395 147 395 168 395 c 128,-1,5
 189 395 189 395 197 402 c 1,6,7
 205 425 205 425 205 452 c 0,8,9
 205 525 205 525 132 525 c 1,10,-1
 128 531 l 1,11,-1
 214 631 l 1,12,-1
 212 634 l 1,13,14
 201 629 201 629 193 627 c 1,15,16
 140 627 140 627 90 632 c 1,17,18
 80 614 80 614 74 590 c 1,19,-1
 55 596 l 1,20,21
 62 636 62 636 62 673 c 128,-1,22
 62 710 62 710 53 739 c 1,23,-1
 62 745 l 1,24,25
 187 727 187 727 312 727 c 1,26,27
 323 733 323 733 335 747 c 1,28,-1
 354 733 l 1,29,-1
 232 600 l 1,30,31
 288 595 288 595 322 553.5 c 128,-1,32
 356 512 356 512 356 452 c 1,33,34
 289 383 289 383 166 339 c 1,35,36
 96 339 96 339 32 370 c 1,37,-1
 32 382 l 1,38,39
 63 426 63 426 67 497 c 1,40,-1
 87 497 l 1,0,1
EndSplineSet
EndChar

StartChar: acute
Encoding: 180 180 117
Width: 272
GlyphClass: 2
Flags: W
LayerCount: 2
Fore
SplineSet
199 744 m 1,0,1
 208 747 208 747 224.5 747 c 128,-1,2
 241 747 241 747 247 745 c 1,3,4
 256 730 256 730 263.5 690.5 c 128,-1,5
 271 651 271 651 272 624 c 1,6,-1
 10 527 l 1,7,-1
 0 551 l 1,8,9
 125 619 125 619 199 744 c 1,0,1
EndSplineSet
EndChar

StartChar: mu
Encoding: 181 181 118
AltUni2: 0003bc.ffffffff.0
Width: 529
GlyphClass: 2
Flags: W
LayerCount: 2
Fore
SplineSet
43 193 m 2,0,-1
 43 271 l 2,1,2
 43 423 43 423 28 480 c 1,3,-1
 35 486 l 1,4,5
 131 486 131 486 219 505 c 1,6,-1
 226 498 l 1,7,8
 213 457 213 457 204 377 c 128,-1,9
 195 297 195 297 195 229 c 128,-1,10
 195 161 195 161 201 131 c 128,-1,11
 207 101 207 101 224 101 c 0,12,13
 248 101 248 101 275.5 136 c 128,-1,14
 303 171 303 171 322 227 c 1,15,16
 322 414 322 414 308 486 c 1,17,18
 397 486 397 486 485 505 c 1,19,-1
 499 497 l 1,20,21
 493 472 493 472 489 452 c 0,22,23
 475 382 475 382 475 168 c 1,24,25
 477 90 477 90 483 40 c 1,26,27
 507 29 507 29 539 27 c 1,28,-1
 539 5 l 1,29,30
 430 5 430 5 318 -15 c 1,31,-1
 311 -8 l 1,32,33
 330 74 330 74 330 159 c 1,34,-1
 320 160 l 1,35,36
 300 109 300 109 265 60 c 128,-1,37
 230 11 230 11 190 -15 c 1,38,-1
 148 -6 l 1,39,40
 149 -109 149 -109 168 -180 c 1,41,-1
 161 -186 l 1,42,43
 101 -190 101 -190 24 -215 c 1,44,-1
 17 -208 l 1,45,46
 36 -51 36 -51 39.5 33.5 c 128,-1,47
 43 118 43 118 43 193 c 2,0,-1
EndSplineSet
EndChar

StartChar: paragraph
Encoding: 182 182 119
Width: 588
GlyphClass: 2
Flags: W
LayerCount: 2
Fore
SplineSet
348 651 m 1,0,1
 331 532 331 532 331 325 c 2,2,-1
 331 181 l 2,3,4
 331 34 331 34 276.5 -40.5 c 128,-1,5
 222 -115 222 -115 136 -115 c 0,6,7
 85 -115 85 -115 85 -88 c 1,8,9
 118 -56 118 -56 142 -18 c 1,10,-1
 149 -17 l 1,11,12
 162 -29 162 -29 194 -29 c 128,-1,13
 226 -29 226 -29 245 -20 c 1,14,15
 267 41 267 41 267 131 c 2,16,-1
 267 296 l 1,17,18
 255 295 255 295 233 295 c 0,19,20
 128 295 128 295 61.5 359 c 128,-1,21
 -5 423 -5 423 -5 496 c 128,-1,22
 -5 569 -5 569 46 613.5 c 128,-1,23
 97 658 97 658 196 658 c 0,24,25
 210 658 210 658 348 651 c 1,0,1
379.5 90.5 m 128,-1,27
 383 146 383 146 383 350.5 c 128,-1,28
 383 555 383 555 395 649 c 1,29,30
 438 645 438 645 531 645 c 2,31,-1
 567 645 l 1,32,-1
 567 620 l 1,33,34
 538 620 538 620 490 604 c 1,35,36
 478 502 478 502 478 314 c 128,-1,37
 478 126 478 126 491 38 c 1,38,39
 506 36 506 36 566 17 c 1,40,-1
 562 -8 l 1,41,42
 501 0 501 0 444.5 0 c 128,-1,43
 388 0 388 0 368 -1 c 1,44,-1
 366 3 l 1,45,26
 376 35 376 35 379.5 90.5 c 128,-1,27
EndSplineSet
EndChar

StartChar: periodcentered
Encoding: 183 183 120
Width: 257
GlyphClass: 2
Flags: W
LayerCount: 2
Fore
SplineSet
223 285 m 1,0,1
 212 263 212 263 182 232 c 128,-1,2
 152 201 152 201 129 185 c 1,3,4
 106 200 106 200 76 231.5 c 128,-1,5
 46 263 46 263 34 285 c 1,6,7
 47 306 47 306 74.5 330 c 128,-1,8
 102 354 102 354 129 366 c 1,9,10
 153 353 153 353 181 329.5 c 128,-1,11
 209 306 209 306 223 285 c 1,0,1
EndSplineSet
EndChar

StartChar: cedilla
Encoding: 184 184 121
Width: 220
GlyphClass: 2
Flags: W
LayerCount: 2
Fore
SplineSet
108 -175 m 0,0,1
 125 -175 125 -175 137 -170 c 1,2,3
 143 -160 143 -160 143 -147 c 0,4,5
 143 -107 143 -107 54 -107 c 1,6,-1
 48 -103 l 1,7,-1
 86 14 l 1,8,-1
 125 16 l 1,9,-1
 102 -36 l 1,10,-1
 106 -39 l 1,11,12
 220 -39 220 -39 220 -116 c 1,13,14
 181 -191 181 -191 98 -235 c 1,15,16
 44 -235 44 -235 0 -214 c 1,17,18
 27 -173 27 -173 36 -138 c 1,19,-1
 40 -136 l 1,20,21
 64 -175 64 -175 108 -175 c 0,0,1
EndSplineSet
EndChar

StartChar: onesuperior
Encoding: 185 185 122
Width: 316
GlyphClass: 2
Flags: W
LayerCount: 2
Fore
SplineSet
82 380 m 1,0,1
 90 449 90 449 90 518.5 c 128,-1,2
 90 588 90 588 87 635 c 1,3,-1
 26 635 l 1,4,-1
 24 637 l 1,5,6
 24 652 24 652 27 661 c 1,7,8
 72 670 72 670 119.5 692.5 c 128,-1,9
 167 715 167 715 197 743 c 1,10,11
 215 746 215 746 233 746 c 1,12,-1
 236 744 l 1,13,14
 225 663 225 663 225 545.5 c 128,-1,15
 225 428 225 428 231 382 c 1,16,17
 249 376 249 376 276 364 c 1,18,-1
 273 341 l 1,19,20
 205 352 205 352 145 352 c 128,-1,21
 85 352 85 352 34 341 c 1,22,-1
 32 364 l 1,23,24
 57 375 57 375 82 380 c 1,0,1
EndSplineSet
EndChar

StartChar: ordmasculine
Encoding: 186 186 123
Width: 425
GlyphClass: 2
Flags: W
LayerCount: 2
Fore
SplineSet
24 426 m 128,-1,1
 24 502 24 502 82 567.5 c 128,-1,2
 140 633 140 633 222 666 c 1,3,4
 311 666 311 666 356 623 c 128,-1,5
 401 580 401 580 401 501 c 128,-1,6
 401 422 401 422 347 356.5 c 128,-1,7
 293 291 293 291 213 259 c 1,8,9
 127 259 127 259 75.5 304.5 c 128,-1,0
 24 350 24 350 24 426 c 128,-1,1
239 581 m 128,-1,11
 227 602 227 602 208.5 602 c 128,-1,12
 190 602 190 602 179 595 c 1,13,14
 167 544 167 544 167 471 c 128,-1,15
 167 398 167 398 178 360.5 c 128,-1,16
 189 323 189 323 221 323 c 0,17,18
 236 323 236 323 246 330 c 1,19,20
 258 381 258 381 258 441.5 c 128,-1,21
 258 502 258 502 254.5 531 c 128,-1,10
 251 560 251 560 239 581 c 128,-1,11
EndSplineSet
EndChar

StartChar: guillemotright
Encoding: 187 187 124
Width: 491
GlyphClass: 2
Flags: W
LayerCount: 2
Fore
SplineSet
235 89 m 1,0,-1
 348 297 l 1,1,-1
 236 490 l 1,2,-1
 255 503 l 1,3,4
 276 478 276 478 294.5 458 c 128,-1,5
 313 438 313 438 330.5 418.5 c 128,-1,6
 348 399 348 399 357 390.5 c 128,-1,7
 366 382 366 382 381.5 366.5 c 128,-1,8
 397 351 397 351 408 342 c 0,9,10
 446 313 446 313 463 303 c 1,11,-1
 463 283 l 1,12,13
 412 251 412 251 358 192 c 0,14,15
 340 172 340 172 305.5 132 c 128,-1,16
 271 92 271 92 255 75 c 1,17,-1
 235 89 l 1,0,-1
45 109 m 1,18,-1
 158 297 l 1,19,-1
 46 470 l 1,20,-1
 65 483 l 1,21,22
 70 478 70 478 93.5 455 c 128,-1,23
 117 432 117 432 124 425 c 128,-1,24
 131 418 131 418 151 399 c 128,-1,25
 171 380 171 380 182 371 c 128,-1,26
 193 362 193 362 210 348 c 0,27,28
 238 325 238 325 273 303 c 1,29,-1
 273 283 l 1,30,31
 222 250 222 250 185.5 214.5 c 128,-1,32
 149 179 149 179 116 145.5 c 128,-1,33
 83 112 83 112 65 95 c 1,34,-1
 45 109 l 1,18,-1
EndSplineSet
EndChar

StartChar: onequarter
Encoding: 188 188 125
Width: 850
GlyphClass: 2
Flags: W
LayerCount: 2
Fore
SplineSet
740 262 m 2,0,-1
 740 165 l 1,1,2
 795 165 795 165 806 197 c 1,3,-1
 820 193 l 1,4,5
 814 166 814 166 814 137 c 128,-1,6
 814 108 814 108 815 90 c 1,7,-1
 811 88 l 1,8,9
 787 90 787 90 741 90 c 1,10,11
 741 67 741 67 746 42 c 1,12,13
 755 37 755 37 792 27 c 1,14,-1
 788 4 l 1,15,16
 735 12 735 12 662 12 c 128,-1,17
 589 12 589 12 547 2 c 1,18,-1
 544 23 l 1,19,20
 570 34 570 34 599 40 c 1,21,22
 604 69 604 69 604 90 c 1,23,-1
 435 90 l 1,24,-1
 428 126 l 1,25,26
 533 246 533 246 602 386 c 1,27,28
 693 394 693 394 740 406 c 1,29,-1
 749 403 l 1,30,31
 740 355 740 355 740 262 c 2,0,-1
92 300 m 1,32,33
 100 369 100 369 100 438.5 c 128,-1,34
 100 508 100 508 97 555 c 1,35,-1
 36 555 l 1,36,-1
 34 557 l 1,37,38
 34 572 34 572 37 581 c 1,39,40
 82 590 82 590 129.5 612.5 c 128,-1,41
 177 635 177 635 207 663 c 1,42,43
 225 666 225 666 243 666 c 1,44,-1
 246 664 l 1,45,46
 235 583 235 583 235 465.5 c 128,-1,47
 235 348 235 348 241 302 c 1,48,49
 259 296 259 296 286 284 c 1,50,-1
 283 261 l 1,51,52
 215 272 215 272 155 272 c 128,-1,53
 95 272 95 272 44 261 c 1,54,-1
 42 284 l 1,55,56
 67 295 67 295 92 300 c 1,32,33
169 -42 m 1,57,58
 155 -39 155 -39 139.5 -23.5 c 128,-1,59
 124 -8 124 -8 121 -1 c 1,60,61
 214 117 214 117 246 160 c 2,62,-1
 500 511 l 2,63,64
 559 593 559 593 632 704 c 1,65,66
 649 700 649 700 699 697 c 1,67,-1
 703 694 l 1,68,69
 671 654 671 654 567 510 c 2,70,-1
 169 -42 l 1,57,58
601 310 m 1,71,72
 567 228 567 228 526 172 c 1,73,74
 561 166 561 166 604 166 c 1,75,-1
 606 310 l 1,76,-1
 601 310 l 1,71,72
EndSplineSet
EndChar

StartChar: onehalf
Encoding: 189 189 126
Width: 850
GlyphClass: 2
Flags: W
LayerCount: 2
Fore
SplineSet
169 -42 m 1,0,1
 155 -39 155 -39 139.5 -23.5 c 128,-1,2
 124 -8 124 -8 121 -1 c 1,3,4
 214 117 214 117 246 160 c 2,5,-1
 500 511 l 2,6,7
 559 593 559 593 632 704 c 1,8,9
 649 700 649 700 699 697 c 1,10,-1
 703 694 l 1,11,12
 671 654 671 654 567 510 c 2,13,-1
 169 -42 l 1,0,1
95 300 m 1,14,15
 103 369 103 369 103 438.5 c 128,-1,16
 103 508 103 508 100 555 c 1,17,-1
 39 555 l 1,18,-1
 37 557 l 1,19,20
 37 572 37 572 40 581 c 1,21,22
 87 591 87 591 139 613.5 c 128,-1,23
 191 636 191 636 220 663 c 1,24,25
 238 666 238 666 256 666 c 1,26,-1
 259 664 l 1,27,28
 248 583 248 583 248 465.5 c 128,-1,29
 248 348 248 348 254 302 c 1,30,31
 272 296 272 296 299 284 c 1,32,-1
 296 261 l 1,33,34
 228 272 228 272 163 272 c 128,-1,35
 98 272 98 272 47 261 c 1,36,-1
 45 284 l 1,37,38
 70 295 70 295 95 300 c 1,14,15
618 114 m 1,39,40
 631 121 631 121 639 122 c 128,-1,41
 647 123 647 123 674 123 c 128,-1,42
 701 123 701 123 764 115 c 1,43,44
 774 134 774 134 784 162 c 1,45,-1
 805 156 l 1,46,47
 795 123 795 123 795 80.5 c 128,-1,48
 795 38 795 38 802 7 c 1,49,-1
 792 0 l 1,50,51
 630 30 630 30 513 30 c 1,52,53
 495 22 495 22 477 -2 c 1,54,-1
 457 8 l 1,55,56
 481 58 481 58 564 137 c 0,57,58
 592 163 592 163 614 198 c 128,-1,59
 636 233 636 233 636 267 c 0,60,61
 636 313 636 313 586 313 c 0,62,63
 564 313 564 313 555 305 c 1,64,65
 550 293 550 293 550 276.5 c 128,-1,66
 550 260 550 260 559 254 c 1,67,-1
 559 248 l 1,68,69
 532 237 532 237 498 205 c 1,70,71
 475 205 475 205 475 229 c 0,72,73
 475 269 475 269 530 328 c 128,-1,74
 585 387 585 387 629 407 c 1,75,76
 719 407 719 407 753 375.5 c 128,-1,77
 787 344 787 344 787 257 c 1,78,79
 702 178 702 178 614 119 c 1,80,-1
 618 114 l 1,39,40
EndSplineSet
EndChar

StartChar: threequarters
Encoding: 190 190 127
Width: 850
GlyphClass: 2
Flags: W
LayerCount: 2
Fore
SplineSet
740 262 m 2,0,-1
 740 165 l 1,1,2
 795 165 795 165 806 197 c 1,3,-1
 820 193 l 1,4,5
 814 166 814 166 814 137 c 128,-1,6
 814 108 814 108 815 90 c 1,7,-1
 811 88 l 1,8,9
 787 90 787 90 741 90 c 1,10,11
 741 67 741 67 746 42 c 1,12,13
 755 37 755 37 792 27 c 1,14,-1
 788 4 l 1,15,16
 735 12 735 12 662 12 c 128,-1,17
 589 12 589 12 547 2 c 1,18,-1
 544 23 l 1,19,20
 570 34 570 34 599 40 c 1,21,22
 604 69 604 69 604 90 c 1,23,-1
 435 90 l 1,24,-1
 428 126 l 1,25,26
 533 246 533 246 602 386 c 1,27,28
 693 394 693 394 740 406 c 1,29,-1
 749 403 l 1,30,31
 740 355 740 355 740 262 c 2,0,-1
97 417 m 1,32,33
 97 390 97 390 98 375 c 1,34,35
 113 349 113 349 135 332 c 128,-1,36
 157 315 157 315 178 315 c 128,-1,37
 199 315 199 315 207 322 c 1,38,39
 215 345 215 345 215 372 c 0,40,41
 215 445 215 445 142 445 c 1,42,-1
 138 451 l 1,43,-1
 224 551 l 1,44,-1
 222 554 l 1,45,46
 211 549 211 549 203 547 c 1,47,48
 150 547 150 547 100 552 c 1,49,50
 90 534 90 534 84 510 c 1,51,-1
 65 516 l 1,52,53
 72 556 72 556 72 593 c 128,-1,54
 72 630 72 630 63 659 c 1,55,-1
 72 665 l 1,56,57
 197 647 197 647 322 647 c 1,58,59
 333 653 333 653 345 667 c 1,60,-1
 364 653 l 1,61,-1
 242 520 l 1,62,63
 298 515 298 515 332 473.5 c 128,-1,64
 366 432 366 432 366 372 c 1,65,66
 299 303 299 303 176 259 c 1,67,68
 106 259 106 259 42 290 c 1,69,-1
 42 302 l 1,70,71
 73 346 73 346 77 417 c 1,72,-1
 97 417 l 1,32,33
169 -42 m 1,73,74
 155 -39 155 -39 139.5 -23.5 c 128,-1,75
 124 -8 124 -8 121 -1 c 1,76,77
 214 117 214 117 246 160 c 2,78,-1
 500 511 l 2,79,80
 559 593 559 593 632 704 c 1,81,82
 649 700 649 700 699 697 c 1,83,-1
 703 694 l 1,84,85
 671 654 671 654 567 510 c 2,86,-1
 169 -42 l 1,73,74
601 310 m 1,87,88
 567 228 567 228 526 172 c 1,89,90
 561 166 561 166 604 166 c 1,91,-1
 606 310 l 1,92,-1
 601 310 l 1,87,88
EndSplineSet
EndChar

StartChar: questiondown
Encoding: 191 191 128
Width: 351
GlyphClass: 2
Flags: W
LayerCount: 2
Fore
SplineSet
90 430 m 1,0,1
 104 451 104 451 132 474.5 c 128,-1,2
 160 498 160 498 184 511 c 1,3,4
 211 499 211 499 238.5 475 c 128,-1,5
 266 451 266 451 279 430 c 1,6,7
 267 408 267 408 237 376.5 c 128,-1,8
 207 345 207 345 184 330 c 1,9,10
 161 346 161 346 131 377 c 128,-1,11
 101 408 101 408 90 430 c 1,0,1
146 -79 m 0,12,13
 146 -141 146 -141 204 -141 c 0,14,15
 225 -141 225 -141 246 -133 c 1,16,17
 254 -111 254 -111 254 -83.5 c 128,-1,18
 254 -56 254 -56 243 -46 c 1,19,-1
 244 -39 l 1,20,21
 297 -20 297 -20 332 11 c 1,22,23
 358 9 358 9 358 -18 c 0,24,25
 358 -79 358 -79 295.5 -139.5 c 128,-1,26
 233 -200 233 -200 166 -215 c 1,27,28
 80 -215 80 -215 25 -174 c 128,-1,29
 -30 -133 -30 -133 -30 -56 c 1,30,31
 25 18 25 18 141 104 c 1,32,33
 159 214 159 214 163 247 c 1,34,-1
 211 252 l 1,35,-1
 233 122 l 1,36,-1
 233 103 l 1,37,38
 146 31 146 31 146 -79 c 0,12,13
EndSplineSet
EndChar

StartChar: Agrave
Encoding: 192 192 129
Width: 644
GlyphClass: 2
Flags: W
LayerCount: 2
Fore
SplineSet
130 662 m 1,0,1
 217 651 217 651 352.5 651 c 128,-1,2
 488 651 488 651 593 662 c 1,3,-1
 597 636 l 1,4,5
 576 626 576 626 547 619 c 1,6,7
 534 536 534 536 534 332.5 c 128,-1,8
 534 129 534 129 548 34 c 1,9,10
 587 27 587 27 608 17 c 1,11,-1
 605 -9 l 1,12,13
 533 0 533 0 448.5 0 c 128,-1,14
 364 0 364 0 304 -9 c 1,15,-1
 300 18 l 1,16,17
 322 30 322 30 356 37 c 1,18,19
 364 101 364 101 368 230 c 1,20,21
 341 234 341 234 293.5 234 c 128,-1,22
 246 234 246 234 213 229 c 1,23,24
 198 132 198 132 198 96 c 128,-1,25
 198 60 198 60 206.5 39.5 c 128,-1,26
 215 19 215 19 240 9 c 1,27,-1
 237 -7 l 1,28,29
 183 0 183 0 108.5 0 c 128,-1,30
 34 0 34 0 -20 -9 c 1,31,-1
 -24 18 l 1,32,33
 -4 29 -4 29 32 37 c 1,34,-1
 184 614 l 1,35,36
 154 622 154 622 125 636 c 1,37,-1
 130 662 l 1,0,1
369 326 m 2,38,39
 369 500 369 500 358 593 c 1,40,41
 346 598 346 598 319 598 c 128,-1,42
 292 598 292 598 274 593 c 1,43,-1
 223 301 l 1,44,45
 259 297 259 297 300.5 297 c 128,-1,46
 342 297 342 297 369 301 c 1,47,-1
 369 326 l 2,38,39
172 893 m 1,48,49
 179 896 179 896 194.5 896 c 128,-1,50
 210 896 210 896 220 893 c 1,51,52
 276 808 276 808 419 741 c 1,53,-1
 409 717 l 1,54,-1
 147 783 l 1,55,56
 148 809 148 809 155.5 843 c 128,-1,57
 163 877 163 877 172 893 c 1,48,49
EndSplineSet
EndChar

StartChar: Aacute
Encoding: 193 193 130
Width: 644
GlyphClass: 2
Flags: W
LayerCount: 2
Fore
SplineSet
130 662 m 1,0,1
 217 651 217 651 352.5 651 c 128,-1,2
 488 651 488 651 593 662 c 1,3,-1
 597 636 l 1,4,5
 576 626 576 626 547 619 c 1,6,7
 534 536 534 536 534 332.5 c 128,-1,8
 534 129 534 129 548 34 c 1,9,10
 587 27 587 27 608 17 c 1,11,-1
 605 -9 l 1,12,13
 533 0 533 0 448.5 0 c 128,-1,14
 364 0 364 0 304 -9 c 1,15,-1
 300 18 l 1,16,17
 322 30 322 30 356 37 c 1,18,19
 364 101 364 101 368 230 c 1,20,21
 341 234 341 234 293.5 234 c 128,-1,22
 246 234 246 234 213 229 c 1,23,24
 198 132 198 132 198 96 c 128,-1,25
 198 60 198 60 206.5 39.5 c 128,-1,26
 215 19 215 19 240 9 c 1,27,-1
 237 -7 l 1,28,29
 183 0 183 0 108.5 0 c 128,-1,30
 34 0 34 0 -20 -9 c 1,31,-1
 -24 18 l 1,32,33
 -4 29 -4 29 32 37 c 1,34,-1
 184 614 l 1,35,36
 154 622 154 622 125 636 c 1,37,-1
 130 662 l 1,0,1
369 326 m 2,38,39
 369 500 369 500 358 593 c 1,40,41
 346 598 346 598 319 598 c 128,-1,42
 292 598 292 598 274 593 c 1,43,-1
 223 301 l 1,44,45
 259 297 259 297 300.5 297 c 128,-1,46
 342 297 342 297 369 301 c 1,47,-1
 369 326 l 2,38,39
489 893 m 1,48,49
 498 896 498 896 514 896 c 128,-1,50
 530 896 530 896 537 893 c 1,51,52
 546 877 546 877 553.5 843 c 128,-1,53
 561 809 561 809 562 783 c 1,54,-1
 300 717 l 1,55,-1
 290 741 l 1,56,57
 433 808 433 808 489 893 c 1,48,49
EndSplineSet
EndChar

StartChar: Acircumflex
Encoding: 194 194 131
Width: 644
GlyphClass: 2
Flags: W
LayerCount: 2
Fore
SplineSet
130 662 m 1,0,1
 217 651 217 651 352.5 651 c 128,-1,2
 488 651 488 651 593 662 c 1,3,-1
 597 636 l 1,4,5
 576 626 576 626 547 619 c 1,6,7
 534 536 534 536 534 332.5 c 128,-1,8
 534 129 534 129 548 34 c 1,9,10
 587 27 587 27 608 17 c 1,11,-1
 605 -9 l 1,12,13
 533 0 533 0 448.5 0 c 128,-1,14
 364 0 364 0 304 -9 c 1,15,-1
 300 18 l 1,16,17
 322 30 322 30 356 37 c 1,18,19
 364 101 364 101 368 230 c 1,20,21
 341 234 341 234 293.5 234 c 128,-1,22
 246 234 246 234 213 229 c 1,23,24
 198 132 198 132 198 96 c 128,-1,25
 198 60 198 60 206.5 39.5 c 128,-1,26
 215 19 215 19 240 9 c 1,27,-1
 237 -7 l 1,28,29
 183 0 183 0 108.5 0 c 128,-1,30
 34 0 34 0 -20 -9 c 1,31,-1
 -24 18 l 1,32,33
 -4 29 -4 29 32 37 c 1,34,-1
 184 614 l 1,35,36
 154 622 154 622 125 636 c 1,37,-1
 130 662 l 1,0,1
369 326 m 2,38,39
 369 500 369 500 358 593 c 1,40,41
 346 598 346 598 319 598 c 128,-1,42
 292 598 292 598 274 593 c 1,43,-1
 223 301 l 1,44,45
 259 297 259 297 300.5 297 c 128,-1,46
 342 297 342 297 369 301 c 1,47,-1
 369 326 l 2,38,39
360 896 m 128,-1,49
 380 896 380 896 391 893 c 1,50,51
 448 808 448 808 574 741 c 1,52,-1
 564 717 l 1,53,-1
 360 779 l 1,54,-1
 156 717 l 1,55,-1
 146 741 l 1,56,57
 272 808 272 808 329 893 c 1,58,48
 340 896 340 896 360 896 c 128,-1,49
EndSplineSet
EndChar

StartChar: Atilde
Encoding: 195 195 132
Width: 644
GlyphClass: 2
Flags: W
LayerCount: 2
Fore
SplineSet
130 662 m 1,0,1
 217 651 217 651 352.5 651 c 128,-1,2
 488 651 488 651 593 662 c 1,3,-1
 597 636 l 1,4,5
 576 626 576 626 547 619 c 1,6,7
 534 536 534 536 534 332.5 c 128,-1,8
 534 129 534 129 548 34 c 1,9,10
 587 27 587 27 608 17 c 1,11,-1
 605 -9 l 1,12,13
 533 0 533 0 448.5 0 c 128,-1,14
 364 0 364 0 304 -9 c 1,15,-1
 300 18 l 1,16,17
 322 30 322 30 356 37 c 1,18,19
 364 101 364 101 368 230 c 1,20,21
 341 234 341 234 293.5 234 c 128,-1,22
 246 234 246 234 213 229 c 1,23,24
 198 132 198 132 198 96 c 128,-1,25
 198 60 198 60 206.5 39.5 c 128,-1,26
 215 19 215 19 240 9 c 1,27,-1
 237 -7 l 1,28,29
 183 0 183 0 108.5 0 c 128,-1,30
 34 0 34 0 -20 -9 c 1,31,-1
 -24 18 l 1,32,33
 -4 29 -4 29 32 37 c 1,34,-1
 184 614 l 1,35,36
 154 622 154 622 125 636 c 1,37,-1
 130 662 l 1,0,1
369 326 m 2,38,39
 369 500 369 500 358 593 c 1,40,41
 346 598 346 598 319 598 c 128,-1,42
 292 598 292 598 274 593 c 1,43,-1
 223 301 l 1,44,45
 259 297 259 297 300.5 297 c 128,-1,46
 342 297 342 297 369 301 c 1,47,-1
 369 326 l 2,38,39
485 845 m 0,48,49
 544 845 544 845 571 884 c 1,50,-1
 595 867 l 1,51,52
 520 765 520 765 457 731 c 1,53,54
 430 731 430 731 362 757 c 128,-1,55
 294 783 294 783 265 783 c 0,56,57
 208 783 208 783 183 744 c 1,58,-1
 159 761 l 1,59,60
 231 861 231 861 328 896 c 1,61,62
 407 845 407 845 485 845 c 0,48,49
EndSplineSet
EndChar

StartChar: Adieresis
Encoding: 196 196 133
Width: 644
GlyphClass: 2
Flags: W
LayerCount: 2
Fore
SplineSet
130 662 m 1,0,1
 217 651 217 651 352.5 651 c 128,-1,2
 488 651 488 651 593 662 c 1,3,-1
 597 636 l 1,4,5
 576 626 576 626 547 619 c 1,6,7
 534 536 534 536 534 332.5 c 128,-1,8
 534 129 534 129 548 34 c 1,9,10
 587 27 587 27 608 17 c 1,11,-1
 605 -9 l 1,12,13
 533 0 533 0 448.5 0 c 128,-1,14
 364 0 364 0 304 -9 c 1,15,-1
 300 18 l 1,16,17
 322 30 322 30 356 37 c 1,18,19
 364 101 364 101 368 230 c 1,20,21
 341 234 341 234 293.5 234 c 128,-1,22
 246 234 246 234 213 229 c 1,23,24
 198 132 198 132 198 96 c 128,-1,25
 198 60 198 60 206.5 39.5 c 128,-1,26
 215 19 215 19 240 9 c 1,27,-1
 237 -7 l 1,28,29
 183 0 183 0 108.5 0 c 128,-1,30
 34 0 34 0 -20 -9 c 1,31,-1
 -24 18 l 1,32,33
 -4 29 -4 29 32 37 c 1,34,-1
 184 614 l 1,35,36
 154 622 154 622 125 636 c 1,37,-1
 130 662 l 1,0,1
369 326 m 2,38,39
 369 500 369 500 358 593 c 1,40,41
 346 598 346 598 319 598 c 128,-1,42
 292 598 292 598 274 593 c 1,43,-1
 223 301 l 1,44,45
 259 297 259 297 300.5 297 c 128,-1,46
 342 297 342 297 369 301 c 1,47,-1
 369 326 l 2,38,39
347 819 m 1,48,49
 337 798 337 798 308.5 768.5 c 128,-1,50
 280 739 280 739 258 724 c 1,51,52
 236 739 236 739 207.5 768.5 c 128,-1,53
 179 798 179 798 168 819 c 1,54,55
 180 839 180 839 206.5 861.5 c 128,-1,56
 233 884 233 884 258 895 c 1,57,58
 281 883 281 883 307.5 860.5 c 128,-1,59
 334 838 334 838 347 819 c 1,48,49
569 819 m 1,60,61
 559 798 559 798 530.5 768.5 c 128,-1,62
 502 739 502 739 480 724 c 1,63,64
 458 739 458 739 429.5 768.5 c 128,-1,65
 401 798 401 798 390 819 c 1,66,67
 402 839 402 839 428.5 861.5 c 128,-1,68
 455 884 455 884 480 895 c 1,69,70
 503 883 503 883 529.5 860.5 c 128,-1,71
 556 838 556 838 569 819 c 1,60,61
EndSplineSet
EndChar

StartChar: Aring
Encoding: 197 197 134
Width: 644
GlyphClass: 2
Flags: W
LayerCount: 2
Fore
SplineSet
130 662 m 1,0,1
 217 651 217 651 352.5 651 c 128,-1,2
 488 651 488 651 593 662 c 1,3,-1
 597 636 l 1,4,5
 576 626 576 626 547 619 c 1,6,7
 534 536 534 536 534 332.5 c 128,-1,8
 534 129 534 129 548 34 c 1,9,10
 587 27 587 27 608 17 c 1,11,-1
 605 -9 l 1,12,13
 533 0 533 0 448.5 0 c 128,-1,14
 364 0 364 0 304 -9 c 1,15,-1
 300 18 l 1,16,17
 322 30 322 30 356 37 c 1,18,19
 364 101 364 101 368 230 c 1,20,21
 341 234 341 234 293.5 234 c 128,-1,22
 246 234 246 234 213 229 c 1,23,24
 198 132 198 132 198 96 c 128,-1,25
 198 60 198 60 206.5 39.5 c 128,-1,26
 215 19 215 19 240 9 c 1,27,-1
 237 -7 l 1,28,29
 183 0 183 0 108.5 0 c 128,-1,30
 34 0 34 0 -20 -9 c 1,31,-1
 -24 18 l 1,32,33
 -4 29 -4 29 32 37 c 1,34,-1
 184 614 l 1,35,36
 154 622 154 622 125 636 c 1,37,-1
 130 662 l 1,0,1
369 326 m 2,38,39
 369 500 369 500 358 593 c 1,40,41
 346 598 346 598 319 598 c 128,-1,42
 292 598 292 598 274 593 c 1,43,-1
 223 301 l 1,44,45
 259 297 259 297 300.5 297 c 128,-1,46
 342 297 342 297 369 301 c 1,47,-1
 369 326 l 2,38,39
290 720.5 m 128,-1,49
 258 742 258 742 258 785 c 128,-1,50
 258 828 258 828 291.5 861.5 c 128,-1,51
 325 895 325 895 376 906 c 1,52,53
 479 906 479 906 479 822 c 0,54,55
 479 777 479 777 448 745 c 128,-1,56
 417 713 417 713 369 699 c 1,57,48
 322 699 322 699 290 720.5 c 128,-1,49
402.5 842 m 128,-1,59
 387 858 387 858 362 858 c 128,-1,60
 337 858 337 858 326 850 c 1,61,62
 319 832 319 832 319 805.5 c 128,-1,63
 319 779 319 779 335 762.5 c 128,-1,64
 351 746 351 746 374.5 746 c 128,-1,65
 398 746 398 746 411 755 c 1,66,67
 418 773 418 773 418 799.5 c 128,-1,58
 418 826 418 826 402.5 842 c 128,-1,59
EndSplineSet
EndChar

StartChar: AE
Encoding: 198 198 135
Width: 748
GlyphClass: 2
Flags: W
LayerCount: 2
Fore
SplineSet
147 662 m 1,0,1
 234 651 234 651 439.5 651 c 128,-1,2
 645 651 645 651 739 664 c 1,3,-1
 745 643 l 1,4,5
 706 591 706 591 703 480 c 1,6,-1
 676 480 l 1,7,8
 667 526 667 526 667 567 c 1,9,10
 631 584 631 584 580.5 584 c 128,-1,11
 530 584 530 584 513 577 c 1,12,13
 488 511 488 511 485 382 c 1,14,15
 519 374 519 374 547 374 c 0,16,17
 606 374 606 374 637 410 c 1,18,-1
 659 405 l 1,19,20
 646 366 646 366 646 325 c 128,-1,21
 646 284 646 284 656 236 c 1,22,-1
 631 232 l 1,23,24
 617 268 617 268 610 306 c 1,25,26
 587 312 587 312 553 312 c 128,-1,27
 519 312 519 312 484 307 c 1,28,29
 484 152 484 152 508 118 c 0,30,31
 532 83 532 83 587 83 c 0,32,33
 665 83 665 83 728 144 c 1,34,-1
 744 129 l 1,35,36
 655 8 655 8 536 -15 c 1,37,38
 476 -15 476 -15 436.5 1 c 128,-1,39
 397 17 397 17 376 38 c 128,-1,40
 355 59 355 59 345 108.5 c 128,-1,41
 335 158 335 158 333.5 194.5 c 128,-1,42
 332 231 332 231 332 308 c 1,43,44
 313 312 313 312 283.5 312 c 128,-1,45
 254 312 254 312 222 307 c 1,46,47
 185 133 185 133 185 96.5 c 128,-1,48
 185 60 185 60 193.5 39.5 c 128,-1,49
 202 19 202 19 227 9 c 1,50,-1
 224 -7 l 1,51,52
 170 0 170 0 95.5 0 c 128,-1,53
 21 0 21 0 -33 -9 c 1,54,-1
 -37 18 l 1,55,56
 -17 29 -17 29 19 37 c 1,57,-1
 205 614 l 1,58,59
 167 624 167 624 142 636 c 1,60,-1
 147 662 l 1,0,1
235 377 m 1,61,62
 255 373 255 373 286 373 c 128,-1,63
 317 373 317 373 336 377 c 1,64,-1
 355 536 l 2,65,66
 357 554 357 554 357 568 c 128,-1,67
 357 582 357 582 355 594 c 1,68,69
 342 598 342 598 319.5 598 c 128,-1,70
 297 598 297 598 282 595 c 1,71,72
 243 418 243 418 235 377 c 1,61,62
EndSplineSet
EndChar

StartChar: Ccedilla
Encoding: 199 199 136
Width: 516
GlyphClass: 2
Flags: W
LayerCount: 2
Fore
SplineSet
287 92 m 128,-1,1
 310 83 310 83 347 83 c 128,-1,2
 384 83 384 83 418 98 c 128,-1,3
 452 113 452 113 493 144 c 1,4,-1
 509 129 l 1,5,6
 426 23 426 23 311 -15 c 1,7,8
 174 -15 174 -15 102 57 c 128,-1,9
 30 129 30 129 30 267.5 c 128,-1,10
 30 406 30 406 114 512 c 128,-1,11
 198 618 198 618 339 666 c 1,12,13
 443 666 443 666 548 647 c 1,14,-1
 547 623 l 1,15,16
 520 623 520 623 498 614 c 1,17,18
 469 535 469 535 469 456 c 1,19,-1
 442 456 l 1,20,21
 432 494 432 494 430 540 c 1,22,23
 385 582 385 582 314 582 c 0,24,25
 267 582 267 582 245 565 c 1,26,27
 228 526 228 526 218.5 458 c 128,-1,28
 209 390 209 390 209 344 c 128,-1,29
 209 298 209 298 210 274 c 128,-1,30
 211 250 211 250 214.5 215.5 c 128,-1,31
 218 181 218 181 227 161 c 128,-1,32
 236 141 236 141 250 121 c 128,-1,0
 264 101 264 101 287 92 c 128,-1,1
256 -175 m 0,33,34
 273 -175 273 -175 285 -170 c 1,35,36
 291 -159 291 -159 291 -147 c 0,37,38
 291 -107 291 -107 202 -107 c 1,39,-1
 196 -103 l 1,40,-1
 234 14 l 1,41,-1
 273 16 l 1,42,-1
 250 -36 l 1,43,-1
 254 -39 l 1,44,45
 368 -39 368 -39 368 -116 c 1,46,47
 329 -191 329 -191 246 -235 c 1,48,49
 192 -235 192 -235 148 -214 c 1,50,51
 175 -173 175 -173 184 -138 c 1,52,-1
 188 -136 l 1,53,54
 212 -175 212 -175 256 -175 c 0,33,34
EndSplineSet
EndChar

StartChar: Egrave
Encoding: 200 200 137
Width: 526
GlyphClass: 2
Flags: W
LayerCount: 2
Fore
SplineSet
342 83 m 0,0,1
 384 83 384 83 418 98 c 128,-1,2
 452 113 452 113 493 144 c 1,3,-1
 509 129 l 1,4,5
 426 23 426 23 311 -15 c 1,6,7
 174 -15 174 -15 102 57 c 128,-1,8
 30 129 30 129 30 267.5 c 128,-1,9
 30 406 30 406 114 512 c 128,-1,10
 198 618 198 618 339 666 c 1,11,12
 443 666 443 666 548 647 c 1,13,-1
 547 623 l 1,14,15
 520 623 520 623 498 614 c 1,16,17
 469 535 469 535 469 456 c 1,18,-1
 442 456 l 1,19,20
 432 494 432 494 430 540 c 1,21,22
 385 582 385 582 314 582 c 0,23,24
 267 582 267 582 245 565 c 1,25,26
 218 503 218 503 211 385 c 1,27,28
 248 375 248 375 313 375 c 128,-1,29
 378 375 378 375 412 410 c 1,30,-1
 434 405 l 1,31,32
 421 366 421 366 421 325 c 128,-1,33
 421 284 421 284 431 236 c 1,34,-1
 406 232 l 1,35,36
 392 268 392 268 385 306 c 1,37,38
 354 311 354 311 301 311 c 128,-1,39
 248 311 248 311 209 306 c 1,40,41
 209 209 209 209 231 151 c 0,42,43
 257 83 257 83 342 83 c 0,0,1
148 893 m 1,44,45
 156 896 156 896 171 896 c 128,-1,46
 186 896 186 896 196 893 c 1,47,48
 252 808 252 808 395 741 c 1,49,-1
 385 717 l 1,50,-1
 123 783 l 1,51,52
 124 809 124 809 131.5 843 c 128,-1,53
 139 877 139 877 148 893 c 1,44,45
EndSplineSet
EndChar

StartChar: Eacute
Encoding: 201 201 138
Width: 526
GlyphClass: 2
Flags: W
LayerCount: 2
Fore
SplineSet
342 83 m 0,0,1
 384 83 384 83 418 98 c 128,-1,2
 452 113 452 113 493 144 c 1,3,-1
 509 129 l 1,4,5
 426 23 426 23 311 -15 c 1,6,7
 174 -15 174 -15 102 57 c 128,-1,8
 30 129 30 129 30 267.5 c 128,-1,9
 30 406 30 406 114 512 c 128,-1,10
 198 618 198 618 339 666 c 1,11,12
 443 666 443 666 548 647 c 1,13,-1
 547 623 l 1,14,15
 520 623 520 623 498 614 c 1,16,17
 469 535 469 535 469 456 c 1,18,-1
 442 456 l 1,19,20
 432 494 432 494 430 540 c 1,21,22
 385 582 385 582 314 582 c 0,23,24
 267 582 267 582 245 565 c 1,25,26
 218 503 218 503 211 385 c 1,27,28
 248 375 248 375 313 375 c 128,-1,29
 378 375 378 375 412 410 c 1,30,-1
 434 405 l 1,31,32
 421 366 421 366 421 325 c 128,-1,33
 421 284 421 284 431 236 c 1,34,-1
 406 232 l 1,35,36
 392 268 392 268 385 306 c 1,37,38
 354 311 354 311 301 311 c 128,-1,39
 248 311 248 311 209 306 c 1,40,41
 209 209 209 209 231 151 c 0,42,43
 257 83 257 83 342 83 c 0,0,1
431 893 m 1,44,45
 440 896 440 896 456 896 c 128,-1,46
 472 896 472 896 479 893 c 1,47,48
 488 877 488 877 495.5 843 c 128,-1,49
 503 809 503 809 504 783 c 1,50,-1
 242 717 l 1,51,-1
 232 741 l 1,52,53
 375 808 375 808 431 893 c 1,44,45
EndSplineSet
EndChar

StartChar: Ecircumflex
Encoding: 202 202 139
Width: 526
GlyphClass: 2
Flags: W
LayerCount: 2
Fore
SplineSet
342 83 m 0,0,1
 384 83 384 83 418 98 c 128,-1,2
 452 113 452 113 493 144 c 1,3,-1
 509 129 l 1,4,5
 426 23 426 23 311 -15 c 1,6,7
 174 -15 174 -15 102 57 c 128,-1,8
 30 129 30 129 30 267.5 c 128,-1,9
 30 406 30 406 114 512 c 128,-1,10
 198 618 198 618 339 666 c 1,11,12
 443 666 443 666 548 647 c 1,13,-1
 547 623 l 1,14,15
 520 623 520 623 498 614 c 1,16,17
 469 535 469 535 469 456 c 1,18,-1
 442 456 l 1,19,20
 432 494 432 494 430 540 c 1,21,22
 385 582 385 582 314 582 c 0,23,24
 267 582 267 582 245 565 c 1,25,26
 218 503 218 503 211 385 c 1,27,28
 248 375 248 375 313 375 c 128,-1,29
 378 375 378 375 412 410 c 1,30,-1
 434 405 l 1,31,32
 421 366 421 366 421 325 c 128,-1,33
 421 284 421 284 431 236 c 1,34,-1
 406 232 l 1,35,36
 392 268 392 268 385 306 c 1,37,38
 354 311 354 311 301 311 c 128,-1,39
 248 311 248 311 209 306 c 1,40,41
 209 209 209 209 231 151 c 0,42,43
 257 83 257 83 342 83 c 0,0,1
341 896 m 128,-1,45
 362 896 362 896 372 893 c 1,46,47
 429 808 429 808 555 741 c 1,48,-1
 545 717 l 1,49,-1
 341 779 l 1,50,-1
 137 717 l 1,51,-1
 127 741 l 1,52,53
 253 808 253 808 310 893 c 1,54,44
 320 896 320 896 341 896 c 128,-1,45
EndSplineSet
EndChar

StartChar: Edieresis
Encoding: 203 203 140
Width: 526
GlyphClass: 2
Flags: W
LayerCount: 2
Fore
SplineSet
342 83 m 0,0,1
 384 83 384 83 418 98 c 128,-1,2
 452 113 452 113 493 144 c 1,3,-1
 509 129 l 1,4,5
 426 23 426 23 311 -15 c 1,6,7
 174 -15 174 -15 102 57 c 128,-1,8
 30 129 30 129 30 267.5 c 128,-1,9
 30 406 30 406 114 512 c 128,-1,10
 198 618 198 618 339 666 c 1,11,12
 443 666 443 666 548 647 c 1,13,-1
 547 623 l 1,14,15
 520 623 520 623 498 614 c 1,16,17
 469 535 469 535 469 456 c 1,18,-1
 442 456 l 1,19,20
 432 494 432 494 430 540 c 1,21,22
 385 582 385 582 314 582 c 0,23,24
 267 582 267 582 245 565 c 1,25,26
 218 503 218 503 211 385 c 1,27,28
 248 375 248 375 313 375 c 128,-1,29
 378 375 378 375 412 410 c 1,30,-1
 434 405 l 1,31,32
 421 366 421 366 421 325 c 128,-1,33
 421 284 421 284 431 236 c 1,34,-1
 406 232 l 1,35,36
 392 268 392 268 385 306 c 1,37,38
 354 311 354 311 301 311 c 128,-1,39
 248 311 248 311 209 306 c 1,40,41
 209 209 209 209 231 151 c 0,42,43
 257 83 257 83 342 83 c 0,0,1
303 819 m 1,44,45
 293 798 293 798 264.5 768.5 c 128,-1,46
 236 739 236 739 214 724 c 1,47,48
 192 739 192 739 163.5 768.5 c 128,-1,49
 135 798 135 798 124 819 c 1,50,51
 136 839 136 839 162.5 861.5 c 128,-1,52
 189 884 189 884 214 895 c 1,53,54
 237 883 237 883 263.5 860.5 c 128,-1,55
 290 838 290 838 303 819 c 1,44,45
525 819 m 1,56,57
 515 798 515 798 486.5 768.5 c 128,-1,58
 458 739 458 739 436 724 c 1,59,60
 414 739 414 739 385.5 768.5 c 128,-1,61
 357 798 357 798 346 819 c 1,62,63
 358 839 358 839 384.5 861.5 c 128,-1,64
 411 884 411 884 436 895 c 1,65,66
 459 883 459 883 485.5 860.5 c 128,-1,67
 512 838 512 838 525 819 c 1,56,57
EndSplineSet
EndChar

StartChar: Igrave
Encoding: 204 204 141
Width: 385
GlyphClass: 2
Flags: W
LayerCount: 2
Fore
SplineSet
287 617 m 1,0,1
 275 540 275 540 275 334.5 c 128,-1,2
 275 129 275 129 289 34 c 1,3,4
 328 27 328 27 349 17 c 1,5,-1
 346 -9 l 1,6,7
 274 0 274 0 189.5 0 c 128,-1,8
 105 0 105 0 45 -9 c 1,9,-1
 41 18 l 1,10,11
 63 30 63 30 97 37 c 1,12,13
 110 135 110 135 110 319 c 128,-1,14
 110 503 110 503 95 614 c 1,15,16
 61 621 61 621 39 633 c 1,17,-1
 43 660 l 1,18,19
 103 651 103 651 187.5 651 c 128,-1,20
 272 651 272 651 344 660 c 1,21,-1
 347 634 l 1,22,23
 326 624 326 624 287 617 c 1,0,1
87 896 m 128,-1,25
 102 896 102 896 113 893 c 1,26,27
 169 808 169 808 312 741 c 1,28,-1
 302 717 l 1,29,-1
 40 783 l 1,30,31
 41 809 41 809 48.5 843 c 128,-1,32
 56 877 56 877 65 893 c 1,33,24
 72 896 72 896 87 896 c 128,-1,25
EndSplineSet
EndChar

StartChar: Iacute
Encoding: 205 205 142
Width: 385
GlyphClass: 2
Flags: W
LayerCount: 2
Fore
SplineSet
287 617 m 1,0,1
 275 540 275 540 275 334.5 c 128,-1,2
 275 129 275 129 289 34 c 1,3,4
 328 27 328 27 349 17 c 1,5,-1
 346 -9 l 1,6,7
 274 0 274 0 189.5 0 c 128,-1,8
 105 0 105 0 45 -9 c 1,9,-1
 41 18 l 1,10,11
 63 30 63 30 97 37 c 1,12,13
 110 135 110 135 110 319 c 128,-1,14
 110 503 110 503 95 614 c 1,15,16
 61 621 61 621 39 633 c 1,17,-1
 43 660 l 1,18,19
 103 651 103 651 187.5 651 c 128,-1,20
 272 651 272 651 344 660 c 1,21,-1
 347 634 l 1,22,23
 326 624 326 624 287 617 c 1,0,1
289 893 m 1,24,25
 298 896 298 896 314 896 c 128,-1,26
 330 896 330 896 337 893 c 1,27,28
 346 877 346 877 353.5 843 c 128,-1,29
 361 809 361 809 362 783 c 1,30,-1
 100 717 l 1,31,-1
 90 741 l 1,32,33
 233 808 233 808 289 893 c 1,24,25
EndSplineSet
EndChar

StartChar: Icircumflex
Encoding: 206 206 143
Width: 385
GlyphClass: 2
Flags: W
LayerCount: 2
Fore
SplineSet
287 617 m 1,0,1
 275 540 275 540 275 334.5 c 128,-1,2
 275 129 275 129 289 34 c 1,3,4
 328 27 328 27 349 17 c 1,5,-1
 346 -9 l 1,6,7
 274 0 274 0 189.5 0 c 128,-1,8
 105 0 105 0 45 -9 c 1,9,-1
 41 18 l 1,10,11
 63 30 63 30 97 37 c 1,12,13
 110 135 110 135 110 319 c 128,-1,14
 110 503 110 503 95 614 c 1,15,16
 61 621 61 621 39 633 c 1,17,-1
 43 660 l 1,18,19
 103 651 103 651 187.5 651 c 128,-1,20
 272 651 272 651 344 660 c 1,21,-1
 347 634 l 1,22,23
 326 624 326 624 287 617 c 1,0,1
163 893 m 1,24,25
 173 896 173 896 193.5 896 c 128,-1,26
 214 896 214 896 225 893 c 1,27,28
 282 808 282 808 408 741 c 1,29,-1
 398 717 l 1,30,-1
 194 779 l 1,31,-1
 -10 717 l 1,32,-1
 -20 741 l 1,33,34
 106 808 106 808 163 893 c 1,24,25
EndSplineSet
EndChar

StartChar: Idieresis
Encoding: 207 207 144
Width: 385
GlyphClass: 2
Flags: W
LayerCount: 2
Fore
SplineSet
287 617 m 1,0,1
 275 540 275 540 275 334.5 c 128,-1,2
 275 129 275 129 289 34 c 1,3,4
 328 27 328 27 349 17 c 1,5,-1
 346 -9 l 1,6,7
 274 0 274 0 189.5 0 c 128,-1,8
 105 0 105 0 45 -9 c 1,9,-1
 41 18 l 1,10,11
 63 30 63 30 97 37 c 1,12,13
 110 135 110 135 110 319 c 128,-1,14
 110 503 110 503 95 614 c 1,15,16
 61 621 61 621 39 633 c 1,17,-1
 43 660 l 1,18,19
 103 651 103 651 187.5 651 c 128,-1,20
 272 651 272 651 344 660 c 1,21,-1
 347 634 l 1,22,23
 326 624 326 624 287 617 c 1,0,1
171 819 m 1,24,25
 161 798 161 798 132.5 768.5 c 128,-1,26
 104 739 104 739 82 724 c 1,27,28
 60 739 60 739 31.5 768.5 c 128,-1,29
 3 798 3 798 -8 819 c 1,30,31
 4 839 4 839 30.5 861.5 c 128,-1,32
 57 884 57 884 82 895 c 1,33,34
 105 883 105 883 131.5 860.5 c 128,-1,35
 158 838 158 838 171 819 c 1,24,25
393 819 m 1,36,37
 383 798 383 798 354.5 768.5 c 128,-1,38
 326 739 326 739 304 724 c 1,39,40
 282 739 282 739 253.5 768.5 c 128,-1,41
 225 798 225 798 214 819 c 1,42,43
 226 839 226 839 252.5 861.5 c 128,-1,44
 279 884 279 884 304 895 c 1,45,46
 327 883 327 883 353.5 860.5 c 128,-1,47
 380 838 380 838 393 819 c 1,36,37
EndSplineSet
EndChar

StartChar: Eth
Encoding: 208 208 145
Width: 661
GlyphClass: 2
Flags: W
LayerCount: 2
Fore
SplineSet
21 649 m 1,0,-1
 341 658 l 1,1,2
 486 658 486 658 558.5 592 c 128,-1,3
 631 526 631 526 631 381.5 c 128,-1,4
 631 237 631 237 541 124.5 c 128,-1,5
 451 12 451 12 307 -15 c 1,6,7
 228 -15 228 -15 114 25 c 1,8,9
 100 8 100 8 89 -23 c 1,10,-1
 64 -17 l 1,11,12
 90 112 90 112 92 304 c 1,13,-1
 31 301 l 1,14,-1
 22 307 l 1,15,-1
 28 363 l 1,16,-1
 92 363 l 1,17,18
 89 527 89 527 79 606 c 1,19,20
 53 619 53 619 21 622 c 1,21,-1
 21 649 l 1,0,-1
264 96 m 1,22,23
 302 69 302 69 345 69 c 128,-1,24
 388 69 388 69 415 86 c 1,25,26
 452 176 452 176 452 320 c 0,27,28
 452 609 452 609 302 609 c 0,29,30
 281 609 281 609 266 604 c 1,31,32
 257 514 257 514 257 368 c 1,33,34
 312 371 312 371 348 376 c 1,35,-1
 356 371 l 1,36,-1
 350 319 l 1,37,-1
 257 314 l 1,38,39
 257 206 257 206 264 96 c 1,22,23
EndSplineSet
EndChar

StartChar: Ntilde
Encoding: 209 209 146
Width: 705
GlyphClass: 2
Flags: W
LayerCount: 2
Fore
SplineSet
43 660 m 1,0,1
 100 651 100 651 192 651 c 128,-1,2
 284 651 284 651 335 658 c 1,3,-1
 338 640 l 1,4,5
 328 637 328 637 321 628 c 128,-1,6
 314 619 314 619 314 603.5 c 128,-1,7
 314 588 314 588 320 568 c 128,-1,8
 326 548 326 548 372 463 c 128,-1,9
 418 378 418 378 510 227 c 1,10,-1
 514 229 l 1,11,-1
 514 323 l 2,12,13
 514 495 514 495 497.5 559.5 c 128,-1,14
 481 624 481 624 421 639 c 1,15,-1
 424 660 l 1,16,17
 483 651 483 651 550 651 c 128,-1,18
 617 651 617 651 677 660 c 1,19,-1
 680 634 l 1,20,21
 654 624 654 624 610 617 c 1,22,23
 605 592 605 592 600 502.5 c 128,-1,24
 595 413 595 413 595 266 c 128,-1,25
 595 119 595 119 610 34 c 1,26,27
 648 28 648 28 680 17 c 1,28,-1
 677 -9 l 1,29,30
 616 0 616 0 551 0 c 128,-1,31
 486 0 486 0 433 -6 c 1,32,33
 433 37 433 37 391 121 c 128,-1,34
 349 205 349 205 195 461 c 1,35,-1
 191 459 l 1,36,-1
 191 382 l 2,37,38
 191 227 191 227 202 146.5 c 128,-1,39
 213 66 213 66 250 34 c 1,40,41
 289 27 289 27 310 17 c 1,42,-1
 307 -9 l 1,43,44
 224 0 224 0 164.5 0 c 128,-1,45
 105 0 105 0 45 -9 c 1,46,-1
 41 18 l 1,47,48
 63 30 63 30 97 37 c 1,49,50
 110 135 110 135 110 264 c 0,51,52
 110 494 110 494 95 614 c 1,53,54
 61 621 61 621 39 633 c 1,55,-1
 43 660 l 1,0,1
486 845 m 0,56,57
 545 845 545 845 572 884 c 1,58,-1
 596 867 l 1,59,60
 521 765 521 765 458 731 c 1,61,62
 431 731 431 731 363 757 c 128,-1,63
 295 783 295 783 266 783 c 0,64,65
 209 783 209 783 184 744 c 1,66,-1
 160 761 l 1,67,68
 232 861 232 861 329 896 c 1,69,70
 408 845 408 845 486 845 c 0,56,57
EndSplineSet
EndChar

StartChar: Ograve
Encoding: 210 210 147
Width: 648
GlyphClass: 2
Flags: W
LayerCount: 2
Fore
SplineSet
108 62 m 128,-1,1
 30 139 30 139 30 273 c 128,-1,2
 30 407 30 407 113.5 512.5 c 128,-1,3
 197 618 197 618 338 666 c 1,4,5
 476 666 476 666 547 595.5 c 128,-1,6
 618 525 618 525 618 384.5 c 128,-1,7
 618 244 618 244 540 138.5 c 128,-1,8
 462 33 462 33 324 -15 c 1,9,0
 186 -15 186 -15 108 62 c 128,-1,1
356 571 m 0,10,11
 333 582 333 582 301 582 c 128,-1,12
 269 582 269 582 246 566 c 1,13,14
 209 480 209 480 209 339 c 0,15,16
 209 239 209 239 234 162 c 0,17,18
 248 119 248 119 276.5 94 c 128,-1,19
 305 69 305 69 341 69 c 128,-1,20
 377 69 377 69 402 86 c 1,21,22
 439 171 439 171 439 310 c 0,23,24
 439 442 439 442 418 494 c 0,25,26
 395 553 395 553 356 571 c 0,10,11
157 896 m 128,-1,28
 172 896 172 896 183 893 c 1,29,30
 239 808 239 808 382 741 c 1,31,-1
 372 717 l 1,32,-1
 110 783 l 1,33,34
 111 809 111 809 118.5 843 c 128,-1,35
 126 877 126 877 135 893 c 1,36,27
 142 896 142 896 157 896 c 128,-1,28
EndSplineSet
EndChar

StartChar: Oacute
Encoding: 211 211 148
Width: 648
GlyphClass: 2
Flags: W
LayerCount: 2
Fore
SplineSet
108 62 m 128,-1,1
 30 139 30 139 30 273 c 128,-1,2
 30 407 30 407 113.5 512.5 c 128,-1,3
 197 618 197 618 338 666 c 1,4,5
 476 666 476 666 547 595.5 c 128,-1,6
 618 525 618 525 618 384.5 c 128,-1,7
 618 244 618 244 540 138.5 c 128,-1,8
 462 33 462 33 324 -15 c 1,9,0
 186 -15 186 -15 108 62 c 128,-1,1
356 571 m 0,10,11
 333 582 333 582 301 582 c 128,-1,12
 269 582 269 582 246 566 c 1,13,14
 209 480 209 480 209 339 c 0,15,16
 209 239 209 239 234 162 c 0,17,18
 248 119 248 119 276.5 94 c 128,-1,19
 305 69 305 69 341 69 c 128,-1,20
 377 69 377 69 402 86 c 1,21,22
 439 171 439 171 439 310 c 0,23,24
 439 442 439 442 418 494 c 0,25,26
 395 553 395 553 356 571 c 0,10,11
463 893 m 1,27,28
 472 896 472 896 488 896 c 128,-1,29
 504 896 504 896 511 893 c 1,30,31
 520 877 520 877 527.5 843 c 128,-1,32
 535 809 535 809 536 783 c 1,33,-1
 274 717 l 1,34,-1
 264 741 l 1,35,36
 407 808 407 808 463 893 c 1,27,28
EndSplineSet
EndChar

StartChar: Ocircumflex
Encoding: 212 212 149
Width: 648
GlyphClass: 2
Flags: W
LayerCount: 2
Fore
SplineSet
108 62 m 128,-1,1
 30 139 30 139 30 273 c 128,-1,2
 30 407 30 407 113.5 512.5 c 128,-1,3
 197 618 197 618 338 666 c 1,4,5
 476 666 476 666 547 595.5 c 128,-1,6
 618 525 618 525 618 384.5 c 128,-1,7
 618 244 618 244 540 138.5 c 128,-1,8
 462 33 462 33 324 -15 c 1,9,0
 186 -15 186 -15 108 62 c 128,-1,1
356 571 m 0,10,11
 333 582 333 582 301 582 c 128,-1,12
 269 582 269 582 246 566 c 1,13,14
 209 480 209 480 209 339 c 0,15,16
 209 239 209 239 234 162 c 0,17,18
 248 119 248 119 276.5 94 c 128,-1,19
 305 69 305 69 341 69 c 128,-1,20
 377 69 377 69 402 86 c 1,21,22
 439 171 439 171 439 310 c 0,23,24
 439 442 439 442 418 494 c 0,25,26
 395 553 395 553 356 571 c 0,10,11
347 896 m 128,-1,28
 368 896 368 896 378 893 c 1,29,30
 435 808 435 808 561 741 c 1,31,-1
 551 717 l 1,32,-1
 347 779 l 1,33,-1
 143 717 l 1,34,-1
 133 741 l 1,35,36
 259 808 259 808 316 893 c 1,37,27
 326 896 326 896 347 896 c 128,-1,28
EndSplineSet
EndChar

StartChar: Otilde
Encoding: 213 213 150
Width: 648
GlyphClass: 2
Flags: W
LayerCount: 2
Fore
SplineSet
108 62 m 128,-1,1
 30 139 30 139 30 273 c 128,-1,2
 30 407 30 407 113.5 512.5 c 128,-1,3
 197 618 197 618 338 666 c 1,4,5
 476 666 476 666 547 595.5 c 128,-1,6
 618 525 618 525 618 384.5 c 128,-1,7
 618 244 618 244 540 138.5 c 128,-1,8
 462 33 462 33 324 -15 c 1,9,0
 186 -15 186 -15 108 62 c 128,-1,1
356 571 m 0,10,11
 333 582 333 582 301 582 c 128,-1,12
 269 582 269 582 246 566 c 1,13,14
 209 480 209 480 209 339 c 0,15,16
 209 239 209 239 234 162 c 0,17,18
 248 119 248 119 276.5 94 c 128,-1,19
 305 69 305 69 341 69 c 128,-1,20
 377 69 377 69 402 86 c 1,21,22
 439 171 439 171 439 310 c 0,23,24
 439 442 439 442 418 494 c 0,25,26
 395 553 395 553 356 571 c 0,10,11
463 845 m 0,27,28
 522 845 522 845 549 884 c 1,29,-1
 573 867 l 1,30,31
 498 765 498 765 435 731 c 1,32,33
 408 731 408 731 340 757 c 128,-1,34
 272 783 272 783 243 783 c 0,35,36
 186 783 186 783 161 744 c 1,37,-1
 137 761 l 1,38,39
 209 861 209 861 306 896 c 1,40,41
 385 845 385 845 463 845 c 0,27,28
EndSplineSet
EndChar

StartChar: Odieresis
Encoding: 214 214 151
Width: 648
GlyphClass: 2
Flags: W
LayerCount: 2
Fore
SplineSet
108 62 m 128,-1,1
 30 139 30 139 30 273 c 128,-1,2
 30 407 30 407 113.5 512.5 c 128,-1,3
 197 618 197 618 338 666 c 1,4,5
 476 666 476 666 547 595.5 c 128,-1,6
 618 525 618 525 618 384.5 c 128,-1,7
 618 244 618 244 540 138.5 c 128,-1,8
 462 33 462 33 324 -15 c 1,9,0
 186 -15 186 -15 108 62 c 128,-1,1
356 571 m 0,10,11
 333 582 333 582 301 582 c 128,-1,12
 269 582 269 582 246 566 c 1,13,14
 209 480 209 480 209 339 c 0,15,16
 209 239 209 239 234 162 c 0,17,18
 248 119 248 119 276.5 94 c 128,-1,19
 305 69 305 69 341 69 c 128,-1,20
 377 69 377 69 402 86 c 1,21,22
 439 171 439 171 439 310 c 0,23,24
 439 442 439 442 418 494 c 0,25,26
 395 553 395 553 356 571 c 0,10,11
316 819 m 1,27,28
 306 798 306 798 277.5 768.5 c 128,-1,29
 249 739 249 739 227 724 c 1,30,31
 205 739 205 739 176.5 768.5 c 128,-1,32
 148 798 148 798 137 819 c 1,33,34
 149 839 149 839 175.5 861.5 c 128,-1,35
 202 884 202 884 227 895 c 1,36,37
 250 883 250 883 276.5 860.5 c 128,-1,38
 303 838 303 838 316 819 c 1,27,28
538 819 m 1,39,40
 528 798 528 798 499.5 768.5 c 128,-1,41
 471 739 471 739 449 724 c 1,42,43
 427 739 427 739 398.5 768.5 c 128,-1,44
 370 798 370 798 359 819 c 1,45,46
 371 839 371 839 397.5 861.5 c 128,-1,47
 424 884 424 884 449 895 c 1,48,49
 472 883 472 883 498.5 860.5 c 128,-1,50
 525 838 525 838 538 819 c 1,39,40
EndSplineSet
EndChar

StartChar: multiply
Encoding: 215 215 152
Width: 576
GlyphClass: 2
Flags: W
LayerCount: 2
Fore
SplineSet
77 91 m 1,0,1
 182 179 182 179 241 239 c 1,2,-1
 87 392 l 1,3,-1
 139 442 l 1,4,-1
 147 441 l 1,5,6
 172 413 172 413 291 288 c 1,7,-1
 429 440 l 1,8,-1
 437 441 l 1,9,-1
 489 393 l 1,10,-1
 333 241 l 1,11,12
 386 186 386 186 499 92 c 1,13,-1
 457 38 l 1,14,-1
 446 39 l 1,15,-1
 286 195 l 1,16,-1
 130 38 l 1,17,-1
 119 38 l 1,18,-1
 77 91 l 1,0,1
EndSplineSet
EndChar

StartChar: Oslash
Encoding: 216 216 153
Width: 648
GlyphClass: 2
Flags: W
LayerCount: 2
Fore
SplineSet
185 -90 m 1,0,-1
 180 -90 l 1,1,2
 157 -80 157 -80 140 -60 c 1,3,4
 178 25 178 25 237 178 c 2,5,-1
 351 477 l 2,6,7
 403 613 403 613 442 732 c 1,8,9
 470 734 470 734 497 740 c 1,10,-1
 501 737 l 1,11,12
 473 673 473 673 405 491 c 2,13,-1
 185 -90 l 1,0,-1
108 62 m 128,-1,15
 30 139 30 139 30 273 c 128,-1,16
 30 407 30 407 113.5 512.5 c 128,-1,17
 197 618 197 618 338 666 c 1,18,19
 476 666 476 666 547 595.5 c 128,-1,20
 618 525 618 525 618 384.5 c 128,-1,21
 618 244 618 244 540 138.5 c 128,-1,22
 462 33 462 33 324 -15 c 1,23,14
 186 -15 186 -15 108 62 c 128,-1,15
356 571 m 0,24,25
 333 582 333 582 301 582 c 128,-1,26
 269 582 269 582 246 566 c 1,27,28
 209 480 209 480 209 339 c 0,29,30
 209 239 209 239 234 162 c 0,31,32
 248 119 248 119 276.5 94 c 128,-1,33
 305 69 305 69 341 69 c 128,-1,34
 377 69 377 69 402 86 c 1,35,36
 439 171 439 171 439 310 c 0,37,38
 439 442 439 442 418 494 c 0,39,40
 395 553 395 553 356 571 c 0,24,25
EndSplineSet
EndChar

StartChar: Ugrave
Encoding: 217 217 154
Width: 708
GlyphClass: 2
Flags: W
LayerCount: 2
Fore
SplineSet
610 617 m 1,0,1
 598 540 598 540 598 334.5 c 128,-1,2
 598 129 598 129 612 34 c 1,3,4
 651 27 651 27 672 17 c 1,5,-1
 669 -9 l 1,6,7
 597 0 597 0 537.5 0 c 128,-1,8
 478 0 478 0 418 -9 c 1,9,-1
 414 9 l 1,10,11
 423 23 423 23 427 66 c 1,12,13
 376 17 376 17 296 -15 c 1,14,15
 173 -15 173 -15 126 46 c 128,-1,16
 79 107 79 107 79 241 c 0,17,18
 79 298 79 298 86 422 c 128,-1,19
 93 546 93 546 93 570 c 128,-1,20
 93 594 93 594 86 615 c 1,21,22
 50 623 50 623 35 633 c 1,23,-1
 39 660 l 1,24,25
 110 651 110 651 183 651 c 128,-1,26
 256 651 256 651 301 658 c 1,27,-1
 305 641 l 1,28,29
 281 628 281 628 272 608 c 128,-1,30
 263 588 263 588 256 502.5 c 128,-1,31
 249 417 249 417 249 329.5 c 128,-1,32
 249 242 249 242 249.5 225 c 128,-1,33
 250 208 250 208 252.5 181 c 128,-1,34
 255 154 255 154 260.5 140 c 128,-1,35
 266 126 266 126 276 111 c 0,36,37
 295 83 295 83 340.5 83 c 128,-1,38
 386 83 386 83 430 117 c 1,39,40
 433 161 433 161 433 332 c 128,-1,41
 433 503 433 503 418 614 c 1,42,43
 384 621 384 621 362 633 c 1,44,-1
 366 660 l 1,45,46
 426 651 426 651 510.5 651 c 128,-1,47
 595 651 595 651 667 660 c 1,48,-1
 670 634 l 1,49,50
 649 624 649 624 610 617 c 1,0,1
153 893 m 1,51,52
 161 896 161 896 175.5 896 c 128,-1,53
 190 896 190 896 201 893 c 1,54,55
 257 808 257 808 400 741 c 1,56,-1
 390 717 l 1,57,-1
 128 783 l 1,58,59
 129 809 129 809 136.5 843 c 128,-1,60
 144 877 144 877 153 893 c 1,51,52
EndSplineSet
EndChar

StartChar: Uacute
Encoding: 218 218 155
Width: 708
GlyphClass: 2
Flags: W
LayerCount: 2
Fore
SplineSet
610 617 m 1,0,1
 598 540 598 540 598 334.5 c 128,-1,2
 598 129 598 129 612 34 c 1,3,4
 651 27 651 27 672 17 c 1,5,-1
 669 -9 l 1,6,7
 597 0 597 0 537.5 0 c 128,-1,8
 478 0 478 0 418 -9 c 1,9,-1
 414 9 l 1,10,11
 423 23 423 23 427 66 c 1,12,13
 376 17 376 17 296 -15 c 1,14,15
 173 -15 173 -15 126 46 c 128,-1,16
 79 107 79 107 79 241 c 0,17,18
 79 298 79 298 86 422 c 128,-1,19
 93 546 93 546 93 570 c 128,-1,20
 93 594 93 594 86 615 c 1,21,22
 50 623 50 623 35 633 c 1,23,-1
 39 660 l 1,24,25
 110 651 110 651 183 651 c 128,-1,26
 256 651 256 651 301 658 c 1,27,-1
 305 641 l 1,28,29
 281 628 281 628 272 608 c 128,-1,30
 263 588 263 588 256 502.5 c 128,-1,31
 249 417 249 417 249 329.5 c 128,-1,32
 249 242 249 242 249.5 225 c 128,-1,33
 250 208 250 208 252.5 181 c 128,-1,34
 255 154 255 154 260.5 140 c 128,-1,35
 266 126 266 126 276 111 c 0,36,37
 295 83 295 83 340.5 83 c 128,-1,38
 386 83 386 83 430 117 c 1,39,40
 433 161 433 161 433 332 c 128,-1,41
 433 503 433 503 418 614 c 1,42,43
 384 621 384 621 362 633 c 1,44,-1
 366 660 l 1,45,46
 426 651 426 651 510.5 651 c 128,-1,47
 595 651 595 651 667 660 c 1,48,-1
 670 634 l 1,49,50
 649 624 649 624 610 617 c 1,0,1
525 893 m 1,51,52
 534 896 534 896 550 896 c 128,-1,53
 566 896 566 896 573 893 c 1,54,55
 582 877 582 877 589.5 843 c 128,-1,56
 597 809 597 809 598 783 c 1,57,-1
 336 717 l 1,58,-1
 326 741 l 1,59,60
 469 808 469 808 525 893 c 1,51,52
EndSplineSet
EndChar

StartChar: Ucircumflex
Encoding: 219 219 156
Width: 708
GlyphClass: 2
Flags: W
LayerCount: 2
Fore
SplineSet
610 617 m 1,0,1
 598 540 598 540 598 334.5 c 128,-1,2
 598 129 598 129 612 34 c 1,3,4
 651 27 651 27 672 17 c 1,5,-1
 669 -9 l 1,6,7
 597 0 597 0 537.5 0 c 128,-1,8
 478 0 478 0 418 -9 c 1,9,-1
 414 9 l 1,10,11
 423 23 423 23 427 66 c 1,12,13
 376 17 376 17 296 -15 c 1,14,15
 173 -15 173 -15 126 46 c 128,-1,16
 79 107 79 107 79 241 c 0,17,18
 79 298 79 298 86 422 c 128,-1,19
 93 546 93 546 93 570 c 128,-1,20
 93 594 93 594 86 615 c 1,21,22
 50 623 50 623 35 633 c 1,23,-1
 39 660 l 1,24,25
 110 651 110 651 183 651 c 128,-1,26
 256 651 256 651 301 658 c 1,27,-1
 305 641 l 1,28,29
 281 628 281 628 272 608 c 128,-1,30
 263 588 263 588 256 502.5 c 128,-1,31
 249 417 249 417 249 329.5 c 128,-1,32
 249 242 249 242 249.5 225 c 128,-1,33
 250 208 250 208 252.5 181 c 128,-1,34
 255 154 255 154 260.5 140 c 128,-1,35
 266 126 266 126 276 111 c 0,36,37
 295 83 295 83 340.5 83 c 128,-1,38
 386 83 386 83 430 117 c 1,39,40
 433 161 433 161 433 332 c 128,-1,41
 433 503 433 503 418 614 c 1,42,43
 384 621 384 621 362 633 c 1,44,-1
 366 660 l 1,45,46
 426 651 426 651 510.5 651 c 128,-1,47
 595 651 595 651 667 660 c 1,48,-1
 670 634 l 1,49,50
 649 624 649 624 610 617 c 1,0,1
347 896 m 128,-1,52
 368 896 368 896 378 893 c 1,53,54
 435 808 435 808 561 741 c 1,55,-1
 551 717 l 1,56,-1
 347 779 l 1,57,-1
 143 717 l 1,58,-1
 133 741 l 1,59,60
 259 808 259 808 316 893 c 1,61,51
 326 896 326 896 347 896 c 128,-1,52
EndSplineSet
EndChar

StartChar: Udieresis
Encoding: 220 220 157
Width: 708
GlyphClass: 2
Flags: W
LayerCount: 2
Fore
SplineSet
610 617 m 1,0,1
 598 540 598 540 598 334.5 c 128,-1,2
 598 129 598 129 612 34 c 1,3,4
 651 27 651 27 672 17 c 1,5,-1
 669 -9 l 1,6,7
 597 0 597 0 537.5 0 c 128,-1,8
 478 0 478 0 418 -9 c 1,9,-1
 414 9 l 1,10,11
 423 23 423 23 427 66 c 1,12,13
 376 17 376 17 296 -15 c 1,14,15
 173 -15 173 -15 126 46 c 128,-1,16
 79 107 79 107 79 241 c 0,17,18
 79 298 79 298 86 422 c 128,-1,19
 93 546 93 546 93 570 c 128,-1,20
 93 594 93 594 86 615 c 1,21,22
 50 623 50 623 35 633 c 1,23,-1
 39 660 l 1,24,25
 110 651 110 651 183 651 c 128,-1,26
 256 651 256 651 301 658 c 1,27,-1
 305 641 l 1,28,29
 281 628 281 628 272 608 c 128,-1,30
 263 588 263 588 256 502.5 c 128,-1,31
 249 417 249 417 249 329.5 c 128,-1,32
 249 242 249 242 249.5 225 c 128,-1,33
 250 208 250 208 252.5 181 c 128,-1,34
 255 154 255 154 260.5 140 c 128,-1,35
 266 126 266 126 276 111 c 0,36,37
 295 83 295 83 340.5 83 c 128,-1,38
 386 83 386 83 430 117 c 1,39,40
 433 161 433 161 433 332 c 128,-1,41
 433 503 433 503 418 614 c 1,42,43
 384 621 384 621 362 633 c 1,44,-1
 366 660 l 1,45,46
 426 651 426 651 510.5 651 c 128,-1,47
 595 651 595 651 667 660 c 1,48,-1
 670 634 l 1,49,50
 649 624 649 624 610 617 c 1,0,1
326 819 m 1,51,52
 316 798 316 798 287.5 768.5 c 128,-1,53
 259 739 259 739 237 724 c 1,54,55
 215 739 215 739 186.5 768.5 c 128,-1,56
 158 798 158 798 147 819 c 1,57,58
 159 839 159 839 185.5 861.5 c 128,-1,59
 212 884 212 884 237 895 c 1,60,61
 260 883 260 883 286.5 860.5 c 128,-1,62
 313 838 313 838 326 819 c 1,51,52
548 819 m 1,63,64
 538 798 538 798 509.5 768.5 c 128,-1,65
 481 739 481 739 459 724 c 1,66,67
 437 739 437 739 408.5 768.5 c 128,-1,68
 380 798 380 798 369 819 c 1,69,70
 381 839 381 839 407.5 861.5 c 128,-1,71
 434 884 434 884 459 895 c 1,72,73
 482 883 482 883 508.5 860.5 c 128,-1,74
 535 838 535 838 548 819 c 1,63,64
EndSplineSet
EndChar

StartChar: Yacute
Encoding: 221 221 158
Width: 566
GlyphClass: 2
Flags: W
LayerCount: 2
Fore
SplineSet
389 603 m 128,-1,1
 389 631 389 631 367 642 c 1,2,-1
 370 658 l 1,3,4
 435 651 435 651 490.5 651 c 128,-1,5
 546 651 546 651 596 660 c 1,6,-1
 600 634 l 1,7,8
 576 621 576 621 542 614 c 1,9,-1
 366 328 l 1,10,11
 366 130 366 130 379 34 c 1,12,13
 422 25 422 25 439 17 c 1,14,-1
 436 -9 l 1,15,16
 372 0 372 0 283.5 0 c 128,-1,17
 195 0 195 0 135 -9 c 1,18,-1
 131 18 l 1,19,20
 152 29 152 29 188 37 c 1,21,22
 200 127 200 127 200 275 c 2,23,-1
 200 301 l 1,24,25
 108 494 108 494 79.5 545 c 128,-1,26
 51 596 51 596 26 616 c 1,27,28
 -7 625 -7 625 -22 633 c 1,29,-1
 -18 660 l 1,30,31
 46 651 46 651 129 651 c 128,-1,32
 212 651 212 651 283 660 c 1,33,-1
 286 634 l 1,34,35
 269 626 269 626 226 617 c 1,36,37
 288 432 288 432 324 363 c 1,38,39
 366 488 366 488 377.5 531.5 c 128,-1,0
 389 575 389 575 389 603 c 128,-1,1
481 903 m 1,40,41
 490 906 490 906 506 906 c 128,-1,42
 522 906 522 906 529 903 c 1,43,44
 538 887 538 887 545.5 853 c 128,-1,45
 553 819 553 819 554 793 c 1,46,-1
 292 727 l 1,47,-1
 282 751 l 1,48,49
 425 818 425 818 481 903 c 1,40,41
EndSplineSet
EndChar

StartChar: Thorn
Encoding: 222 222 159
Width: 591
GlyphClass: 2
Flags: W
LayerCount: 2
Fore
SplineSet
278 482 m 1,0,1
 275 464 275 464 275 296.5 c 128,-1,2
 275 129 275 129 289 34 c 1,3,4
 328 27 328 27 349 17 c 1,5,-1
 346 -9 l 1,6,7
 274 0 274 0 189.5 0 c 128,-1,8
 105 0 105 0 45 -9 c 1,9,-1
 41 18 l 1,10,11
 63 30 63 30 97 37 c 1,12,13
 110 135 110 135 110 319 c 128,-1,14
 110 503 110 503 95 614 c 1,15,16
 61 621 61 621 39 633 c 1,17,-1
 43 660 l 1,18,19
 103 651 103 651 187.5 651 c 128,-1,20
 272 651 272 651 344 660 c 1,21,-1
 347 634 l 1,22,23
 326 624 326 624 287 617 c 1,24,25
 283 586 283 586 280 535 c 1,26,-1
 342 536 l 2,27,28
 345 536 345 536 348 536 c 0,29,30
 460 536 460 536 522 501.5 c 128,-1,31
 584 467 584 467 584 373 c 128,-1,32
 584 279 584 279 509 219 c 128,-1,33
 434 159 434 159 336 159 c 0,34,35
 318 159 318 159 310 160 c 1,36,-1
 314 206 l 1,37,-1
 326 206 l 2,38,39
 404 206 404 206 404 357 c 0,40,41
 404 418 404 418 384.5 452.5 c 128,-1,42
 365 487 365 487 315 487 c 0,43,44
 296 487 296 487 278 482 c 1,0,1
EndSplineSet
EndChar

StartChar: germandbls
Encoding: 223 223 160
Width: 602
GlyphClass: 2
Flags: W
LayerCount: 2
Fore
SplineSet
356 115 m 1,0,1
 388 65 388 65 432.5 65 c 128,-1,2
 477 65 477 65 477 131 c 0,3,4
 477 152 477 152 447.5 184.5 c 128,-1,5
 418 217 418 217 382.5 245.5 c 128,-1,6
 347 274 347 274 317.5 308 c 128,-1,7
 288 342 288 342 288 367 c 2,8,-1
 288 386 l 1,9,10
 378 461 378 461 378 575 c 0,11,12
 378 637 378 637 314 637 c 0,13,14
 287 637 287 637 266 629 c 1,15,16
 242 577 242 577 242 492 c 2,17,-1
 242 268 l 2,18,19
 242 108 242 108 259 -60 c 1,20,21
 193 -54 193 -54 130 -52 c 1,22,23
 102 -104 102 -104 85 -200 c 1,24,-1
 60 -198 l 1,25,26
 61 -173 61 -173 74.5 1.5 c 128,-1,27
 88 176 88 176 89 270 c 2,28,-1
 90 439 l 1,29,-1
 23 439 l 1,30,-1
 21 441 l 1,31,32
 21 462 21 462 24 468 c 1,33,34
 37 473 37 473 96 490 c 1,35,36
 130 573 130 573 198 633.5 c 128,-1,37
 266 694 266 694 351 711 c 1,38,39
 429 711 429 711 481.5 683 c 128,-1,40
 534 655 534 655 534 592 c 0,41,42
 534 555 534 555 507 523 c 128,-1,43
 480 491 480 491 453.5 472.5 c 128,-1,44
 427 454 427 454 427 450 c 0,45,46
 427 429 427 429 453.5 399.5 c 128,-1,47
 480 370 480 370 511 345.5 c 128,-1,48
 542 321 542 321 568.5 290 c 128,-1,49
 595 259 595 259 595 234 c 0,50,51
 595 171 595 171 532 90 c 128,-1,52
 469 9 469 9 406 -15 c 1,53,54
 338 -15 338 -15 277 4 c 1,55,-1
 277 20 l 1,56,57
 318 81 318 81 322 180 c 1,58,-1
 346 180 l 1,59,60
 346 169 346 169 347.5 160 c 128,-1,61
 349 151 349 151 350 144.5 c 128,-1,62
 351 138 351 138 352 133 c 0,63,64
 354 123 354 123 356 115 c 1,0,1
EndSplineSet
EndChar

StartChar: agrave
Encoding: 224 224 161
Width: 546
GlyphClass: 2
Flags: W
LayerCount: 2
Fore
SplineSet
105 745 m 1,0,1
 111 747 111 747 127.5 747 c 128,-1,2
 144 747 144 747 153 744 c 1,3,4
 227 619 227 619 352 551 c 1,5,-1
 342 527 l 1,6,-1
 80 624 l 1,7,8
 81 651 81 651 88.5 690.5 c 128,-1,9
 96 730 96 730 105 745 c 1,0,1
23 192 m 0,10,11
 23 292 23 292 93 377 c 128,-1,12
 163 462 163 462 265 505 c 1,13,14
 350 505 350 505 437 476 c 1,15,16
 460 503 460 503 471 539 c 1,17,-1
 493 532 l 1,18,19
 470 435 470 435 470 202 c 0,20,21
 470 99 470 99 478 40 c 1,22,23
 502 29 502 29 534 27 c 1,24,-1
 534 5 l 1,25,26
 426 5 426 5 313 -15 c 1,27,-1
 306 -8 l 1,28,29
 325 74 325 74 325 159 c 1,30,-1
 315 160 l 1,31,32
 278 61 278 61 192 -15 c 1,33,34
 117 -15 117 -15 70 47.5 c 128,-1,35
 23 110 23 110 23 192 c 0,10,11
182 238 m 0,36,37
 182 101 182 101 225 101 c 0,38,39
 242 101 242 101 267.5 133 c 128,-1,40
 293 165 293 165 316 227 c 1,41,42
 316 354 316 354 312 397 c 1,43,44
 286 429 286 429 243 429 c 0,45,46
 220 429 220 429 202 424 c 1,47,48
 182 345 182 345 182 238 c 0,36,37
EndSplineSet
EndChar

StartChar: aacute
Encoding: 225 225 162
Width: 546
GlyphClass: 2
Flags: W
LayerCount: 2
Fore
SplineSet
23 192 m 0,0,1
 23 292 23 292 93 377 c 128,-1,2
 163 462 163 462 265 505 c 1,3,4
 350 505 350 505 437 476 c 1,5,6
 460 503 460 503 471 539 c 1,7,-1
 493 532 l 1,8,9
 470 435 470 435 470 202 c 0,10,11
 470 99 470 99 478 40 c 1,12,13
 502 29 502 29 534 27 c 1,14,-1
 534 5 l 1,15,16
 426 5 426 5 313 -15 c 1,17,-1
 306 -8 l 1,18,19
 325 74 325 74 325 159 c 1,20,-1
 315 160 l 1,21,22
 278 61 278 61 192 -15 c 1,23,24
 117 -15 117 -15 70 47.5 c 128,-1,25
 23 110 23 110 23 192 c 0,0,1
182 238 m 0,26,27
 182 101 182 101 225 101 c 0,28,29
 242 101 242 101 267.5 133 c 128,-1,30
 293 165 293 165 316 227 c 1,31,32
 316 354 316 354 312 397 c 1,33,34
 286 429 286 429 243 429 c 0,35,36
 220 429 220 429 202 424 c 1,37,38
 182 345 182 345 182 238 c 0,26,27
413 744 m 1,39,40
 422 747 422 747 438.5 747 c 128,-1,41
 455 747 455 747 461 745 c 1,42,43
 470 730 470 730 477.5 690.5 c 128,-1,44
 485 651 485 651 486 624 c 1,45,-1
 224 527 l 1,46,-1
 214 551 l 1,47,48
 339 619 339 619 413 744 c 1,39,40
EndSplineSet
EndChar

StartChar: acircumflex
Encoding: 226 226 163
Width: 546
GlyphClass: 2
Flags: W
LayerCount: 2
Fore
SplineSet
286 747 m 128,-1,1
 301 747 301 747 307 745 c 1,2,3
 340 694 340 694 381.5 657 c 128,-1,4
 423 620 423 620 488 578 c 1,5,-1
 478 554 l 1,6,-1
 286 626 l 1,7,-1
 80 527 l 1,8,-1
 70 551 l 1,9,10
 196 627 196 627 265 745 c 1,11,0
 271 747 271 747 286 747 c 128,-1,1
23 192 m 0,12,13
 23 292 23 292 93 377 c 128,-1,14
 163 462 163 462 265 505 c 1,15,16
 350 505 350 505 437 476 c 1,17,18
 460 503 460 503 471 539 c 1,19,-1
 493 532 l 1,20,21
 470 435 470 435 470 202 c 0,22,23
 470 99 470 99 478 40 c 1,24,25
 502 29 502 29 534 27 c 1,26,-1
 534 5 l 1,27,28
 426 5 426 5 313 -15 c 1,29,-1
 306 -8 l 1,30,31
 325 74 325 74 325 159 c 1,32,-1
 315 160 l 1,33,34
 278 61 278 61 192 -15 c 1,35,36
 117 -15 117 -15 70 47.5 c 128,-1,37
 23 110 23 110 23 192 c 0,12,13
182 238 m 0,38,39
 182 101 182 101 225 101 c 0,40,41
 242 101 242 101 267.5 133 c 128,-1,42
 293 165 293 165 316 227 c 1,43,44
 316 354 316 354 312 397 c 1,45,46
 286 429 286 429 243 429 c 0,47,48
 220 429 220 429 202 424 c 1,49,50
 182 345 182 345 182 238 c 0,38,39
EndSplineSet
EndChar

StartChar: atilde
Encoding: 227 227 164
Width: 546
GlyphClass: 2
Flags: W
LayerCount: 2
Fore
SplineSet
23 192 m 0,0,1
 23 292 23 292 93 377 c 128,-1,2
 163 462 163 462 265 505 c 1,3,4
 350 505 350 505 437 476 c 1,5,6
 460 503 460 503 471 539 c 1,7,-1
 493 532 l 1,8,9
 470 435 470 435 470 202 c 0,10,11
 470 99 470 99 478 40 c 1,12,13
 502 29 502 29 534 27 c 1,14,-1
 534 5 l 1,15,16
 426 5 426 5 313 -15 c 1,17,-1
 306 -8 l 1,18,19
 325 74 325 74 325 159 c 1,20,-1
 315 160 l 1,21,22
 278 61 278 61 192 -15 c 1,23,24
 117 -15 117 -15 70 47.5 c 128,-1,25
 23 110 23 110 23 192 c 0,0,1
182 238 m 0,26,27
 182 101 182 101 225 101 c 0,28,29
 242 101 242 101 267.5 133 c 128,-1,30
 293 165 293 165 316 227 c 1,31,32
 316 354 316 354 312 397 c 1,33,34
 286 429 286 429 243 429 c 0,35,36
 220 429 220 429 202 424 c 1,37,38
 182 345 182 345 182 238 c 0,26,27
400 672 m 0,39,40
 459 672 459 672 486 711 c 1,41,-1
 510 694 l 1,42,43
 435 592 435 592 372 558 c 1,44,45
 345 558 345 558 277 584 c 128,-1,46
 209 610 209 610 180 610 c 0,47,48
 123 610 123 610 98 571 c 1,49,-1
 74 588 l 1,50,51
 146 688 146 688 243 723 c 1,52,53
 322 672 322 672 400 672 c 0,39,40
EndSplineSet
EndChar

StartChar: adieresis
Encoding: 228 228 165
Width: 546
GlyphClass: 2
Flags: W
LayerCount: 2
Fore
SplineSet
23 192 m 0,0,1
 23 292 23 292 93 377 c 128,-1,2
 163 462 163 462 265 505 c 1,3,4
 350 505 350 505 437 476 c 1,5,6
 460 503 460 503 471 539 c 1,7,-1
 493 532 l 1,8,9
 470 435 470 435 470 202 c 0,10,11
 470 99 470 99 478 40 c 1,12,13
 502 29 502 29 534 27 c 1,14,-1
 534 5 l 1,15,16
 426 5 426 5 313 -15 c 1,17,-1
 306 -8 l 1,18,19
 325 74 325 74 325 159 c 1,20,-1
 315 160 l 1,21,22
 278 61 278 61 192 -15 c 1,23,24
 117 -15 117 -15 70 47.5 c 128,-1,25
 23 110 23 110 23 192 c 0,0,1
182 238 m 0,26,27
 182 101 182 101 225 101 c 0,28,29
 242 101 242 101 267.5 133 c 128,-1,30
 293 165 293 165 316 227 c 1,31,32
 316 354 316 354 312 397 c 1,33,34
 286 429 286 429 243 429 c 0,35,36
 220 429 220 429 202 424 c 1,37,38
 182 345 182 345 182 238 c 0,26,27
258 641 m 1,39,40
 248 620 248 620 219.5 590.5 c 128,-1,41
 191 561 191 561 169 546 c 1,42,43
 147 561 147 561 118.5 590.5 c 128,-1,44
 90 620 90 620 79 641 c 1,45,46
 91 661 91 661 117.5 683.5 c 128,-1,47
 144 706 144 706 169 717 c 1,48,49
 192 705 192 705 218.5 682.5 c 128,-1,50
 245 660 245 660 258 641 c 1,39,40
480 641 m 1,51,52
 470 620 470 620 441.5 590.5 c 128,-1,53
 413 561 413 561 391 546 c 1,54,55
 369 561 369 561 340.5 590.5 c 128,-1,56
 312 620 312 620 301 641 c 1,57,58
 313 661 313 661 339.5 683.5 c 128,-1,59
 366 706 366 706 391 717 c 1,60,61
 414 705 414 705 440.5 682.5 c 128,-1,62
 467 660 467 660 480 641 c 1,51,52
EndSplineSet
EndChar

StartChar: aring
Encoding: 229 229 166
Width: 546
GlyphClass: 2
Flags: W
LayerCount: 2
Fore
SplineSet
23 192 m 0,0,1
 23 292 23 292 93 377 c 128,-1,2
 163 462 163 462 265 505 c 1,3,4
 350 505 350 505 437 476 c 1,5,6
 460 503 460 503 471 539 c 1,7,-1
 493 532 l 1,8,9
 470 435 470 435 470 202 c 0,10,11
 470 99 470 99 478 40 c 1,12,13
 502 29 502 29 534 27 c 1,14,-1
 534 5 l 1,15,16
 426 5 426 5 313 -15 c 1,17,-1
 306 -8 l 1,18,19
 325 74 325 74 325 159 c 1,20,-1
 315 160 l 1,21,22
 278 61 278 61 192 -15 c 1,23,24
 117 -15 117 -15 70 47.5 c 128,-1,25
 23 110 23 110 23 192 c 0,0,1
182 238 m 0,26,27
 182 101 182 101 225 101 c 0,28,29
 242 101 242 101 267.5 133 c 128,-1,30
 293 165 293 165 316 227 c 1,31,32
 316 354 316 354 312 397 c 1,33,34
 286 429 286 429 243 429 c 0,35,36
 220 429 220 429 202 424 c 1,37,38
 182 345 182 345 182 238 c 0,26,27
202 550.5 m 128,-1,40
 170 572 170 572 170 615 c 128,-1,41
 170 658 170 658 203.5 691.5 c 128,-1,42
 237 725 237 725 288 736 c 1,43,44
 391 736 391 736 391 652 c 0,45,46
 391 607 391 607 360 575 c 128,-1,47
 329 543 329 543 281 529 c 1,48,39
 234 529 234 529 202 550.5 c 128,-1,40
314.5 672 m 128,-1,50
 299 688 299 688 274 688 c 128,-1,51
 249 688 249 688 238 680 c 1,52,53
 231 662 231 662 231 635.5 c 128,-1,54
 231 609 231 609 247 592.5 c 128,-1,55
 263 576 263 576 286.5 576 c 128,-1,56
 310 576 310 576 323 585 c 1,57,58
 330 603 330 603 330 629.5 c 128,-1,49
 330 656 330 656 314.5 672 c 128,-1,50
EndSplineSet
EndChar

StartChar: ae
Encoding: 230 230 167
Width: 743
GlyphClass: 2
Flags: W
LayerCount: 2
Fore
SplineSet
579 92 m 0,0,1
 617 92 617 92 654 112.5 c 128,-1,2
 691 133 691 133 718 166 c 1,3,-1
 731 155 l 1,4,5
 669 44 669 44 540 -15 c 1,6,7
 380 -15 380 -15 333 122 c 1,8,9
 314 89 314 89 266 46.5 c 128,-1,10
 218 4 218 4 182 -15 c 1,11,12
 113 -6 113 -6 68.5 44 c 128,-1,13
 24 94 24 94 24 163 c 0,14,15
 24 265 24 265 110 366.5 c 128,-1,16
 196 468 196 468 302 505 c 1,17,18
 381 505 381 505 466 475 c 1,19,20
 482 488 482 488 496 497 c 1,21,22
 533 505 533 505 573 505 c 0,23,24
 636 505 636 505 670 470.5 c 128,-1,25
 704 436 704 436 704 373 c 0,26,27
 704 364 704 364 702 338 c 1,28,29
 726 332 726 332 738.5 332 c 128,-1,30
 751 332 751 332 755 333 c 1,31,-1
 757 311 l 1,32,33
 624 289 624 289 467 226 c 1,34,35
 476 92 476 92 579 92 c 0,0,1
187 193 m 0,36,37
 187 151 187 151 200.5 126 c 128,-1,38
 214 101 214 101 231 101 c 128,-1,39
 248 101 248 101 275.5 117.5 c 128,-1,40
 303 134 303 134 320 165 c 1,41,42
 320 258 320 258 377 379 c 1,43,44
 337 429 337 429 280 429 c 0,45,46
 256 429 256 429 239 424 c 1,47,48
 187 305 187 305 187 193 c 0,36,37
510 429 m 0,49,50
 492 429 492 429 476 421 c 1,51,52
 465 366 465 366 465 264 c 1,53,54
 501 281 501 281 564 305 c 1,55,56
 564 371 564 371 552.5 400 c 128,-1,57
 541 429 541 429 510 429 c 0,49,50
EndSplineSet
EndChar

StartChar: ccedilla
Encoding: 231 231 168
Width: 387
GlyphClass: 2
Flags: W
LayerCount: 2
Fore
SplineSet
83 45 m 128,-1,1
 24 105 24 105 24 200.5 c 128,-1,2
 24 296 24 296 94.5 380.5 c 128,-1,3
 165 465 165 465 260 505 c 1,4,5
 353 505 353 505 429 479 c 1,6,-1
 429 463 l 1,7,8
 380 419 380 419 364.5 389 c 128,-1,9
 349 359 349 359 343 310 c 1,10,-1
 319 310 l 1,11,12
 316 349 316 349 309 374 c 1,13,14
 264 417 264 417 202 424 c 1,15,16
 184 327 184 327 184 247 c 0,17,18
 184 94 184 94 277 94 c 0,19,20
 307 94 307 94 338 114.5 c 128,-1,21
 369 135 369 135 386 164 c 1,22,-1
 402 156 l 1,23,24
 343 34 343 34 241 -15 c 1,25,0
 142 -15 142 -15 83 45 c 128,-1,1
205 -175 m 0,26,27
 222 -175 222 -175 234 -170 c 1,28,29
 240 -159 240 -159 240 -147 c 0,30,31
 240 -107 240 -107 151 -107 c 1,32,-1
 145 -103 l 1,33,-1
 183 14 l 1,34,-1
 222 16 l 1,35,-1
 199 -36 l 1,36,-1
 203 -39 l 1,37,38
 317 -39 317 -39 317 -116 c 1,39,40
 278 -191 278 -191 195 -235 c 1,41,42
 141 -235 141 -235 97 -214 c 1,43,44
 124 -173 124 -173 133 -138 c 1,45,-1
 137 -136 l 1,46,47
 161 -175 161 -175 205 -175 c 0,26,27
EndSplineSet
EndChar

StartChar: egrave
Encoding: 232 232 169
Width: 479
GlyphClass: 2
Flags: W
LayerCount: 2
Fore
SplineSet
294 92 m 0,0,1
 332 92 332 92 369 112.5 c 128,-1,2
 406 133 406 133 433 166 c 1,3,-1
 446 155 l 1,4,5
 384 44 384 44 255 -15 c 1,6,7
 149 -15 149 -15 86.5 43 c 128,-1,8
 24 101 24 101 24 198.5 c 128,-1,9
 24 296 24 296 95 381 c 128,-1,10
 166 466 166 466 260 505 c 1,11,12
 442 505 442 505 442 379 c 0,13,14
 442 347 442 347 433 311 c 1,15,16
 460 298 460 298 483 297 c 1,17,-1
 482 275 l 1,18,19
 475 275 475 275 468 275 c 0,20,21
 340 275 340 275 184 241 c 1,22,23
 184 167 184 167 207.5 129.5 c 128,-1,24
 231 92 231 92 294 92 c 0,0,1
236 432 m 0,25,26
 217 432 217 432 201 424 c 1,27,28
 186 349 186 349 184 268 c 1,29,30
 234 289 234 289 284 300 c 1,31,32
 284 378 284 378 275 405 c 128,-1,33
 266 432 266 432 236 432 c 0,25,26
74 745 m 1,34,35
 80 747 80 747 96.5 747 c 128,-1,36
 113 747 113 747 122 744 c 1,37,38
 196 619 196 619 321 551 c 1,39,-1
 311 527 l 1,40,-1
 49 624 l 1,41,42
 50 651 50 651 57.5 690.5 c 128,-1,43
 65 730 65 730 74 745 c 1,34,35
EndSplineSet
EndChar

StartChar: eacute
Encoding: 233 233 170
Width: 479
GlyphClass: 2
Flags: W
LayerCount: 2
Fore
SplineSet
294 92 m 0,0,1
 332 92 332 92 369 112.5 c 128,-1,2
 406 133 406 133 433 166 c 1,3,-1
 446 155 l 1,4,5
 384 44 384 44 255 -15 c 1,6,7
 149 -15 149 -15 86.5 43 c 128,-1,8
 24 101 24 101 24 198.5 c 128,-1,9
 24 296 24 296 95 381 c 128,-1,10
 166 466 166 466 260 505 c 1,11,12
 442 505 442 505 442 379 c 0,13,14
 442 347 442 347 433 311 c 1,15,16
 460 298 460 298 483 297 c 1,17,-1
 482 275 l 1,18,19
 475 275 475 275 468 275 c 0,20,21
 340 275 340 275 184 241 c 1,22,23
 184 167 184 167 207.5 129.5 c 128,-1,24
 231 92 231 92 294 92 c 0,0,1
236 432 m 0,25,26
 217 432 217 432 201 424 c 1,27,28
 186 349 186 349 184 268 c 1,29,30
 234 289 234 289 284 300 c 1,31,32
 284 378 284 378 275 405 c 128,-1,33
 266 432 266 432 236 432 c 0,25,26
387 744 m 1,34,35
 396 747 396 747 412.5 747 c 128,-1,36
 429 747 429 747 435 745 c 1,37,38
 444 730 444 730 451.5 690.5 c 128,-1,39
 459 651 459 651 460 624 c 1,40,-1
 198 527 l 1,41,-1
 188 551 l 1,42,43
 313 619 313 619 387 744 c 1,34,35
EndSplineSet
EndChar

StartChar: ecircumflex
Encoding: 234 234 171
Width: 557
GlyphClass: 2
Flags: W
LayerCount: 2
Fore
SplineSet
294 92 m 0,0,1
 332 92 332 92 369 112.5 c 128,-1,2
 406 133 406 133 433 166 c 1,3,-1
 446 155 l 1,4,5
 384 44 384 44 255 -15 c 1,6,7
 149 -15 149 -15 86.5 43 c 128,-1,8
 24 101 24 101 24 198.5 c 128,-1,9
 24 296 24 296 95 381 c 128,-1,10
 166 466 166 466 260 505 c 1,11,12
 442 505 442 505 442 379 c 0,13,14
 442 347 442 347 433 311 c 1,15,16
 460 298 460 298 483 297 c 1,17,-1
 482 275 l 1,18,19
 475 275 475 275 468 275 c 0,20,21
 340 275 340 275 184 241 c 1,22,23
 184 167 184 167 207.5 129.5 c 128,-1,24
 231 92 231 92 294 92 c 0,0,1
236 432 m 0,25,26
 217 432 217 432 201 424 c 1,27,28
 186 349 186 349 184 268 c 1,29,30
 234 289 234 289 284 300 c 1,31,32
 284 378 284 378 275 405 c 128,-1,33
 266 432 266 432 236 432 c 0,25,26
274 747 m 128,-1,35
 289 747 289 747 295 745 c 1,36,37
 364 627 364 627 490 551 c 1,38,-1
 480 527 l 1,39,-1
 274 606 l 1,40,-1
 68 527 l 1,41,-1
 58 551 l 1,42,43
 184 627 184 627 253 745 c 1,44,34
 259 747 259 747 274 747 c 128,-1,35
EndSplineSet
EndChar

StartChar: edieresis
Encoding: 235 235 172
Width: 479
GlyphClass: 2
Flags: W
LayerCount: 2
Fore
SplineSet
294 92 m 0,0,1
 332 92 332 92 369 112.5 c 128,-1,2
 406 133 406 133 433 166 c 1,3,-1
 446 155 l 1,4,5
 384 44 384 44 255 -15 c 1,6,7
 149 -15 149 -15 86.5 43 c 128,-1,8
 24 101 24 101 24 198.5 c 128,-1,9
 24 296 24 296 95 381 c 128,-1,10
 166 466 166 466 260 505 c 1,11,12
 442 505 442 505 442 379 c 0,13,14
 442 347 442 347 433 311 c 1,15,16
 460 298 460 298 483 297 c 1,17,-1
 482 275 l 1,18,19
 475 275 475 275 468 275 c 0,20,21
 340 275 340 275 184 241 c 1,22,23
 184 167 184 167 207.5 129.5 c 128,-1,24
 231 92 231 92 294 92 c 0,0,1
236 432 m 0,25,26
 217 432 217 432 201 424 c 1,27,28
 186 349 186 349 184 268 c 1,29,30
 234 289 234 289 284 300 c 1,31,32
 284 378 284 378 275 405 c 128,-1,33
 266 432 266 432 236 432 c 0,25,26
253 641 m 1,34,35
 243 620 243 620 214.5 590.5 c 128,-1,36
 186 561 186 561 164 546 c 1,37,38
 142 561 142 561 113.5 590.5 c 128,-1,39
 85 620 85 620 74 641 c 1,40,41
 86 661 86 661 112.5 683.5 c 128,-1,42
 139 706 139 706 164 717 c 1,43,44
 187 705 187 705 213.5 682.5 c 128,-1,45
 240 660 240 660 253 641 c 1,34,35
475 641 m 1,46,47
 465 620 465 620 436.5 590.5 c 128,-1,48
 408 561 408 561 386 546 c 1,49,50
 364 561 364 561 335.5 590.5 c 128,-1,51
 307 620 307 620 296 641 c 1,52,53
 308 661 308 661 334.5 683.5 c 128,-1,54
 361 706 361 706 386 717 c 1,55,56
 409 705 409 705 435.5 682.5 c 128,-1,57
 462 660 462 660 475 641 c 1,46,47
EndSplineSet
EndChar

StartChar: igrave
Encoding: 236 236 173
Width: 328
GlyphClass: 2
Flags: W
LayerCount: 2
Fore
SplineSet
93 322 m 0,0,1
 93 384 93 384 85 450 c 1,2,3
 61 461 61 461 29 463 c 1,4,-1
 29 485 l 1,5,6
 148 485 148 485 260 505 c 1,7,-1
 267 498 l 1,8,9
 246 408 246 408 246 243 c 128,-1,10
 246 78 246 78 255 35 c 1,11,12
 290 25 290 25 321 11 c 1,13,-1
 318 -9 l 1,14,15
 250 0 250 0 160.5 0 c 128,-1,16
 71 0 71 0 20 -7 c 1,17,-1
 17 13 l 1,18,19
 33 22 33 22 79 38 c 1,20,21
 93 108 93 108 93 322 c 0,0,1
38 745 m 1,22,23
 44 747 44 747 60.5 747 c 128,-1,24
 77 747 77 747 86 744 c 1,25,26
 160 619 160 619 285 551 c 1,27,-1
 275 527 l 1,28,-1
 13 624 l 1,29,30
 14 651 14 651 21.5 690.5 c 128,-1,31
 29 730 29 730 38 745 c 1,22,23
EndSplineSet
EndChar

StartChar: iacute
Encoding: 237 237 174
Width: 328
GlyphClass: 2
Flags: W
LayerCount: 2
Fore
SplineSet
93 322 m 0,0,1
 93 384 93 384 85 450 c 1,2,3
 61 461 61 461 29 463 c 1,4,-1
 29 485 l 1,5,6
 148 485 148 485 260 505 c 1,7,-1
 267 498 l 1,8,9
 246 408 246 408 246 243 c 128,-1,10
 246 78 246 78 255 35 c 1,11,12
 290 25 290 25 321 11 c 1,13,-1
 318 -9 l 1,14,15
 250 0 250 0 160.5 0 c 128,-1,16
 71 0 71 0 20 -7 c 1,17,-1
 17 13 l 1,18,19
 33 22 33 22 79 38 c 1,20,21
 93 108 93 108 93 322 c 0,0,1
244 744 m 1,22,23
 253 747 253 747 269.5 747 c 128,-1,24
 286 747 286 747 292 745 c 1,25,26
 301 730 301 730 308.5 690.5 c 128,-1,27
 316 651 316 651 317 624 c 1,28,-1
 55 527 l 1,29,-1
 45 551 l 1,30,31
 170 619 170 619 244 744 c 1,22,23
EndSplineSet
EndChar

StartChar: icircumflex
Encoding: 238 238 175
Width: 328
GlyphClass: 2
Flags: W
LayerCount: 2
Fore
SplineSet
93 322 m 0,0,1
 93 384 93 384 85 450 c 1,2,3
 61 461 61 461 29 463 c 1,4,-1
 29 485 l 1,5,6
 148 485 148 485 260 505 c 1,7,-1
 267 498 l 1,8,9
 246 408 246 408 246 243 c 128,-1,10
 246 78 246 78 255 35 c 1,11,12
 290 25 290 25 321 11 c 1,13,-1
 318 -9 l 1,14,15
 250 0 250 0 160.5 0 c 128,-1,16
 71 0 71 0 20 -7 c 1,17,-1
 17 13 l 1,18,19
 33 22 33 22 79 38 c 1,20,21
 93 108 93 108 93 322 c 0,0,1
175 747 m 128,-1,23
 190 747 190 747 196 745 c 1,24,25
 265 627 265 627 391 551 c 1,26,-1
 381 527 l 1,27,-1
 175 606 l 1,28,-1
 -31 527 l 1,29,-1
 -41 551 l 1,30,31
 85 627 85 627 154 745 c 1,32,22
 160 747 160 747 175 747 c 128,-1,23
EndSplineSet
EndChar

StartChar: idieresis
Encoding: 239 239 176
Width: 328
GlyphClass: 2
Flags: W
LayerCount: 2
Fore
SplineSet
154 641 m 1,0,1
 144 620 144 620 115.5 590.5 c 128,-1,2
 87 561 87 561 65 546 c 1,3,4
 43 561 43 561 14.5 590.5 c 128,-1,5
 -14 620 -14 620 -25 641 c 1,6,7
 -13 661 -13 661 13.5 683.5 c 128,-1,8
 40 706 40 706 65 717 c 1,9,10
 88 705 88 705 114.5 682.5 c 128,-1,11
 141 660 141 660 154 641 c 1,0,1
362 641 m 1,12,13
 352 620 352 620 323.5 590.5 c 128,-1,14
 295 561 295 561 273 546 c 1,15,16
 251 561 251 561 222.5 590.5 c 128,-1,17
 194 620 194 620 183 641 c 1,18,19
 195 661 195 661 221.5 683.5 c 128,-1,20
 248 706 248 706 273 717 c 1,21,22
 296 705 296 705 322.5 682.5 c 128,-1,23
 349 660 349 660 362 641 c 1,12,13
93 322 m 0,24,25
 93 384 93 384 85 450 c 1,26,27
 61 461 61 461 29 463 c 1,28,-1
 29 485 l 1,29,30
 148 485 148 485 260 505 c 1,31,-1
 267 498 l 1,32,33
 246 408 246 408 246 243 c 128,-1,34
 246 78 246 78 255 35 c 1,35,36
 290 25 290 25 321 11 c 1,37,-1
 318 -9 l 1,38,39
 250 0 250 0 160.5 0 c 128,-1,40
 71 0 71 0 20 -7 c 1,41,-1
 17 13 l 1,42,43
 33 22 33 22 79 38 c 1,44,45
 93 108 93 108 93 322 c 0,24,25
EndSplineSet
EndChar

StartChar: eth
Encoding: 240 240 177
Width: 512
GlyphClass: 2
Flags: W
LayerCount: 2
Fore
SplineSet
488 272 m 0,0,1
 488 168 488 168 411 83.5 c 128,-1,2
 334 -1 334 -1 214 -15 c 1,3,4
 131 -5 131 -5 77.5 48.5 c 128,-1,5
 24 102 24 102 24 186.5 c 128,-1,6
 24 271 24 271 93.5 335 c 128,-1,7
 163 399 163 399 274 419 c 1,8,9
 296 407 296 407 329 371 c 1,10,-1
 335 374 l 1,11,12
 297 470 297 470 254 528 c 1,13,-1
 131 441 l 1,14,-1
 121 443 l 1,15,-1
 96 490 l 1,16,17
 202 555 202 555 221 568 c 1,18,19
 167 628 167 628 71 688 c 1,20,-1
 85 711 l 1,21,22
 189 673 189 673 280 609 c 1,23,-1
 326 641 l 1,24,25
 361 664 361 664 410 706 c 1,26,-1
 419 704 l 1,27,-1
 442 659 l 1,28,-1
 324 576 l 1,29,30
 488 440 488 440 488 272 c 0,0,1
328 231 m 0,31,32
 328 276 328 276 321 306 c 1,33,34
 287 354 287 354 242 367 c 1,35,36
 215 367 215 367 200 323.5 c 128,-1,37
 185 280 185 280 185 223.5 c 128,-1,38
 185 167 185 167 191.5 135 c 128,-1,39
 198 103 198 103 218.5 77.5 c 128,-1,40
 239 52 239 52 267 52 c 128,-1,41
 295 52 295 52 306 62 c 1,42,43
 328 118 328 118 328 231 c 0,31,32
EndSplineSet
EndChar

StartChar: ntilde
Encoding: 241 241 178
Width: 547
GlyphClass: 2
Flags: W
LayerCount: 2
Fore
SplineSet
88 322 m 0,0,1
 88 384 88 384 80 450 c 1,2,3
 56 461 56 461 24 463 c 1,4,-1
 24 485 l 1,5,6
 132 485 132 485 245 505 c 1,7,-1
 252 498 l 1,8,9
 233 416 233 416 233 331 c 1,10,-1
 243 330 l 1,11,12
 263 381 263 381 298 430 c 128,-1,13
 333 479 333 479 373 505 c 1,14,15
 462 505 462 505 495 453 c 128,-1,16
 528 401 528 401 528 311 c 0,17,18
 528 303 528 303 528 295 c 2,19,-1
 520 38 l 1,20,21
 554 26 554 26 579 12 c 1,22,-1
 576 -7 l 1,23,24
 520 0 520 0 453 0 c 128,-1,25
 386 0 386 0 348 -3 c 1,26,-1
 348 18 l 1,27,28
 368 110 368 110 368 219.5 c 128,-1,29
 368 329 368 329 362 359 c 128,-1,30
 356 389 356 389 339 389 c 0,31,32
 315 389 315 389 287.5 354 c 128,-1,33
 260 319 260 319 241 263 c 1,34,35
 241 78 241 78 250 35 c 1,36,37
 285 25 285 25 316 11 c 1,38,-1
 313 -9 l 1,39,40
 246 0 246 0 156 0 c 128,-1,41
 66 0 66 0 15 -7 c 1,42,-1
 12 13 l 1,43,44
 37 27 37 27 74 38 c 1,45,46
 88 108 88 108 88 322 c 0,0,1
421 672 m 0,47,48
 480 672 480 672 507 711 c 1,49,-1
 531 694 l 1,50,51
 456 592 456 592 393 558 c 1,52,53
 366 558 366 558 298 584 c 128,-1,54
 230 610 230 610 201 610 c 0,55,56
 144 610 144 610 119 571 c 1,57,-1
 95 588 l 1,58,59
 167 688 167 688 264 723 c 1,60,61
 343 672 343 672 421 672 c 0,47,48
EndSplineSet
EndChar

StartChar: ograve
Encoding: 242 242 179
Width: 488
GlyphClass: 2
Flags: W
LayerCount: 2
Fore
SplineSet
91 42.5 m 128,-1,1
 28 100 28 100 28 197.5 c 128,-1,2
 28 295 28 295 99 379 c 128,-1,3
 170 463 170 463 271 505 c 1,4,5
 381 505 381 505 436.5 450.5 c 128,-1,6
 492 396 492 396 492 295 c 128,-1,7
 492 194 492 194 425.5 110 c 128,-1,8
 359 26 359 26 260 -15 c 1,9,0
 154 -15 154 -15 91 42.5 c 128,-1,1
250 432 m 0,10,11
 227 432 227 432 210 424 c 1,12,13
 192 348 192 348 192 253.5 c 128,-1,14
 192 159 192 159 208 108.5 c 128,-1,15
 224 58 224 58 270 58 c 0,16,17
 297 58 297 58 310 66 c 1,18,19
 328 142 328 142 328 236.5 c 128,-1,20
 328 331 328 331 312 381.5 c 128,-1,21
 296 432 296 432 250 432 c 0,10,11
100 745 m 1,22,23
 106 747 106 747 122.5 747 c 128,-1,24
 139 747 139 747 148 744 c 1,25,26
 222 619 222 619 347 551 c 1,27,-1
 337 527 l 1,28,-1
 75 624 l 1,29,30
 76 651 76 651 83.5 690.5 c 128,-1,31
 91 730 91 730 100 745 c 1,22,23
EndSplineSet
EndChar

StartChar: oacute
Encoding: 243 243 180
Width: 488
GlyphClass: 2
Flags: W
LayerCount: 2
Fore
SplineSet
91 42.5 m 128,-1,1
 28 100 28 100 28 197.5 c 128,-1,2
 28 295 28 295 99 379 c 128,-1,3
 170 463 170 463 271 505 c 1,4,5
 381 505 381 505 436.5 450.5 c 128,-1,6
 492 396 492 396 492 295 c 128,-1,7
 492 194 492 194 425.5 110 c 128,-1,8
 359 26 359 26 260 -15 c 1,9,0
 154 -15 154 -15 91 42.5 c 128,-1,1
250 432 m 0,10,11
 227 432 227 432 210 424 c 1,12,13
 192 348 192 348 192 253.5 c 128,-1,14
 192 159 192 159 208 108.5 c 128,-1,15
 224 58 224 58 270 58 c 0,16,17
 297 58 297 58 310 66 c 1,18,19
 328 142 328 142 328 236.5 c 128,-1,20
 328 331 328 331 312 381.5 c 128,-1,21
 296 432 296 432 250 432 c 0,10,11
382 744 m 1,22,23
 391 747 391 747 407.5 747 c 128,-1,24
 424 747 424 747 430 745 c 1,25,26
 439 730 439 730 446.5 690.5 c 128,-1,27
 454 651 454 651 455 624 c 1,28,-1
 193 527 l 1,29,-1
 183 551 l 1,30,31
 308 619 308 619 382 744 c 1,22,23
EndSplineSet
EndChar

StartChar: ocircumflex
Encoding: 244 244 181
Width: 488
GlyphClass: 2
Flags: W
LayerCount: 2
Fore
SplineSet
91 42.5 m 128,-1,1
 28 100 28 100 28 197.5 c 128,-1,2
 28 295 28 295 99 379 c 128,-1,3
 170 463 170 463 271 505 c 1,4,5
 381 505 381 505 436.5 450.5 c 128,-1,6
 492 396 492 396 492 295 c 128,-1,7
 492 194 492 194 425.5 110 c 128,-1,8
 359 26 359 26 260 -15 c 1,9,0
 154 -15 154 -15 91 42.5 c 128,-1,1
250 432 m 0,10,11
 227 432 227 432 210 424 c 1,12,13
 192 348 192 348 192 253.5 c 128,-1,14
 192 159 192 159 208 108.5 c 128,-1,15
 224 58 224 58 270 58 c 0,16,17
 297 58 297 58 310 66 c 1,18,19
 328 142 328 142 328 236.5 c 128,-1,20
 328 331 328 331 312 381.5 c 128,-1,21
 296 432 296 432 250 432 c 0,10,11
289 747 m 128,-1,23
 304 747 304 747 310 745 c 1,24,25
 379 627 379 627 505 551 c 1,26,-1
 495 527 l 1,27,-1
 289 606 l 1,28,-1
 83 527 l 1,29,-1
 73 551 l 1,30,31
 199 627 199 627 268 745 c 1,32,22
 274 747 274 747 289 747 c 128,-1,23
EndSplineSet
EndChar

StartChar: otilde
Encoding: 245 245 182
Width: 488
GlyphClass: 2
Flags: W
LayerCount: 2
Fore
SplineSet
91 42.5 m 128,-1,1
 28 100 28 100 28 197.5 c 128,-1,2
 28 295 28 295 99 379 c 128,-1,3
 170 463 170 463 271 505 c 1,4,5
 381 505 381 505 436.5 450.5 c 128,-1,6
 492 396 492 396 492 295 c 128,-1,7
 492 194 492 194 425.5 110 c 128,-1,8
 359 26 359 26 260 -15 c 1,9,0
 154 -15 154 -15 91 42.5 c 128,-1,1
250 432 m 0,10,11
 227 432 227 432 210 424 c 1,12,13
 192 348 192 348 192 253.5 c 128,-1,14
 192 159 192 159 208 108.5 c 128,-1,15
 224 58 224 58 270 58 c 0,16,17
 297 58 297 58 310 66 c 1,18,19
 328 142 328 142 328 236.5 c 128,-1,20
 328 331 328 331 312 381.5 c 128,-1,21
 296 432 296 432 250 432 c 0,10,11
389 672 m 0,22,23
 448 672 448 672 475 711 c 1,24,-1
 499 694 l 1,25,26
 424 592 424 592 361 558 c 1,27,28
 334 558 334 558 266 584 c 128,-1,29
 198 610 198 610 169 610 c 0,30,31
 112 610 112 610 87 571 c 1,32,-1
 63 588 l 1,33,34
 135 688 135 688 232 723 c 1,35,36
 311 672 311 672 389 672 c 0,22,23
EndSplineSet
EndChar

StartChar: odieresis
Encoding: 246 246 183
Width: 488
GlyphClass: 2
Flags: W
LayerCount: 2
Fore
SplineSet
91 42.5 m 128,-1,1
 28 100 28 100 28 197.5 c 128,-1,2
 28 295 28 295 99 379 c 128,-1,3
 170 463 170 463 271 505 c 1,4,5
 381 505 381 505 436.5 450.5 c 128,-1,6
 492 396 492 396 492 295 c 128,-1,7
 492 194 492 194 425.5 110 c 128,-1,8
 359 26 359 26 260 -15 c 1,9,0
 154 -15 154 -15 91 42.5 c 128,-1,1
250 432 m 0,10,11
 227 432 227 432 210 424 c 1,12,13
 192 348 192 348 192 253.5 c 128,-1,14
 192 159 192 159 208 108.5 c 128,-1,15
 224 58 224 58 270 58 c 0,16,17
 297 58 297 58 310 66 c 1,18,19
 328 142 328 142 328 236.5 c 128,-1,20
 328 331 328 331 312 381.5 c 128,-1,21
 296 432 296 432 250 432 c 0,10,11
237 641 m 1,22,23
 227 620 227 620 198.5 590.5 c 128,-1,24
 170 561 170 561 148 546 c 1,25,26
 126 561 126 561 97.5 590.5 c 128,-1,27
 69 620 69 620 58 641 c 1,28,29
 70 661 70 661 96.5 683.5 c 128,-1,30
 123 706 123 706 148 717 c 1,31,32
 171 705 171 705 197.5 682.5 c 128,-1,33
 224 660 224 660 237 641 c 1,22,23
459 641 m 1,34,35
 449 620 449 620 420.5 590.5 c 128,-1,36
 392 561 392 561 370 546 c 1,37,38
 348 561 348 561 319.5 590.5 c 128,-1,39
 291 620 291 620 280 641 c 1,40,41
 292 661 292 661 318.5 683.5 c 128,-1,42
 345 706 345 706 370 717 c 1,43,44
 393 705 393 705 419.5 682.5 c 128,-1,45
 446 660 446 660 459 641 c 1,34,35
EndSplineSet
EndChar

StartChar: divide
Encoding: 247 247 184
Width: 576
GlyphClass: 2
Flags: W
LayerCount: 2
Fore
SplineSet
343 390 m 128,-1,1
 343 369 343 369 326 351 c 128,-1,2
 309 333 309 333 288.5 333 c 128,-1,3
 268 333 268 333 250 351.5 c 128,-1,4
 232 370 232 370 232 390.5 c 128,-1,5
 232 411 232 411 250 428.5 c 128,-1,6
 268 446 268 446 288.5 446 c 128,-1,7
 309 446 309 446 326 428.5 c 128,-1,0
 343 411 343 411 343 390 c 128,-1,1
343 107 m 128,-1,9
 343 86 343 86 326 68 c 128,-1,10
 309 50 309 50 288.5 50 c 128,-1,11
 268 50 268 50 250 68.5 c 128,-1,12
 232 87 232 87 232 107.5 c 128,-1,13
 232 128 232 128 250 145.5 c 128,-1,14
 268 163 268 163 288.5 163 c 128,-1,15
 309 163 309 163 326 145.5 c 128,-1,8
 343 128 343 128 343 107 c 128,-1,9
66 290 m 1,16,17
 236 281 236 281 355.5 281 c 128,-1,18
 475 281 475 281 514 284 c 1,19,-1
 520 278 l 1,20,-1
 511 217 l 1,21,-1
 65 217 l 1,22,-1
 57 224 l 1,23,-1
 66 290 l 1,16,17
EndSplineSet
EndChar

StartChar: oslash
Encoding: 248 248 185
Width: 519
GlyphClass: 2
Flags: W
LayerCount: 2
Fore
SplineSet
28 198 m 0,0,1
 28 295 28 295 99 379 c 128,-1,2
 170 463 170 463 271 505 c 1,3,4
 300 505 300 505 328 500 c 1,5,6
 342 544 342 544 349 569 c 1,7,8
 371 570 371 570 392 578 c 1,9,-1
 397 574 l 1,10,11
 378 534 378 534 363 492 c 1,12,13
 492 453 492 453 492 292 c 0,14,15
 492 194 492 194 425.5 110 c 128,-1,16
 359 26 359 26 260 -15 c 1,17,18
 213 -15 213 -15 174 -3 c 1,19,-1
 140 -95 l 1,20,-1
 134 -95 l 1,21,22
 116 -85 116 -85 105 -66 c 1,23,-1
 139 10 l 1,24,25
 86 35 86 35 57 83.5 c 128,-1,26
 28 132 28 132 28 198 c 0,0,1
270 58 m 0,27,28
 297 58 297 58 310 66 c 1,29,30
 328 142 328 142 328 231.5 c 128,-1,31
 328 321 328 321 316 368 c 1,32,-1
 213 97 l 1,33,34
 230 58 230 58 270 58 c 0,27,28
297 410 m 1,35,36
 278 432 278 432 252.5 432 c 128,-1,37
 227 432 227 432 210 424 c 1,38,39
 192 348 192 348 192 269 c 128,-1,40
 192 190 192 190 197 153 c 1,41,-1
 297 410 l 1,35,36
EndSplineSet
EndChar

StartChar: ugrave
Encoding: 249 249 186
Width: 600
GlyphClass: 2
Flags: W
LayerCount: 2
Fore
SplineSet
229 231 m 0,0,1
 229 161 229 161 235 131 c 128,-1,2
 241 101 241 101 258 101 c 0,3,4
 282 101 282 101 309.5 136 c 128,-1,5
 337 171 337 171 356 227 c 1,6,7
 356 412 356 412 347 455 c 1,8,9
 312 465 312 465 281 479 c 1,10,-1
 284 499 l 1,11,12
 352 490 352 490 441.5 490 c 128,-1,13
 531 490 531 490 582 497 c 1,14,-1
 585 477 l 1,15,16
 569 468 569 468 523 452 c 1,17,18
 509 382 509 382 509 168 c 1,19,20
 511 90 511 90 517 40 c 1,21,22
 541 29 541 29 573 27 c 1,23,-1
 573 5 l 1,24,25
 464 5 464 5 352 -15 c 1,26,-1
 345 -8 l 1,27,28
 364 74 364 74 364 159 c 1,29,-1
 354 160 l 1,30,31
 334 109 334 109 299 60 c 128,-1,32
 264 11 264 11 224 -15 c 1,33,34
 133 -15 133 -15 102 35.5 c 128,-1,35
 71 86 71 86 71 183 c 0,36,37
 71 189 71 189 71 195 c 2,38,-1
 74 322 l 2,39,40
 74 335 74 335 74 367.5 c 128,-1,41
 74 400 74 400 68 450 c 1,42,43
 44 461 44 461 12 463 c 1,44,-1
 12 485 l 1,45,46
 130 485 130 485 243 505 c 1,47,-1
 250 498 l 1,48,49
 229 408 229 408 229 231 c 0,0,1
119 745 m 1,50,51
 125 747 125 747 141.5 747 c 128,-1,52
 158 747 158 747 167 744 c 1,53,54
 241 619 241 619 366 551 c 1,55,-1
 356 527 l 1,56,-1
 94 624 l 1,57,58
 95 651 95 651 102.5 690.5 c 128,-1,59
 110 730 110 730 119 745 c 1,50,51
EndSplineSet
EndChar

StartChar: uacute
Encoding: 250 250 187
Width: 600
GlyphClass: 2
Flags: W
LayerCount: 2
Fore
SplineSet
229 231 m 0,0,1
 229 161 229 161 235 131 c 128,-1,2
 241 101 241 101 258 101 c 0,3,4
 282 101 282 101 309.5 136 c 128,-1,5
 337 171 337 171 356 227 c 1,6,7
 356 412 356 412 347 455 c 1,8,9
 312 465 312 465 281 479 c 1,10,-1
 284 499 l 1,11,12
 352 490 352 490 441.5 490 c 128,-1,13
 531 490 531 490 582 497 c 1,14,-1
 585 477 l 1,15,16
 569 468 569 468 523 452 c 1,17,18
 509 382 509 382 509 168 c 1,19,20
 511 90 511 90 517 40 c 1,21,22
 541 29 541 29 573 27 c 1,23,-1
 573 5 l 1,24,25
 464 5 464 5 352 -15 c 1,26,-1
 345 -8 l 1,27,28
 364 74 364 74 364 159 c 1,29,-1
 354 160 l 1,30,31
 334 109 334 109 299 60 c 128,-1,32
 264 11 264 11 224 -15 c 1,33,34
 133 -15 133 -15 102 35.5 c 128,-1,35
 71 86 71 86 71 183 c 0,36,37
 71 189 71 189 71 195 c 2,38,-1
 74 322 l 2,39,40
 74 335 74 335 74 367.5 c 128,-1,41
 74 400 74 400 68 450 c 1,42,43
 44 461 44 461 12 463 c 1,44,-1
 12 485 l 1,45,46
 130 485 130 485 243 505 c 1,47,-1
 250 498 l 1,48,49
 229 408 229 408 229 231 c 0,0,1
418 744 m 1,50,51
 427 747 427 747 443.5 747 c 128,-1,52
 460 747 460 747 466 745 c 1,53,54
 475 730 475 730 482.5 690.5 c 128,-1,55
 490 651 490 651 491 624 c 1,56,-1
 229 527 l 1,57,-1
 219 551 l 1,58,59
 344 619 344 619 418 744 c 1,50,51
EndSplineSet
EndChar

StartChar: ucircumflex
Encoding: 251 251 188
Width: 604
GlyphClass: 2
Flags: W
LayerCount: 2
Fore
SplineSet
229 231 m 0,0,1
 229 161 229 161 235 131 c 128,-1,2
 241 101 241 101 258 101 c 0,3,4
 282 101 282 101 309.5 136 c 128,-1,5
 337 171 337 171 356 227 c 1,6,7
 356 412 356 412 347 455 c 1,8,9
 312 465 312 465 281 479 c 1,10,-1
 284 499 l 1,11,12
 352 490 352 490 441.5 490 c 128,-1,13
 531 490 531 490 582 497 c 1,14,-1
 585 477 l 1,15,16
 569 468 569 468 523 452 c 1,17,18
 509 382 509 382 509 168 c 1,19,20
 511 90 511 90 517 40 c 1,21,22
 541 29 541 29 573 27 c 1,23,-1
 573 5 l 1,24,25
 464 5 464 5 352 -15 c 1,26,-1
 345 -8 l 1,27,28
 364 74 364 74 364 159 c 1,29,-1
 354 160 l 1,30,31
 334 109 334 109 299 60 c 128,-1,32
 264 11 264 11 224 -15 c 1,33,34
 133 -15 133 -15 102 35.5 c 128,-1,35
 71 86 71 86 71 183 c 0,36,37
 71 189 71 189 71 195 c 2,38,-1
 74 322 l 2,39,40
 74 335 74 335 74 367.5 c 128,-1,41
 74 400 74 400 68 450 c 1,42,43
 44 461 44 461 12 463 c 1,44,-1
 12 485 l 1,45,46
 130 485 130 485 243 505 c 1,47,-1
 250 498 l 1,48,49
 229 408 229 408 229 231 c 0,0,1
291 747 m 128,-1,51
 306 747 306 747 312 745 c 1,52,53
 381 627 381 627 507 551 c 1,54,-1
 497 527 l 1,55,-1
 291 606 l 1,56,-1
 85 527 l 1,57,-1
 75 551 l 1,58,59
 201 627 201 627 270 745 c 1,60,50
 276 747 276 747 291 747 c 128,-1,51
EndSplineSet
EndChar

StartChar: udieresis
Encoding: 252 252 189
Width: 600
GlyphClass: 2
Flags: W
LayerCount: 2
Fore
SplineSet
229 231 m 0,0,1
 229 161 229 161 235 131 c 128,-1,2
 241 101 241 101 258 101 c 0,3,4
 282 101 282 101 309.5 136 c 128,-1,5
 337 171 337 171 356 227 c 1,6,7
 356 412 356 412 347 455 c 1,8,9
 312 465 312 465 281 479 c 1,10,-1
 284 499 l 1,11,12
 352 490 352 490 441.5 490 c 128,-1,13
 531 490 531 490 582 497 c 1,14,-1
 585 477 l 1,15,16
 569 468 569 468 523 452 c 1,17,18
 509 382 509 382 509 168 c 1,19,20
 511 90 511 90 517 40 c 1,21,22
 541 29 541 29 573 27 c 1,23,-1
 573 5 l 1,24,25
 464 5 464 5 352 -15 c 1,26,-1
 345 -8 l 1,27,28
 364 74 364 74 364 159 c 1,29,-1
 354 160 l 1,30,31
 334 109 334 109 299 60 c 128,-1,32
 264 11 264 11 224 -15 c 1,33,34
 133 -15 133 -15 102 35.5 c 128,-1,35
 71 86 71 86 71 183 c 0,36,37
 71 189 71 189 71 195 c 2,38,-1
 74 322 l 2,39,40
 74 335 74 335 74 367.5 c 128,-1,41
 74 400 74 400 68 450 c 1,42,43
 44 461 44 461 12 463 c 1,44,-1
 12 485 l 1,45,46
 130 485 130 485 243 505 c 1,47,-1
 250 498 l 1,48,49
 229 408 229 408 229 231 c 0,0,1
270 641 m 1,50,51
 260 620 260 620 231.5 590.5 c 128,-1,52
 203 561 203 561 181 546 c 1,53,54
 159 561 159 561 130.5 590.5 c 128,-1,55
 102 620 102 620 91 641 c 1,56,57
 103 661 103 661 129.5 683.5 c 128,-1,58
 156 706 156 706 181 717 c 1,59,60
 204 705 204 705 230.5 682.5 c 128,-1,61
 257 660 257 660 270 641 c 1,50,51
492 641 m 1,62,63
 482 620 482 620 453.5 590.5 c 128,-1,64
 425 561 425 561 403 546 c 1,65,66
 381 561 381 561 352.5 590.5 c 128,-1,67
 324 620 324 620 313 641 c 1,68,69
 325 661 325 661 351.5 683.5 c 128,-1,70
 378 706 378 706 403 717 c 1,71,72
 426 705 426 705 452.5 682.5 c 128,-1,73
 479 660 479 660 492 641 c 1,62,63
EndSplineSet
EndChar

StartChar: yacute
Encoding: 253 253 190
Width: 582
GlyphClass: 2
Flags: W
LayerCount: 2
Fore
SplineSet
300 -142 m 0,0,1
 322 -142 322 -142 341 -134 c 1,2,3
 356 -70 356 -70 359 -21 c 128,-1,4
 362 28 362 28 362 159 c 1,5,-1
 352 160 l 1,6,7
 299 27 299 27 236 -15 c 1,8,9
 145 -15 145 -15 114 35.5 c 128,-1,10
 83 86 83 86 83 183 c 0,11,12
 83 189 83 189 83 195 c 2,13,-1
 86 322 l 2,14,15
 86 335 86 335 86 367.5 c 128,-1,16
 86 400 86 400 80 450 c 1,17,18
 56 461 56 461 24 463 c 1,19,-1
 24 485 l 1,20,21
 142 485 142 485 255 505 c 1,22,-1
 262 498 l 1,23,24
 241 408 241 408 241 231 c 0,25,26
 241 161 241 161 247 131 c 128,-1,27
 253 101 253 101 270.5 101 c 128,-1,28
 288 101 288 101 312.5 138.5 c 128,-1,29
 337 176 337 176 354 227 c 1,30,31
 354 412 354 412 345 455 c 1,32,33
 314 466 314 466 293 479 c 1,34,-1
 296 499 l 1,35,36
 364 490 364 490 446.5 490 c 128,-1,37
 529 490 529 490 580 497 c 1,38,-1
 583 477 l 1,39,40
 567 468 567 468 521 452 c 1,41,42
 507 382 507 382 507 233 c 128,-1,43
 507 84 507 84 522 -9 c 1,44,45
 492 -67 492 -67 419.5 -131 c 128,-1,46
 347 -195 347 -195 286 -215 c 1,47,48
 187 -215 187 -215 57 -174 c 1,49,-1
 57 -158 l 1,50,51
 96 -117 96 -117 109.5 -93 c 128,-1,52
 123 -69 123 -69 128 -25 c 1,53,-1
 154 -25 l 1,54,55
 156 -55 156 -55 159 -72 c 1,56,57
 219 -142 219 -142 300 -142 c 0,0,1
430 744 m 1,58,59
 439 747 439 747 455.5 747 c 128,-1,60
 472 747 472 747 478 745 c 1,61,62
 487 730 487 730 494.5 690.5 c 128,-1,63
 502 651 502 651 503 624 c 1,64,-1
 241 527 l 1,65,-1
 231 551 l 1,66,67
 356 619 356 619 430 744 c 1,58,59
EndSplineSet
EndChar

StartChar: thorn
Encoding: 254 254 191
Width: 548
GlyphClass: 2
Flags: W
LayerCount: 2
Fore
SplineSet
524 298 m 0,0,1
 524 198 524 198 454 113 c 128,-1,2
 384 28 384 28 282 -15 c 1,3,4
 251 -15 251 -15 215 -9 c 1,5,6
 215 -107 215 -107 223 -164 c 1,7,8
 261 -173 261 -173 303 -192 c 1,9,-1
 298 -213 l 1,10,11
 232 -200 232 -200 153.5 -200 c 128,-1,12
 75 -200 75 -200 13 -208 c 1,13,-1
 9 -186 l 1,14,15
 33 -180 33 -180 59 -167 c 1,16,17
 77 -56 77 -56 79 207 c 2,18,-1
 81 416 l 1,19,20
 81 583 81 583 73 649 c 1,21,22
 49 660 49 660 17 662 c 1,23,-1
 17 684 l 1,24,25
 136 684 136 684 248 704 c 1,26,-1
 255 697 l 1,27,28
 225 587 225 587 225 416 c 1,29,-1
 222 331 l 1,30,-1
 232 330 l 1,31,32
 269 429 269 429 355 505 c 1,33,34
 430 505 430 505 477 442.5 c 128,-1,35
 524 380 524 380 524 298 c 0,0,1
364 252 m 0,36,37
 364 389 364 389 321 389 c 0,38,39
 304 389 304 389 278.5 357 c 128,-1,40
 253 325 253 325 230 263 c 1,41,42
 230 136 230 136 234 93 c 1,43,44
 260 61 260 61 303 61 c 0,45,46
 326 61 326 61 344 66 c 1,47,48
 364 145 364 145 364 252 c 0,36,37
EndSplineSet
EndChar

StartChar: ydieresis
Encoding: 255 255 192
Width: 582
GlyphClass: 2
Flags: W
LayerCount: 2
Fore
SplineSet
300 -142 m 0,0,1
 322 -142 322 -142 341 -134 c 1,2,3
 356 -70 356 -70 359 -21 c 128,-1,4
 362 28 362 28 362 159 c 1,5,-1
 352 160 l 1,6,7
 299 27 299 27 236 -15 c 1,8,9
 145 -15 145 -15 114 35.5 c 128,-1,10
 83 86 83 86 83 183 c 0,11,12
 83 189 83 189 83 195 c 2,13,-1
 86 322 l 2,14,15
 86 335 86 335 86 367.5 c 128,-1,16
 86 400 86 400 80 450 c 1,17,18
 56 461 56 461 24 463 c 1,19,-1
 24 485 l 1,20,21
 142 485 142 485 255 505 c 1,22,-1
 262 498 l 1,23,24
 241 408 241 408 241 231 c 0,25,26
 241 161 241 161 247 131 c 128,-1,27
 253 101 253 101 270.5 101 c 128,-1,28
 288 101 288 101 312.5 138.5 c 128,-1,29
 337 176 337 176 354 227 c 1,30,31
 354 412 354 412 345 455 c 1,32,33
 314 466 314 466 293 479 c 1,34,-1
 296 499 l 1,35,36
 364 490 364 490 446.5 490 c 128,-1,37
 529 490 529 490 580 497 c 1,38,-1
 583 477 l 1,39,40
 567 468 567 468 521 452 c 1,41,42
 507 382 507 382 507 233 c 128,-1,43
 507 84 507 84 522 -9 c 1,44,45
 492 -67 492 -67 419.5 -131 c 128,-1,46
 347 -195 347 -195 286 -215 c 1,47,48
 187 -215 187 -215 57 -174 c 1,49,-1
 57 -158 l 1,50,51
 96 -117 96 -117 109.5 -93 c 128,-1,52
 123 -69 123 -69 128 -25 c 1,53,-1
 154 -25 l 1,54,55
 156 -55 156 -55 159 -72 c 1,56,57
 219 -142 219 -142 300 -142 c 0,0,1
282 641 m 1,58,59
 272 620 272 620 243.5 590.5 c 128,-1,60
 215 561 215 561 193 546 c 1,61,62
 171 561 171 561 142.5 590.5 c 128,-1,63
 114 620 114 620 103 641 c 1,64,65
 115 661 115 661 141.5 683.5 c 128,-1,66
 168 706 168 706 193 717 c 1,67,68
 216 705 216 705 242.5 682.5 c 128,-1,69
 269 660 269 660 282 641 c 1,58,59
504 641 m 1,70,71
 494 620 494 620 465.5 590.5 c 128,-1,72
 437 561 437 561 415 546 c 1,73,74
 393 561 393 561 364.5 590.5 c 128,-1,75
 336 620 336 620 325 641 c 1,76,77
 337 661 337 661 363.5 683.5 c 128,-1,78
 390 706 390 706 415 717 c 1,79,80
 438 705 438 705 464.5 682.5 c 128,-1,81
 491 660 491 660 504 641 c 1,70,71
EndSplineSet
EndChar

StartChar: hbar
Encoding: 295 295 193
Width: 583
GlyphClass: 2
Flags: W
LayerCount: 2
Fore
SplineSet
392 597 m 1,0,-1
 388 551 l 1,1,-1
 10 518 l 1,2,-1
 2 524 l 1,3,-1
 5 573 l 1,4,5
 119 574 119 574 232 584 c 128,-1,6
 345 594 345 594 386 602 c 1,7,-1
 392 597 l 1,0,-1
63 38 m 1,8,9
 78 113 78 113 78 316.5 c 128,-1,10
 78 520 78 520 74.5 593 c 128,-1,11
 71 666 71 666 53 733 c 1,12,-1
 77 740 l 1,13,14
 87 703 87 703 108 678 c 1,15,16
 192 684 192 684 287 711 c 1,17,-1
 292 692 l 1,18,19
 280 682 280 682 243 659 c 1,20,21
 234 622 234 622 228 505.5 c 128,-1,22
 222 389 222 389 222 331 c 1,23,-1
 232 330 l 1,24,25
 252 381 252 381 287 430 c 128,-1,26
 322 479 322 479 362 505 c 1,27,28
 451 505 451 505 484 453 c 128,-1,29
 517 401 517 401 517 311 c 0,30,31
 517 303 517 303 517 295 c 2,32,-1
 509 38 l 1,33,34
 543 26 543 26 568 12 c 1,35,-1
 565 -7 l 1,36,37
 509 0 509 0 441.5 0 c 128,-1,38
 374 0 374 0 337 -3 c 1,39,-1
 337 18 l 1,40,41
 357 110 357 110 357 219.5 c 128,-1,42
 357 329 357 329 351 359 c 128,-1,43
 345 389 345 389 328 389 c 0,44,45
 304 389 304 389 276.5 354 c 128,-1,46
 249 319 249 319 230 263 c 1,47,48
 230 78 230 78 239 35 c 1,49,50
 274 25 274 25 305 11 c 1,51,-1
 302 -9 l 1,52,53
 234 0 234 0 144.5 0 c 128,-1,54
 55 0 55 0 4 -7 c 1,55,-1
 1 13 l 1,56,57
 17 22 17 22 63 38 c 1,8,9
EndSplineSet
EndChar

StartChar: Itilde
Encoding: 296 296 194
Width: 385
GlyphClass: 2
Flags: W
LayerCount: 2
Fore
SplineSet
287 617 m 1,0,1
 275 540 275 540 275 334.5 c 128,-1,2
 275 129 275 129 289 34 c 1,3,4
 328 27 328 27 349 17 c 1,5,-1
 346 -9 l 1,6,7
 274 0 274 0 189.5 0 c 128,-1,8
 105 0 105 0 45 -9 c 1,9,-1
 41 18 l 1,10,11
 63 30 63 30 97 37 c 1,12,13
 110 135 110 135 110 319 c 128,-1,14
 110 503 110 503 95 614 c 1,15,16
 61 621 61 621 39 633 c 1,17,-1
 43 660 l 1,18,19
 103 651 103 651 187.5 651 c 128,-1,20
 272 651 272 651 344 660 c 1,21,-1
 347 634 l 1,22,23
 326 624 326 624 287 617 c 1,0,1
314 845 m 0,24,25
 373 845 373 845 400 884 c 1,26,-1
 424 867 l 1,27,28
 349 765 349 765 286 731 c 1,29,30
 259 731 259 731 191 757 c 128,-1,31
 123 783 123 783 94 783 c 0,32,33
 37 783 37 783 12 744 c 1,34,-1
 -12 761 l 1,35,36
 60 861 60 861 157 896 c 1,37,38
 236 845 236 845 314 845 c 0,24,25
EndSplineSet
EndChar

StartChar: itilde
Encoding: 297 297 195
Width: 328
GlyphClass: 2
Flags: W
LayerCount: 2
Fore
SplineSet
93 322 m 0,0,1
 93 384 93 384 85 450 c 1,2,3
 61 461 61 461 29 463 c 1,4,-1
 29 485 l 1,5,6
 148 485 148 485 260 505 c 1,7,-1
 267 498 l 1,8,9
 246 408 246 408 246 243 c 128,-1,10
 246 78 246 78 255 35 c 1,11,12
 290 25 290 25 321 11 c 1,13,-1
 318 -9 l 1,14,15
 250 0 250 0 160.5 0 c 128,-1,16
 71 0 71 0 20 -7 c 1,17,-1
 17 13 l 1,18,19
 33 22 33 22 79 38 c 1,20,21
 93 108 93 108 93 322 c 0,0,1
286 672 m 0,22,23
 345 672 345 672 372 711 c 1,24,-1
 396 694 l 1,25,26
 321 592 321 592 258 558 c 1,27,28
 231 558 231 558 163 584 c 128,-1,29
 95 610 95 610 66 610 c 0,30,31
 9 610 9 610 -16 571 c 1,32,-1
 -40 588 l 1,33,34
 32 688 32 688 129 723 c 1,35,36
 208 672 208 672 286 672 c 0,22,23
EndSplineSet
EndChar

StartChar: dotlessi
Encoding: 305 305 196
Width: 328
GlyphClass: 2
Flags: W
LayerCount: 2
Fore
SplineSet
93 322 m 0,0,1
 93 384 93 384 85 450 c 1,2,3
 61 461 61 461 29 463 c 1,4,-1
 29 485 l 1,5,6
 148 485 148 485 260 505 c 1,7,-1
 267 498 l 1,8,9
 246 408 246 408 246 243 c 128,-1,10
 246 78 246 78 255 35 c 1,11,12
 290 25 290 25 321 11 c 1,13,-1
 318 -9 l 1,14,15
 250 0 250 0 160.5 0 c 128,-1,16
 71 0 71 0 20 -7 c 1,17,-1
 17 13 l 1,18,19
 33 22 33 22 79 38 c 1,20,21
 93 108 93 108 93 322 c 0,0,1
EndSplineSet
EndChar

